STARTFONT 2.1
FONT -Vovanium-Salut Sans-Medium-R-Condensed--16-160-72-72-P-70-ISO10646-1
SIZE 16 72 72
FONTBOUNDINGBOX 19 16 0 -3
STARTPROPERTIES 21
POINT_SIZE 160
PIXEL_SIZE 16
RESOLUTION_X 72
RESOLUTION_Y 72
FONT_ASCENT 13
FONT_DESCENT 3
SPACING "P"
CAP_HEIGHT 10
CHARSET_ENCODING "1"
CHARSET_REGISTRY "ISO10646"
FAMILY_NAME "Salut Sans"
FOUNDRY "Vovanium"
RELATIVE_WEIGHT 50
RELATIVE_SETWIDTH 40
SETWIDTH_NAME "Condensed"
SLANT "R"
WEIGHT_NAME "Medium"
X_HEIGHT 7
_GBDFED_INFO "Edited with gbdfed 1.6."
ADD_STYLE_NAME ""
AVERAGE_WIDTH 70
ENDPROPERTIES
CHARS 898
STARTCHAR SPACE
ENCODING 32
SWIDTH 250 0
DWIDTH 4 0
BBX 0 0 0 0
BITMAP
ENDCHAR
STARTCHAR EXCLAMATION MARK
ENCODING 33
SWIDTH 250 0
DWIDTH 4 0
BBX 1 10 1 0
BITMAP
80
80
80
80
80
80
00
00
80
80
ENDCHAR
STARTCHAR QUOTATION MARK
ENCODING 34
SWIDTH 437 0
DWIDTH 7 0
BBX 5 3 1 7
BITMAP
D8
90
90
ENDCHAR
STARTCHAR NUMBER SIGN
ENCODING 35
SWIDTH 500 0
DWIDTH 8 0
BBX 8 10 0 0
BITMAP
12
12
12
7F
24
24
FE
48
48
48
ENDCHAR
STARTCHAR DOLLAR SIGN
ENCODING 36
SWIDTH 500 0
DWIDTH 8 0
BBX 6 14 1 -2
BITMAP
10
10
78
84
80
80
78
04
04
04
84
78
20
20
ENDCHAR
STARTCHAR PERCENT SIGN
ENCODING 37
SWIDTH 625 0
DWIDTH 10 0
BBX 8 10 1 0
BITMAP
60
91
92
64
08
10
26
49
89
06
ENDCHAR
STARTCHAR AMPERSAND
ENCODING 38
SWIDTH 562 0
DWIDTH 9 0
BBX 7 10 1 0
BITMAP
78
84
80
80
7E
84
84
84
84
7A
ENDCHAR
STARTCHAR APOSTROPHE
ENCODING 39
SWIDTH 250 0
DWIDTH 4 0
BBX 2 3 1 7
BITMAP
C0
80
80
ENDCHAR
STARTCHAR LEFT PARENTHESIS
ENCODING 40
SWIDTH 375 0
DWIDTH 6 0
BBX 3 13 2 -2
BITMAP
20
40
40
80
80
80
80
80
80
80
40
40
20
ENDCHAR
STARTCHAR RIGHT PARENTHESIS
ENCODING 41
SWIDTH 375 0
DWIDTH 6 0
BBX 3 13 1 -2
BITMAP
80
40
40
20
20
20
20
20
20
20
40
40
80
ENDCHAR
STARTCHAR ASTERISK
ENCODING 42
SWIDTH 437 0
DWIDTH 7 0
BBX 5 5 1 5
BITMAP
20
20
F8
20
50
ENDCHAR
STARTCHAR PLUS SIGN
ENCODING 43
SWIDTH 562 0
DWIDTH 9 0
BBX 7 7 1 1
BITMAP
10
10
10
FE
10
10
10
ENDCHAR
STARTCHAR COMMA
ENCODING 44
SWIDTH 250 0
DWIDTH 4 0
BBX 3 4 0 -2
BITMAP
20
20
40
80
ENDCHAR
STARTCHAR HYPHEN-MINUS
ENCODING 45
SWIDTH 312 0
DWIDTH 5 0
BBX 3 1 1 3
BITMAP
E0
ENDCHAR
STARTCHAR FULL STOP
ENCODING 46
SWIDTH 250 0
DWIDTH 4 0
BBX 2 2 1 0
BITMAP
C0
C0
ENDCHAR
STARTCHAR SOLIDUS
ENCODING 47
SWIDTH 500 0
DWIDTH 8 0
BBX 6 12 1 -1
BITMAP
04
04
08
08
10
10
20
20
40
40
80
80
ENDCHAR
STARTCHAR DIGIT ZERO
ENCODING 48
SWIDTH 437 0
DWIDTH 7 0
BBX 5 10 1 0
BITMAP
20
50
88
88
88
88
88
88
50
20
ENDCHAR
STARTCHAR DIGIT ONE
ENCODING 49
SWIDTH 437 0
DWIDTH 7 0
BBX 5 10 1 0
BITMAP
20
60
A0
20
20
20
20
20
20
F8
ENDCHAR
STARTCHAR DIGIT TWO
ENCODING 50
SWIDTH 437 0
DWIDTH 7 0
BBX 5 10 1 0
BITMAP
70
88
08
08
08
10
20
40
80
F8
ENDCHAR
STARTCHAR DIGIT THREE
ENCODING 51
SWIDTH 437 0
DWIDTH 7 0
BBX 5 10 1 0
BITMAP
F8
10
20
70
08
08
08
08
88
70
ENDCHAR
STARTCHAR DIGIT FOUR
ENCODING 52
SWIDTH 437 0
DWIDTH 7 0
BBX 5 10 1 0
BITMAP
30
30
50
50
50
90
90
F8
10
10
ENDCHAR
STARTCHAR DIGIT FIVE
ENCODING 53
SWIDTH 437 0
DWIDTH 7 0
BBX 5 10 1 0
BITMAP
F8
80
80
F0
08
08
08
08
88
70
ENDCHAR
STARTCHAR DIGIT SIX
ENCODING 54
SWIDTH 437 0
DWIDTH 7 0
BBX 5 10 1 0
BITMAP
30
40
40
80
F0
88
88
88
88
70
ENDCHAR
STARTCHAR DIGIT SEVEN
ENCODING 55
SWIDTH 437 0
DWIDTH 7 0
BBX 5 10 1 0
BITMAP
F8
08
10
10
10
20
20
20
40
40
ENDCHAR
STARTCHAR DIGIT EIGHT
ENCODING 56
SWIDTH 437 0
DWIDTH 7 0
BBX 5 10 1 0
BITMAP
70
88
88
88
70
88
88
88
88
70
ENDCHAR
STARTCHAR DIGIT NINE
ENCODING 57
SWIDTH 437 0
DWIDTH 7 0
BBX 5 10 1 0
BITMAP
70
88
88
88
88
78
08
10
10
60
ENDCHAR
STARTCHAR COLON
ENCODING 58
SWIDTH 250 0
DWIDTH 4 0
BBX 2 7 1 0
BITMAP
C0
C0
00
00
00
C0
C0
ENDCHAR
STARTCHAR SEMICOLON
ENCODING 59
SWIDTH 250 0
DWIDTH 4 0
BBX 3 9 0 -2
BITMAP
60
60
00
00
00
20
20
40
80
ENDCHAR
STARTCHAR LESS-THAN SIGN
ENCODING 60
SWIDTH 687 0
DWIDTH 11 0
BBX 7 7 2 1
BITMAP
02
0C
30
C0
30
0C
02
ENDCHAR
STARTCHAR EQUALS SIGN
ENCODING 61
SWIDTH 687 0
DWIDTH 11 0
BBX 7 4 2 3
BITMAP
FE
00
00
FE
ENDCHAR
STARTCHAR GREATER-THAN SIGN
ENCODING 62
SWIDTH 687 0
DWIDTH 11 0
BBX 7 7 2 1
BITMAP
80
60
18
06
18
60
80
ENDCHAR
STARTCHAR QUESTION MARK
ENCODING 63
SWIDTH 437 0
DWIDTH 7 0
BBX 5 10 1 0
BITMAP
70
88
08
08
70
40
00
00
40
40
ENDCHAR
STARTCHAR COMMERCIAL AT
ENCODING 64
SWIDTH 625 0
DWIDTH 10 0
BBX 8 12 1 -2
BITMAP
3C
42
81
9D
A5
A5
A5
A5
9A
80
40
3E
ENDCHAR
STARTCHAR LATIN CAPITAL LETTER A
ENCODING 65
SWIDTH 562 0
DWIDTH 9 0
BBX 7 10 1 0
BITMAP
10
10
28
28
28
44
44
7C
82
82
ENDCHAR
STARTCHAR LATIN CAPITAL LETTER B
ENCODING 66
SWIDTH 500 0
DWIDTH 8 0
BBX 6 10 1 0
BITMAP
F8
84
84
84
F8
84
84
84
84
F8
ENDCHAR
STARTCHAR LATIN CAPITAL LETTER C
ENCODING 67
SWIDTH 500 0
DWIDTH 8 0
BBX 6 10 1 0
BITMAP
38
44
80
80
80
80
80
80
44
38
ENDCHAR
STARTCHAR LATIN CAPITAL LETTER D
ENCODING 68
SWIDTH 562 0
DWIDTH 9 0
BBX 7 10 1 0
BITMAP
F8
84
82
82
82
82
82
82
84
F8
ENDCHAR
STARTCHAR LATIN CAPITAL LETTER E
ENCODING 69
SWIDTH 500 0
DWIDTH 8 0
BBX 6 10 1 0
BITMAP
FC
80
80
80
F0
80
80
80
80
FC
ENDCHAR
STARTCHAR LATIN CAPITAL LETTER F
ENCODING 70
SWIDTH 437 0
DWIDTH 7 0
BBX 6 10 1 0
BITMAP
FC
80
80
80
F0
80
80
80
80
80
ENDCHAR
STARTCHAR LATIN CAPITAL LETTER G
ENCODING 71
SWIDTH 562 0
DWIDTH 9 0
BBX 7 10 1 0
BITMAP
3C
42
80
80
80
8E
82
82
42
3C
ENDCHAR
STARTCHAR LATIN CAPITAL LETTER H
ENCODING 72
SWIDTH 562 0
DWIDTH 9 0
BBX 7 10 1 0
BITMAP
82
82
82
82
FE
82
82
82
82
82
ENDCHAR
STARTCHAR LATIN CAPITAL LETTER I
ENCODING 73
SWIDTH 312 0
DWIDTH 5 0
BBX 3 10 1 0
BITMAP
E0
40
40
40
40
40
40
40
40
E0
ENDCHAR
STARTCHAR LATIN CAPITAL LETTER J
ENCODING 74
SWIDTH 437 0
DWIDTH 7 0
BBX 5 10 1 0
BITMAP
38
08
08
08
08
08
08
08
88
70
ENDCHAR
STARTCHAR LATIN CAPITAL LETTER K
ENCODING 75
SWIDTH 500 0
DWIDTH 8 0
BBX 6 10 1 0
BITMAP
84
88
88
90
E0
90
90
88
88
84
ENDCHAR
STARTCHAR LATIN CAPITAL LETTER L
ENCODING 76
SWIDTH 500 0
DWIDTH 8 0
BBX 6 10 1 0
BITMAP
80
80
80
80
80
80
80
80
80
FC
ENDCHAR
STARTCHAR LATIN CAPITAL LETTER M
ENCODING 77
SWIDTH 687 0
DWIDTH 11 0
BBX 9 10 1 0
BITMAP
8080
C180
C180
A280
A280
9480
9480
8880
8880
8080
ENDCHAR
STARTCHAR LATIN CAPITAL LETTER N
ENCODING 78
SWIDTH 562 0
DWIDTH 9 0
BBX 7 10 1 0
BITMAP
C2
C2
A2
A2
92
92
8A
8A
86
86
ENDCHAR
STARTCHAR LATIN CAPITAL LETTER O
ENCODING 79
SWIDTH 562 0
DWIDTH 9 0
BBX 7 10 1 0
BITMAP
38
44
82
82
82
82
82
82
44
38
ENDCHAR
STARTCHAR LATIN CAPITAL LETTER P
ENCODING 80
SWIDTH 500 0
DWIDTH 8 0
BBX 6 10 1 0
BITMAP
F8
84
84
84
84
F8
80
80
80
80
ENDCHAR
STARTCHAR LATIN CAPITAL LETTER Q
ENCODING 81
SWIDTH 562 0
DWIDTH 9 0
BBX 7 12 1 -2
BITMAP
38
44
82
82
82
82
82
82
44
38
08
04
ENDCHAR
STARTCHAR LATIN CAPITAL LETTER R
ENCODING 82
SWIDTH 500 0
DWIDTH 8 0
BBX 6 10 1 0
BITMAP
F8
84
84
84
84
F8
90
88
88
84
ENDCHAR
STARTCHAR LATIN CAPITAL LETTER S
ENCODING 83
SWIDTH 500 0
DWIDTH 8 0
BBX 6 10 1 0
BITMAP
78
84
80
80
78
04
04
04
84
78
ENDCHAR
STARTCHAR LATIN CAPITAL LETTER T
ENCODING 84
SWIDTH 500 0
DWIDTH 8 0
BBX 7 10 1 0
BITMAP
FE
10
10
10
10
10
10
10
10
10
ENDCHAR
STARTCHAR LATIN CAPITAL LETTER U
ENCODING 85
SWIDTH 562 0
DWIDTH 9 0
BBX 7 10 1 0
BITMAP
82
82
82
82
82
82
82
82
82
7C
ENDCHAR
STARTCHAR LATIN CAPITAL LETTER V
ENCODING 86
SWIDTH 562 0
DWIDTH 9 0
BBX 7 10 1 0
BITMAP
82
82
44
44
44
28
28
28
10
10
ENDCHAR
STARTCHAR LATIN CAPITAL LETTER W
ENCODING 87
SWIDTH 812 0
DWIDTH 13 0
BBX 11 10 1 0
BITMAP
8020
8020
4440
4440
4440
2A80
2A80
2A80
1100
1100
ENDCHAR
STARTCHAR LATIN CAPITAL LETTER X
ENCODING 88
SWIDTH 562 0
DWIDTH 9 0
BBX 7 10 1 0
BITMAP
82
44
44
28
10
10
28
44
44
82
ENDCHAR
STARTCHAR LATIN CAPITAL LETTER Y
ENCODING 89
SWIDTH 500 0
DWIDTH 8 0
BBX 7 10 1 0
BITMAP
82
44
44
28
28
10
10
10
10
10
ENDCHAR
STARTCHAR LATIN CAPITAL LETTER Z
ENCODING 90
SWIDTH 562 0
DWIDTH 9 0
BBX 7 10 1 0
BITMAP
FE
04
04
08
10
10
20
40
40
FE
ENDCHAR
STARTCHAR LEFT SQUARE BRACKET
ENCODING 91
SWIDTH 375 0
DWIDTH 6 0
BBX 3 13 2 -2
BITMAP
E0
80
80
80
80
80
80
80
80
80
80
80
E0
ENDCHAR
STARTCHAR REVERSE SOLIDUS
ENCODING 92
SWIDTH 500 0
DWIDTH 8 0
BBX 6 12 1 -1
BITMAP
80
80
40
40
20
20
10
10
08
08
04
04
ENDCHAR
STARTCHAR RIGHT SQUARE BRACKET
ENCODING 93
SWIDTH 375 0
DWIDTH 6 0
BBX 3 13 1 -2
BITMAP
E0
20
20
20
20
20
20
20
20
20
20
20
E0
ENDCHAR
STARTCHAR CIRCUMFLEX ACCENT
ENCODING 94
SWIDTH 312 0
DWIDTH 5 0
BBX 4 2 1 8
BITMAP
40
A0
ENDCHAR
STARTCHAR LOW LINE
ENCODING 95
SWIDTH 500 0
DWIDTH 8 0
BBX 8 1 0 -2
BITMAP
FF
ENDCHAR
STARTCHAR GRAVE ACCENT
ENCODING 96
SWIDTH 250 0
DWIDTH 4 0
BBX 2 2 1 8
BITMAP
80
40
ENDCHAR
STARTCHAR LATIN SMALL LETTER A
ENCODING 97
SWIDTH 437 0
DWIDTH 7 0
BBX 5 7 1 0
BITMAP
70
08
78
88
88
88
78
ENDCHAR
STARTCHAR LATIN SMALL LETTER B
ENCODING 98
SWIDTH 437 0
DWIDTH 7 0
BBX 5 10 1 0
BITMAP
80
80
80
F0
88
88
88
88
88
F0
ENDCHAR
STARTCHAR LATIN SMALL LETTER C
ENCODING 99
SWIDTH 437 0
DWIDTH 7 0
BBX 5 7 1 0
BITMAP
70
88
80
80
80
88
70
ENDCHAR
STARTCHAR LATIN SMALL LETTER D
ENCODING 100
SWIDTH 437 0
DWIDTH 7 0
BBX 5 10 1 0
BITMAP
08
08
08
78
88
88
88
88
88
78
ENDCHAR
STARTCHAR LATIN SMALL LETTER E
ENCODING 101
SWIDTH 437 0
DWIDTH 7 0
BBX 5 7 1 0
BITMAP
70
88
F8
80
80
88
70
ENDCHAR
STARTCHAR LATIN SMALL LETTER F
ENCODING 102
SWIDTH 375 0
DWIDTH 6 0
BBX 5 10 1 0
BITMAP
38
40
40
F0
40
40
40
40
40
40
ENDCHAR
STARTCHAR LATIN SMALL LETTER G
ENCODING 103
SWIDTH 437 0
DWIDTH 7 0
BBX 6 10 1 -3
BITMAP
7C
88
88
88
70
80
78
04
04
F8
ENDCHAR
STARTCHAR LATIN SMALL LETTER H
ENCODING 104
SWIDTH 437 0
DWIDTH 7 0
BBX 5 10 1 0
BITMAP
80
80
80
F0
88
88
88
88
88
88
ENDCHAR
STARTCHAR LATIN SMALL LETTER I
ENCODING 105
SWIDTH 250 0
DWIDTH 4 0
BBX 3 10 0 0
BITMAP
20
20
00
E0
20
20
20
20
20
20
ENDCHAR
STARTCHAR LATIN SMALL LETTER J
ENCODING 106
SWIDTH 312 0
DWIDTH 5 0
BBX 4 13 0 -3
BITMAP
10
10
00
70
10
10
10
10
10
10
10
10
E0
ENDCHAR
STARTCHAR LATIN SMALL LETTER K
ENCODING 107
SWIDTH 437 0
DWIDTH 7 0
BBX 5 10 1 0
BITMAP
80
80
80
88
90
A0
C0
A0
90
88
ENDCHAR
STARTCHAR LATIN SMALL LETTER L
ENCODING 108
SWIDTH 250 0
DWIDTH 4 0
BBX 3 10 1 0
BITMAP
80
80
80
80
80
80
80
80
80
60
ENDCHAR
STARTCHAR LATIN SMALL LETTER M
ENCODING 109
SWIDTH 687 0
DWIDTH 11 0
BBX 9 7 1 0
BITMAP
FF00
8880
8880
8880
8880
8880
8880
ENDCHAR
STARTCHAR LATIN SMALL LETTER N
ENCODING 110
SWIDTH 437 0
DWIDTH 7 0
BBX 5 7 1 0
BITMAP
F0
88
88
88
88
88
88
ENDCHAR
STARTCHAR LATIN SMALL LETTER O
ENCODING 111
SWIDTH 437 0
DWIDTH 7 0
BBX 5 7 1 0
BITMAP
70
88
88
88
88
88
70
ENDCHAR
STARTCHAR LATIN SMALL LETTER P
ENCODING 112
SWIDTH 437 0
DWIDTH 7 0
BBX 5 10 1 -3
BITMAP
F0
88
88
88
88
88
F0
80
80
80
ENDCHAR
STARTCHAR LATIN SMALL LETTER Q
ENCODING 113
SWIDTH 437 0
DWIDTH 7 0
BBX 5 10 1 -3
BITMAP
78
88
88
88
88
88
78
08
08
08
ENDCHAR
STARTCHAR LATIN SMALL LETTER R
ENCODING 114
SWIDTH 312 0
DWIDTH 5 0
BBX 4 7 1 0
BITMAP
B0
C0
80
80
80
80
80
ENDCHAR
STARTCHAR LATIN SMALL LETTER S
ENCODING 115
SWIDTH 437 0
DWIDTH 7 0
BBX 5 7 1 0
BITMAP
78
80
80
70
08
08
F0
ENDCHAR
STARTCHAR LATIN SMALL LETTER T
ENCODING 116
SWIDTH 375 0
DWIDTH 6 0
BBX 4 10 1 0
BITMAP
40
40
40
F0
40
40
40
40
40
30
ENDCHAR
STARTCHAR LATIN SMALL LETTER U
ENCODING 117
SWIDTH 437 0
DWIDTH 7 0
BBX 5 7 1 0
BITMAP
88
88
88
88
88
88
78
ENDCHAR
STARTCHAR LATIN SMALL LETTER V
ENCODING 118
SWIDTH 437 0
DWIDTH 7 0
BBX 5 7 1 0
BITMAP
88
88
88
50
50
20
20
ENDCHAR
STARTCHAR LATIN SMALL LETTER W
ENCODING 119
SWIDTH 687 0
DWIDTH 11 0
BBX 9 7 1 0
BITMAP
8080
8880
8880
5500
5500
2200
2200
ENDCHAR
STARTCHAR LATIN SMALL LETTER X
ENCODING 120
SWIDTH 437 0
DWIDTH 7 0
BBX 5 7 1 0
BITMAP
88
88
50
20
50
88
88
ENDCHAR
STARTCHAR LATIN SMALL LETTER Y
ENCODING 121
SWIDTH 437 0
DWIDTH 7 0
BBX 5 10 1 -3
BITMAP
88
88
88
50
50
50
20
20
20
C0
ENDCHAR
STARTCHAR LATIN SMALL LETTER Z
ENCODING 122
SWIDTH 437 0
DWIDTH 7 0
BBX 5 7 1 0
BITMAP
F8
08
10
20
40
80
F8
ENDCHAR
STARTCHAR LEFT CURLY BRACKET
ENCODING 123
SWIDTH 437 0
DWIDTH 7 0
BBX 5 13 1 -2
BITMAP
18
20
20
20
20
20
C0
20
20
20
20
20
18
ENDCHAR
STARTCHAR VERTICAL LINE
ENCODING 124
SWIDTH 250 0
DWIDTH 4 0
BBX 1 13 2 -2
BITMAP
80
80
80
80
80
80
80
80
80
80
80
80
80
ENDCHAR
STARTCHAR RIGHT CURLY BRACKET
ENCODING 125
SWIDTH 437 0
DWIDTH 7 0
BBX 5 13 1 -2
BITMAP
C0
20
20
20
20
20
18
20
20
20
20
20
C0
ENDCHAR
STARTCHAR TILDE
ENCODING 126
SWIDTH 375 0
DWIDTH 6 0
BBX 6 2 0 8
BITMAP
64
98
ENDCHAR
STARTCHAR NO-BREAK SPACE
ENCODING 160
SWIDTH 250 0
DWIDTH 4 0
BBX 0 0 0 0
BITMAP
ENDCHAR
STARTCHAR INVERTED EXCLAMATION MARK
ENCODING 161
SWIDTH 250 0
DWIDTH 4 0
BBX 1 10 2 -3
BITMAP
80
80
00
00
80
80
80
80
80
80
ENDCHAR
STARTCHAR CENT SIGN
ENCODING 162
SWIDTH 437 0
DWIDTH 7 0
BBX 5 11 1 -2
BITMAP
20
20
70
88
80
80
80
88
70
20
20
ENDCHAR
STARTCHAR POUND SIGN
ENCODING 163
SWIDTH 500 0
DWIDTH 8 0
BBX 6 10 1 0
BITMAP
38
44
40
40
F0
40
40
40
40
FC
ENDCHAR
STARTCHAR CURRENCY SIGN
ENCODING 164
SWIDTH 500 0
DWIDTH 8 0
BBX 7 7 1 1
BITMAP
82
7C
44
44
44
7C
82
ENDCHAR
STARTCHAR YEN SIGN
ENCODING 165
SWIDTH 500 0
DWIDTH 8 0
BBX 7 10 1 0
BITMAP
82
44
44
EE
28
10
FE
10
10
10
ENDCHAR
STARTCHAR BROKEN BAR
ENCODING 166
SWIDTH 250 0
DWIDTH 4 0
BBX 1 13 2 -2
BITMAP
80
80
80
80
80
00
00
00
80
80
80
80
80
ENDCHAR
STARTCHAR SECTION SIGN
ENCODING 167
SWIDTH 500 0
DWIDTH 8 0
BBX 5 12 2 -2
BITMAP
38
40
40
60
90
88
88
48
30
10
10
E0
ENDCHAR
STARTCHAR DIAERESIS
ENCODING 168
SWIDTH 375 0
DWIDTH 6 0
BBX 4 2 1 8
BITMAP
90
90
ENDCHAR
STARTCHAR COPYRIGHT SIGN
ENCODING 169
SWIDTH 1000 0
DWIDTH 16 0
BBX 13 13 2 -2
BITMAP
0F80
3060
4010
4710
8888
9008
9008
9008
8888
4710
4010
3060
0F80
ENDCHAR
STARTCHAR FEMININE ORDINAL INDICATOR
ENCODING 170
SWIDTH 312 0
DWIDTH 5 0
BBX 4 5 1 6
BITMAP
60
10
70
90
70
ENDCHAR
STARTCHAR LEFT-POINTING DOUBLE ANGLE QUOTATION MARK
ENCODING 171
SWIDTH 437 0
DWIDTH 7 0
BBX 6 7 1 0
BITMAP
10
24
48
90
48
24
10
ENDCHAR
STARTCHAR NOT SIGN
ENCODING 172
SWIDTH 562 0
DWIDTH 9 0
BBX 7 3 1 2
BITMAP
FE
02
02
ENDCHAR
STARTCHAR SOFT HYPHEN
ENCODING 173
SWIDTH 0 0
DWIDTH 0 0
BBX 0 0 0 0
BITMAP
ENDCHAR
STARTCHAR REGISTERED SIGN
ENCODING 174
SWIDTH 1000 0
DWIDTH 16 0
BBX 13 13 2 -2
BITMAP
0F80
3060
4010
4F90
8848
8848
8F88
8908
8888
4850
4010
3060
0F80
ENDCHAR
STARTCHAR MACRON
ENCODING 175
SWIDTH 375 0
DWIDTH 6 0
BBX 4 1 1 8
BITMAP
F0
ENDCHAR
STARTCHAR DEGREE SIGN
ENCODING 176
SWIDTH 375 0
DWIDTH 6 0
BBX 4 4 1 6
BITMAP
60
90
90
60
ENDCHAR
STARTCHAR PLUS-MINUS SIGN
ENCODING 177
SWIDTH 562 0
DWIDTH 9 0
BBX 7 9 1 1
BITMAP
10
10
10
FE
10
10
10
00
FE
ENDCHAR
STARTCHAR SUPERSCRIPT TWO
ENCODING 178
SWIDTH 375 0
DWIDTH 6 0
BBX 4 7 1 6
BITMAP
E0
10
10
20
40
80
F0
ENDCHAR
STARTCHAR SUPERSCRIPT THREE
ENCODING 179
SWIDTH 375 0
DWIDTH 6 0
BBX 4 7 1 6
BITMAP
F0
20
60
10
10
10
E0
ENDCHAR
STARTCHAR ACUTE ACCENT
ENCODING 180
SWIDTH 250 0
DWIDTH 4 0
BBX 2 2 1 8
BITMAP
40
80
ENDCHAR
STARTCHAR MICRO SIGN
ENCODING 181
SWIDTH 437 0
DWIDTH 7 0
BBX 6 10 1 -3
BITMAP
88
88
88
88
88
88
F4
80
80
80
ENDCHAR
STARTCHAR PILCROW SIGN
ENCODING 182
SWIDTH 500 0
DWIDTH 8 0
BBX 6 12 1 -2
BITMAP
7C
E8
E8
E8
68
28
28
28
28
28
28
28
ENDCHAR
STARTCHAR MIDDLE DOT
ENCODING 183
SWIDTH 250 0
DWIDTH 4 0
BBX 2 2 1 3
BITMAP
C0
C0
ENDCHAR
STARTCHAR CEDILLA
ENCODING 184
SWIDTH 250 0
DWIDTH 4 0
BBX 3 2 0 -2
BITMAP
20
60
ENDCHAR
STARTCHAR SUPERSCRIPT ONE
ENCODING 185
SWIDTH 375 0
DWIDTH 6 0
BBX 3 7 2 6
BITMAP
40
C0
40
40
40
40
E0
ENDCHAR
STARTCHAR MASCULINE ORDINAL INDICATOR
ENCODING 186
SWIDTH 312 0
DWIDTH 5 0
BBX 4 5 1 6
BITMAP
60
90
90
90
60
ENDCHAR
STARTCHAR RIGHT-POINTING DOUBLE ANGLE QUOTATION MARK
ENCODING 187
SWIDTH 437 0
DWIDTH 7 0
BBX 6 7 1 0
BITMAP
20
90
48
24
48
90
20
ENDCHAR
STARTCHAR VULGAR FRACTION ONE QUARTER
ENCODING 188
SWIDTH 750 0
DWIDTH 12 0
BBX 9 16 2 -3
BITMAP
4000
C000
4000
4080
4100
4200
E400
0800
1000
2300
4300
8500
0500
0F80
0100
0100
ENDCHAR
STARTCHAR VULGAR FRACTION ONE HALF
ENCODING 189
SWIDTH 750 0
DWIDTH 12 0
BBX 9 16 2 -3
BITMAP
4000
C000
4000
4080
4100
4200
E400
0800
1000
2300
4480
8080
0100
0200
0400
0780
ENDCHAR
STARTCHAR VULGAR FRACTION THREE QUARTERS
ENCODING 190
SWIDTH 750 0
DWIDTH 12 0
BBX 10 16 1 -3
BITMAP
F000
2000
6000
1040
1080
1100
E200
0400
0800
1180
2180
4280
0280
07C0
0080
0080
ENDCHAR
STARTCHAR INVERTED QUESTION MARK
ENCODING 191
SWIDTH 437 0
DWIDTH 7 0
BBX 5 10 1 -3
BITMAP
10
10
00
00
10
70
80
80
88
70
ENDCHAR
STARTCHAR LATIN CAPITAL LETTER A WITH GRAVE
ENCODING 192
SWIDTH 562 0
DWIDTH 9 0
BBX 7 13 1 0
BITMAP
20
10
00
10
10
28
28
28
44
44
7C
82
82
ENDCHAR
STARTCHAR LATIN CAPITAL LETTER A WITH ACUTE
ENCODING 193
SWIDTH 562 0
DWIDTH 9 0
BBX 7 13 1 0
BITMAP
08
10
00
10
10
28
28
28
44
44
7C
82
82
ENDCHAR
STARTCHAR LATIN CAPITAL LETTER A WITH CIRCUMFLEX
ENCODING 194
SWIDTH 562 0
DWIDTH 9 0
BBX 7 13 1 0
BITMAP
10
28
00
10
10
28
28
28
44
44
7C
82
82
ENDCHAR
STARTCHAR LATIN CAPITAL LETTER A WITH TILDE
ENCODING 195
SWIDTH 562 0
DWIDTH 9 0
BBX 7 13 1 0
BITMAP
14
28
00
10
10
28
28
28
44
44
7C
82
82
ENDCHAR
STARTCHAR LATIN CAPITAL LETTER A WITH DIAERESIS
ENCODING 196
SWIDTH 562 0
DWIDTH 9 0
BBX 7 13 1 0
BITMAP
24
24
00
10
10
28
28
28
44
44
7C
82
82
ENDCHAR
STARTCHAR LATIN CAPITAL LETTER A WITH RING ABOVE
ENCODING 197
SWIDTH 562 0
DWIDTH 9 0
BBX 7 13 1 0
BITMAP
38
28
38
10
10
28
28
28
44
44
7C
82
82
ENDCHAR
STARTCHAR LATIN CAPITAL LETTER AE
ENCODING 198
SWIDTH 812 0
DWIDTH 13 0
BBX 11 10 1 0
BITMAP
1FE0
1400
2400
2400
2780
4400
4400
7C00
8400
87E0
ENDCHAR
STARTCHAR LATIN CAPITAL LETTER C WITH CEDILLA
ENCODING 199
SWIDTH 500 0
DWIDTH 8 0
BBX 6 13 1 -3
BITMAP
38
44
80
80
80
80
80
80
44
38
10
08
30
ENDCHAR
STARTCHAR LATIN CAPITAL LETTER E WITH GRAVE
ENCODING 200
SWIDTH 437 0
DWIDTH 7 0
BBX 6 13 1 0
BITMAP
20
10
00
FC
80
80
80
F0
80
80
80
80
FC
ENDCHAR
STARTCHAR LATIN CAPITAL LETTER E WITH ACUTE
ENCODING 201
SWIDTH 500 0
DWIDTH 8 0
BBX 6 13 1 0
BITMAP
10
20
00
FC
80
80
80
F0
80
80
80
80
FC
ENDCHAR
STARTCHAR LATIN CAPITAL LETTER E WITH CIRCUMFLEX
ENCODING 202
SWIDTH 500 0
DWIDTH 8 0
BBX 6 13 1 0
BITMAP
20
50
00
FC
80
80
80
F0
80
80
80
80
FC
ENDCHAR
STARTCHAR LATIN CAPITAL LETTER E WITH DIAERESIS
ENCODING 203
SWIDTH 500 0
DWIDTH 8 0
BBX 6 13 1 0
BITMAP
48
48
00
FC
80
80
80
F0
80
80
80
80
FC
ENDCHAR
STARTCHAR LATIN CAPITAL LETTER I WITH GRAVE
ENCODING 204
SWIDTH 312 0
DWIDTH 5 0
BBX 3 13 1 0
BITMAP
80
40
00
E0
40
40
40
40
40
40
40
40
E0
ENDCHAR
STARTCHAR LATIN CAPITAL LETTER I WITH ACUTE
ENCODING 205
SWIDTH 312 0
DWIDTH 5 0
BBX 3 13 1 0
BITMAP
20
40
00
E0
40
40
40
40
40
40
40
40
E0
ENDCHAR
STARTCHAR LATIN CAPITAL LETTER I WITH CIRCUMFLEX
ENCODING 206
SWIDTH 312 0
DWIDTH 5 0
BBX 3 13 1 0
BITMAP
40
A0
00
E0
40
40
40
40
40
40
40
40
E0
ENDCHAR
STARTCHAR LATIN CAPITAL LETTER I WITH DIAERESIS
ENCODING 207
SWIDTH 312 0
DWIDTH 5 0
BBX 4 13 1 0
BITMAP
90
90
00
E0
40
40
40
40
40
40
40
40
E0
ENDCHAR
STARTCHAR LATIN CAPITAL LETTER ETH
ENCODING 208
SWIDTH 625 0
DWIDTH 10 0
BBX 8 10 1 0
BITMAP
7C
42
41
41
F1
41
41
41
42
7C
ENDCHAR
STARTCHAR LATIN CAPITAL LETTER N WITH TILDE
ENCODING 209
SWIDTH 562 0
DWIDTH 9 0
BBX 7 13 1 0
BITMAP
14
28
00
C2
C2
A2
A2
92
92
8A
8A
86
86
ENDCHAR
STARTCHAR LATIN CAPITAL LETTER O WITH GRAVE
ENCODING 210
SWIDTH 562 0
DWIDTH 9 0
BBX 7 13 1 0
BITMAP
20
10
00
38
44
82
82
82
82
82
82
44
38
ENDCHAR
STARTCHAR LATIN CAPITAL LETTER O WITH ACUTE
ENCODING 211
SWIDTH 562 0
DWIDTH 9 0
BBX 7 13 1 0
BITMAP
08
10
00
38
44
82
82
82
82
82
82
44
38
ENDCHAR
STARTCHAR LATIN CAPITAL LETTER O WITH CIRCUMFLEX
ENCODING 212
SWIDTH 562 0
DWIDTH 9 0
BBX 7 13 1 0
BITMAP
10
28
00
38
44
82
82
82
82
82
82
44
38
ENDCHAR
STARTCHAR LATIN CAPITAL LETTER O WITH TILDE
ENCODING 213
SWIDTH 562 0
DWIDTH 9 0
BBX 7 13 1 0
BITMAP
14
28
00
38
44
82
82
82
82
82
82
44
38
ENDCHAR
STARTCHAR LATIN CAPITAL LETTER O WITH DIAERESIS
ENCODING 214
SWIDTH 562 0
DWIDTH 9 0
BBX 7 13 1 0
BITMAP
24
24
00
38
44
82
82
82
82
82
82
44
38
ENDCHAR
STARTCHAR MULTIPLICATION SIGN
ENCODING 215
SWIDTH 562 0
DWIDTH 9 0
BBX 7 7 1 1
BITMAP
82
44
28
10
28
44
82
ENDCHAR
STARTCHAR LATIN CAPITAL LETTER O WITH STROKE
ENCODING 216
SWIDTH 562 0
DWIDTH 9 0
BBX 7 10 1 0
BITMAP
3A
44
8A
8A
92
92
A2
A2
44
B8
ENDCHAR
STARTCHAR LATIN CAPITAL LETTER U WITH GRAVE
ENCODING 217
SWIDTH 562 0
DWIDTH 9 0
BBX 7 13 1 0
BITMAP
20
10
00
82
82
82
82
82
82
82
82
82
7C
ENDCHAR
STARTCHAR LATIN CAPITAL LETTER U WITH ACUTE
ENCODING 218
SWIDTH 562 0
DWIDTH 9 0
BBX 7 13 1 0
BITMAP
08
10
00
82
82
82
82
82
82
82
82
82
7C
ENDCHAR
STARTCHAR LATIN CAPITAL LETTER U WITH CIRCUMFLEX
ENCODING 219
SWIDTH 562 0
DWIDTH 9 0
BBX 7 13 1 0
BITMAP
10
28
00
82
82
82
82
82
82
82
82
82
7C
ENDCHAR
STARTCHAR LATIN CAPITAL LETTER U WITH DIAERESIS
ENCODING 220
SWIDTH 562 0
DWIDTH 9 0
BBX 7 13 1 0
BITMAP
24
24
00
82
82
82
82
82
82
82
82
82
7C
ENDCHAR
STARTCHAR LATIN CAPITAL LETTER Y WITH ACUTE
ENCODING 221
SWIDTH 500 0
DWIDTH 8 0
BBX 7 13 1 0
BITMAP
08
10
00
82
44
44
28
28
10
10
10
10
10
ENDCHAR
STARTCHAR LATIN CAPITAL LETTER THORN
ENCODING 222
SWIDTH 500 0
DWIDTH 8 0
BBX 6 10 1 0
BITMAP
80
80
F8
84
84
84
F8
80
80
80
ENDCHAR
STARTCHAR LATIN SMALL LETTER SHARP S
ENCODING 223
SWIDTH 500 0
DWIDTH 8 0
BBX 6 10 1 0
BITMAP
70
88
88
90
90
88
84
84
84
98
ENDCHAR
STARTCHAR LATIN SMALL LETTER A WITH GRAVE
ENCODING 224
SWIDTH 437 0
DWIDTH 7 0
BBX 5 10 1 0
BITMAP
40
20
00
70
08
08
78
88
88
78
ENDCHAR
STARTCHAR LATIN SMALL LETTER A WITH ACUTE
ENCODING 225
SWIDTH 437 0
DWIDTH 7 0
BBX 5 10 1 0
BITMAP
10
20
00
70
08
08
78
88
88
78
ENDCHAR
STARTCHAR LATIN SMALL LETTER A WITH CIRCUMFLEX
ENCODING 226
SWIDTH 437 0
DWIDTH 7 0
BBX 5 10 1 0
BITMAP
20
50
00
70
08
08
78
88
88
78
ENDCHAR
STARTCHAR LATIN SMALL LETTER A WITH TILDE
ENCODING 227
SWIDTH 437 0
DWIDTH 7 0
BBX 5 10 1 0
BITMAP
28
50
00
70
08
08
78
88
88
78
ENDCHAR
STARTCHAR LATIN SMALL LETTER A WITH DIAERESIS
ENCODING 228
SWIDTH 437 0
DWIDTH 7 0
BBX 5 10 1 0
BITMAP
48
48
00
70
08
08
78
88
88
78
ENDCHAR
STARTCHAR LATIN SMALL LETTER A WITH RING ABOVE
ENCODING 229
SWIDTH 437 0
DWIDTH 7 0
BBX 5 11 1 0
BITMAP
70
50
70
00
70
08
08
78
88
88
78
ENDCHAR
STARTCHAR LATIN SMALL LETTER AE
ENCODING 230
SWIDTH 687 0
DWIDTH 11 0
BBX 9 7 1 0
BITMAP
7700
0880
0880
7F80
8800
8800
7700
ENDCHAR
STARTCHAR LATIN SMALL LETTER C WITH CEDILLA
ENCODING 231
SWIDTH 437 0
DWIDTH 7 0
BBX 5 10 1 -3
BITMAP
70
88
80
80
80
88
70
20
10
60
ENDCHAR
STARTCHAR LATIN SMALL LETTER E WITH GRAVE
ENCODING 232
SWIDTH 437 0
DWIDTH 7 0
BBX 5 10 1 0
BITMAP
40
20
00
70
88
88
F8
80
80
70
ENDCHAR
STARTCHAR LATIN SMALL LETTER E WITH ACUTE
ENCODING 233
SWIDTH 437 0
DWIDTH 7 0
BBX 5 10 1 0
BITMAP
10
20
00
70
88
88
F8
80
80
70
ENDCHAR
STARTCHAR LATIN SMALL LETTER E WITH CIRCUMFLEX
ENCODING 234
SWIDTH 437 0
DWIDTH 7 0
BBX 5 10 1 0
BITMAP
20
50
00
70
88
88
F8
80
80
70
ENDCHAR
STARTCHAR LATIN SMALL LETTER E WITH DIAERESIS
ENCODING 235
SWIDTH 437 0
DWIDTH 7 0
BBX 5 10 1 0
BITMAP
48
48
00
70
88
88
F8
80
80
70
ENDCHAR
STARTCHAR LATIN SMALL LETTER I WITH GRAVE
ENCODING 236
SWIDTH 250 0
DWIDTH 4 0
BBX 3 10 0 0
BITMAP
40
20
00
E0
20
20
20
20
20
20
ENDCHAR
STARTCHAR LATIN SMALL LETTER I WITH ACUTE
ENCODING 237
SWIDTH 250 0
DWIDTH 4 0
BBX 4 10 0 0
BITMAP
10
20
00
E0
20
20
20
20
20
20
ENDCHAR
STARTCHAR LATIN SMALL LETTER I WITH CIRCUMFLEX
ENCODING 238
SWIDTH 312 0
DWIDTH 5 0
BBX 4 10 0 0
BITMAP
20
50
00
E0
20
20
20
20
20
20
ENDCHAR
STARTCHAR LATIN SMALL LETTER I WITH DIAERESIS
ENCODING 239
SWIDTH 312 0
DWIDTH 5 0
BBX 4 10 0 0
BITMAP
90
90
00
E0
20
20
20
20
20
20
ENDCHAR
STARTCHAR LATIN SMALL LETTER ETH
ENCODING 240
SWIDTH 437 0
DWIDTH 7 0
BBX 5 10 1 0
BITMAP
40
F0
20
70
88
88
88
88
88
70
ENDCHAR
STARTCHAR LATIN SMALL LETTER N WITH TILDE
ENCODING 241
SWIDTH 437 0
DWIDTH 7 0
BBX 5 10 1 0
BITMAP
28
50
00
F0
88
88
88
88
88
88
ENDCHAR
STARTCHAR LATIN SMALL LETTER O WITH GRAVE
ENCODING 242
SWIDTH 437 0
DWIDTH 7 0
BBX 5 10 1 0
BITMAP
40
20
00
70
88
88
88
88
88
70
ENDCHAR
STARTCHAR LATIN SMALL LETTER O WITH ACUTE
ENCODING 243
SWIDTH 437 0
DWIDTH 7 0
BBX 5 10 1 0
BITMAP
10
20
00
70
88
88
88
88
88
70
ENDCHAR
STARTCHAR LATIN SMALL LETTER O WITH CIRCUMFLEX
ENCODING 244
SWIDTH 437 0
DWIDTH 7 0
BBX 5 10 1 0
BITMAP
20
50
00
70
88
88
88
88
88
70
ENDCHAR
STARTCHAR LATIN SMALL LETTER O WITH TILDE
ENCODING 245
SWIDTH 437 0
DWIDTH 7 0
BBX 5 10 1 0
BITMAP
28
50
00
70
88
88
88
88
88
70
ENDCHAR
STARTCHAR LATIN SMALL LETTER O WITH DIAERESIS
ENCODING 246
SWIDTH 437 0
DWIDTH 7 0
BBX 5 10 1 0
BITMAP
48
48
00
70
88
88
88
88
88
70
ENDCHAR
STARTCHAR DIVISION SIGN
ENCODING 247
SWIDTH 562 0
DWIDTH 9 0
BBX 7 7 1 1
BITMAP
10
10
00
FE
00
10
10
ENDCHAR
STARTCHAR LATIN SMALL LETTER O WITH STROKE
ENCODING 248
SWIDTH 500 0
DWIDTH 8 0
BBX 7 7 1 0
BITMAP
3A
44
4C
54
64
44
B8
ENDCHAR
STARTCHAR LATIN SMALL LETTER U WITH GRAVE
ENCODING 249
SWIDTH 437 0
DWIDTH 7 0
BBX 5 10 1 0
BITMAP
40
20
00
88
88
88
88
88
88
78
ENDCHAR
STARTCHAR LATIN SMALL LETTER U WITH ACUTE
ENCODING 250
SWIDTH 437 0
DWIDTH 7 0
BBX 5 10 1 0
BITMAP
10
20
00
88
88
88
88
88
88
78
ENDCHAR
STARTCHAR LATIN SMALL LETTER U WITH CIRCUMFLEX
ENCODING 251
SWIDTH 437 0
DWIDTH 7 0
BBX 5 10 1 0
BITMAP
20
50
00
88
88
88
88
88
88
78
ENDCHAR
STARTCHAR LATIN SMALL LETTER U WITH DIAERESIS
ENCODING 252
SWIDTH 437 0
DWIDTH 7 0
BBX 5 10 1 0
BITMAP
48
48
00
88
88
88
88
88
88
78
ENDCHAR
STARTCHAR LATIN SMALL LETTER Y WITH ACUTE
ENCODING 253
SWIDTH 437 0
DWIDTH 7 0
BBX 5 13 1 -3
BITMAP
10
20
00
88
88
88
50
50
50
20
20
20
C0
ENDCHAR
STARTCHAR LATIN SMALL LETTER THORN
ENCODING 254
SWIDTH 437 0
DWIDTH 7 0
BBX 5 13 1 -3
BITMAP
80
80
80
F0
88
88
88
88
88
F0
80
80
80
ENDCHAR
STARTCHAR LATIN SMALL LETTER Y WITH DIAERESIS
ENCODING 255
SWIDTH 437 0
DWIDTH 7 0
BBX 5 13 1 -3
BITMAP
48
48
00
88
88
88
50
50
50
20
20
20
C0
ENDCHAR
STARTCHAR LATIN SMALL LETTER B WITH STROKE
ENCODING 384
SWIDTH 437 0
DWIDTH 7 0
BBX 6 10 0 0
BITMAP
40
F8
40
78
44
44
44
44
44
78
ENDCHAR
STARTCHAR LATIN CAPITAL LETTER B WITH HOOK
ENCODING 385
SWIDTH 687 0
DWIDTH 11 0
BBX 9 10 1 0
BITMAP
7F00
9080
9080
1080
1F00
1080
1080
1080
1080
1F00
ENDCHAR
STARTCHAR LATIN CAPITAL LETTER B WITH TOPBAR
ENCODING 386
SWIDTH 500 0
DWIDTH 8 0
BBX 6 10 1 0
BITMAP
FC
80
80
80
F8
84
84
84
84
F8
ENDCHAR
STARTCHAR LATIN SMALL LETTER B WITH TOPBAR
ENCODING 387
SWIDTH 437 0
DWIDTH 7 0
BBX 6 10 0 0
BITMAP
FC
40
40
78
44
44
44
44
44
78
ENDCHAR
STARTCHAR LATIN CAPITAL LETTER TONE SIX
ENCODING 388
SWIDTH 500 0
DWIDTH 8 0
BBX 6 10 1 0
BITMAP
80
80
80
80
F8
84
84
84
84
F8
ENDCHAR
STARTCHAR LATIN SMALL LETTER TONE SIX
ENCODING 389
SWIDTH 437 0
DWIDTH 7 0
BBX 5 7 1 0
BITMAP
80
80
F0
88
88
88
F0
ENDCHAR
STARTCHAR LATIN CAPITAL LETTER OPEN O
ENCODING 390
SWIDTH 500 0
DWIDTH 8 0
BBX 6 10 1 0
BITMAP
70
88
04
04
04
04
04
04
88
70
ENDCHAR
STARTCHAR LATIN CAPITAL LETTER C WITH HOOK
ENCODING 391
SWIDTH 562 0
DWIDTH 9 0
BBX 8 10 1 0
BITMAP
3B
44
80
80
80
80
80
80
44
38
ENDCHAR
STARTCHAR LATIN SMALL LETTER C WITH HOOK
ENCODING 392
SWIDTH 437 0
DWIDTH 7 0
BBX 6 10 1 0
BITMAP
04
08
08
78
88
80
80
80
88
70
ENDCHAR
STARTCHAR LATIN CAPITAL LETTER AFRICAN D
ENCODING 393
SWIDTH 625 0
DWIDTH 10 0
BBX 8 10 1 0
BITMAP
7C
42
41
41
F1
41
41
41
42
7C
ENDCHAR
STARTCHAR LATIN CAPITAL LETTER D WITH HOOK
ENCODING 394
SWIDTH 750 0
DWIDTH 12 0
BBX 10 10 1 0
BITMAP
7F00
9080
9040
1040
1040
1040
1040
1040
1080
1F00
ENDCHAR
STARTCHAR LATIN CAPITAL LETTER D WITH TOPBAR
ENCODING 395
SWIDTH 500 0
DWIDTH 8 0
BBX 6 10 1 0
BITMAP
FC
04
04
04
7C
84
84
84
84
7C
ENDCHAR
STARTCHAR LATIN SMALL LETTER D WITH TOPBAR
ENCODING 396
SWIDTH 437 0
DWIDTH 7 0
BBX 6 10 1 0
BITMAP
FC
08
08
78
88
88
88
88
88
78
ENDCHAR
STARTCHAR LATIN SMALL LETTER TURNED DELTA
ENCODING 397
SWIDTH 437 0
DWIDTH 7 0
BBX 5 10 1 -3
BITMAP
70
88
88
88
88
88
70
08
08
70
ENDCHAR
STARTCHAR LATIN CAPITAL LETTER REVERSED E
ENCODING 398
SWIDTH 500 0
DWIDTH 8 0
BBX 6 10 1 0
BITMAP
FC
04
04
04
3C
04
04
04
04
FC
ENDCHAR
STARTCHAR LATIN CAPITAL LETTER SCHWA
ENCODING 399
SWIDTH 500 0
DWIDTH 8 0
BBX 6 10 1 0
BITMAP
70
88
04
04
04
04
FC
84
88
70
ENDCHAR
STARTCHAR LATIN CAPITAL LETTER OPEN E
ENCODING 400
SWIDTH 500 0
DWIDTH 8 0
BBX 6 10 1 0
BITMAP
78
84
80
80
70
80
80
80
84
78
ENDCHAR
STARTCHAR LATIN CAPITAL LETTER F WITH HOOK
ENCODING 401
SWIDTH 437 0
DWIDTH 7 0
BBX 7 13 0 -3
BITMAP
7E
40
40
40
78
40
40
40
40
40
40
40
80
ENDCHAR
STARTCHAR LATIN SMALL LETTER F WITH HOOK
ENCODING 402
SWIDTH 375 0
DWIDTH 6 0
BBX 6 12 0 -2
BITMAP
1C
20
20
78
20
20
20
20
20
20
20
C0
ENDCHAR
STARTCHAR LATIN CAPITAL LETTER G WITH HOOK
ENCODING 403
SWIDTH 625 0
DWIDTH 10 0
BBX 9 10 1 0
BITMAP
3D80
4200
8000
8000
8000
8E00
8200
8200
4200
3E00
ENDCHAR
STARTCHAR LATIN CAPITAL LETTER GAMMA
ENCODING 404
SWIDTH 562 0
DWIDTH 9 0
BBX 7 10 1 0
BITMAP
82
44
28
28
10
10
28
28
28
10
ENDCHAR
STARTCHAR LATIN SMALL LETTER HV
ENCODING 405
SWIDTH 687 0
DWIDTH 11 0
BBX 9 10 1 0
BITMAP
8000
8000
8000
F100
8880
8880
8880
8880
8880
8700
ENDCHAR
STARTCHAR LATIN CAPITAL LETTER IOTA
ENCODING 406
SWIDTH 312 0
DWIDTH 5 0
BBX 3 10 1 0
BITMAP
E0
40
40
40
40
40
40
40
40
20
ENDCHAR
STARTCHAR LATIN CAPITAL LETTER I WITH STROKE
ENCODING 407
SWIDTH 312 0
DWIDTH 5 0
BBX 3 10 1 0
BITMAP
E0
40
40
40
E0
40
40
40
40
E0
ENDCHAR
STARTCHAR LATIN CAPITAL LETTER K WITH HOOK
ENCODING 408
SWIDTH 562 0
DWIDTH 9 0
BBX 8 10 1 0
BITMAP
86
89
88
90
E0
90
90
88
88
84
ENDCHAR
STARTCHAR LATIN SMALL LETTER K WITH HOOK
ENCODING 409
SWIDTH 437 0
DWIDTH 7 0
BBX 5 10 1 0
BITMAP
60
80
80
88
90
A0
C0
A0
90
88
ENDCHAR
STARTCHAR LATIN SMALL LETTER L WITH BAR
ENCODING 410
SWIDTH 312 0
DWIDTH 5 0
BBX 4 10 1 0
BITMAP
40
40
40
40
F0
40
40
40
40
30
ENDCHAR
STARTCHAR LATIN SMALL LETTER LAMBDA WITH STROKE
ENCODING 411
SWIDTH 437 0
DWIDTH 7 0
BBX 5 10 1 0
BITMAP
C0
20
20
20
F8
50
50
88
88
88
ENDCHAR
STARTCHAR LATIN CAPITAL LETTER TURNED M
ENCODING 412
SWIDTH 812 0
DWIDTH 13 0
BBX 11 10 1 0
BITMAP
8420
8420
8420
8420
8420
8420
8420
8420
8420
7BE0
ENDCHAR
STARTCHAR LATIN CAPITAL LETTER N WITH LEFT HOOK
ENCODING 413
SWIDTH 562 0
DWIDTH 9 0
BBX 8 13 0 -3
BITMAP
61
61
51
51
49
49
45
45
43
43
40
40
80
ENDCHAR
STARTCHAR LATIN SMALL LETTER N WITH LONG RIGHT LEG
ENCODING 414
SWIDTH 437 0
DWIDTH 7 0
BBX 5 10 1 -3
BITMAP
F0
88
88
88
88
88
88
08
08
08
ENDCHAR
STARTCHAR LATIN CAPITAL LETTER O WITH MIDDLE TILDE
ENCODING 415
SWIDTH 562 0
DWIDTH 9 0
BBX 7 10 1 0
BITMAP
38
44
82
82
B2
CE
82
82
44
38
ENDCHAR
STARTCHAR GREEK CAPITAL LETTER HETA
ENCODING 880
SWIDTH 437 0
DWIDTH 7 0
BBX 6 10 1 0
BITMAP
80
80
80
80
FC
80
80
80
80
80
ENDCHAR
STARTCHAR GREEK SMALL LETTER HETA
ENCODING 881
SWIDTH 312 0
DWIDTH 5 0
BBX 5 7 0 0
BITMAP
40
40
40
78
40
40
40
ENDCHAR
STARTCHAR GREEK CAPITAL LETTER ARCHAIC SAMPI
ENCODING 882
SWIDTH 562 0
DWIDTH 9 0
BBX 8 10 0 0
BITMAP
7F
49
49
08
08
08
08
08
08
08
ENDCHAR
STARTCHAR GREEK SMALL LETTER ARCHAIC SAMPI
ENCODING 883
SWIDTH 437 0
DWIDTH 7 0
BBX 6 10 0 0
BITMAP
7C
54
54
10
10
10
10
10
10
10
ENDCHAR
STARTCHAR GREEK NUMERAL SIGN
ENCODING 884
SWIDTH 250 0
DWIDTH 4 0
BBX 3 4 1 8
BITMAP
20
40
80
80
ENDCHAR
STARTCHAR GREEK LOWER NUMERAL SIGN
ENCODING 885
SWIDTH 250 0
DWIDTH 4 0
BBX 3 4 0 -2
BITMAP
20
20
40
80
ENDCHAR
STARTCHAR GREEK CAPITAL LETTER PAMPHYLIAN DIGAMMA
ENCODING 886
SWIDTH 562 0
DWIDTH 9 0
BBX 7 10 1 0
BITMAP
86
86
8A
8A
92
92
A2
A2
C2
C2
ENDCHAR
STARTCHAR GREEK SMALL LETTER PAMPHYLIAN DIGAMMA
ENCODING 887
SWIDTH 437 0
DWIDTH 7 0
BBX 5 7 1 0
BITMAP
88
98
98
A8
A8
C8
C8
ENDCHAR
STARTCHAR GREEK YPOGEGRAMMENI
ENCODING 890
SWIDTH 250 0
DWIDTH 4 0
BBX 2 5 1 -3
BITMAP
80
80
80
80
40
ENDCHAR
STARTCHAR GREEK SMALL REVERSED LUNATE SIGMA SYMBOL
ENCODING 891
SWIDTH 437 0
DWIDTH 7 0
BBX 5 7 1 0
BITMAP
70
88
08
08
08
88
70
ENDCHAR
STARTCHAR GREEK SMALL DOTTED LUNATE SIGMA SYMBOL
ENCODING 892
SWIDTH 437 0
DWIDTH 7 0
BBX 5 7 1 0
BITMAP
70
88
A0
A0
80
88
70
ENDCHAR
STARTCHAR GREEK SMALL REVERSED DOTTED LUNATE SIGMA SYMBOL
ENCODING 893
SWIDTH 437 0
DWIDTH 7 0
BBX 5 7 1 0
BITMAP
70
88
28
28
08
88
70
ENDCHAR
STARTCHAR GREEK QUESTION MARK
ENCODING 894
SWIDTH 250 0
DWIDTH 4 0
BBX 3 9 0 -2
BITMAP
60
60
00
00
00
20
20
40
80
ENDCHAR
STARTCHAR CYRILLIC CAPITAL LETTER JE
ENCODING 895
SWIDTH 437 0
DWIDTH 7 0
BBX 5 10 1 0
BITMAP
38
08
08
08
08
08
08
08
88
70
ENDCHAR
STARTCHAR GREEK TONOS
ENCODING 900
SWIDTH 250 0
DWIDTH 4 0
BBX 2 2 1 8
BITMAP
40
80
ENDCHAR
STARTCHAR GREEK DIALYTIKA TONOS
ENCODING 901
SWIDTH 375 0
DWIDTH 6 0
BBX 4 5 1 8
BITMAP
20
40
00
90
90
ENDCHAR
STARTCHAR GREEK CAPITAL LETTER ALPHA WITH TONOS
ENCODING 902
SWIDTH 625 0
DWIDTH 10 0
BBX 8 10 1 0
BITMAP
48
88
14
14
14
22
22
3E
41
41
ENDCHAR
STARTCHAR GREEK ANO TELEIA
ENCODING 903
SWIDTH 250 0
DWIDTH 4 0
BBX 2 2 1 3
BITMAP
C0
C0
ENDCHAR
STARTCHAR GREEK CAPITAL LETTER EPSILON WITH TONOS
ENCODING 904
SWIDTH 687 0
DWIDTH 11 0
BBX 9 10 1 0
BITMAP
5F80
9000
1000
1000
1E00
1000
1000
1000
1000
1F80
ENDCHAR
STARTCHAR GREEK CAPITAL LETTER ETA WITH TONOS
ENCODING 905
SWIDTH 750 0
DWIDTH 12 0
BBX 10 10 1 0
BITMAP
5040
9040
1040
1040
1FC0
1040
1040
1040
1040
1040
ENDCHAR
STARTCHAR GREEK CAPITAL LETTER IOTA WITH TONOS
ENCODING 906
SWIDTH 500 0
DWIDTH 8 0
BBX 6 10 1 0
BITMAP
5C
88
08
08
08
08
08
08
08
1C
ENDCHAR
STARTCHAR GREEK CAPITAL LETTER OMICRON WITH TONOS
ENCODING 908
SWIDTH 687 0
DWIDTH 11 0
BBX 9 10 1 0
BITMAP
4E00
9100
2080
2080
2080
2080
2080
2080
1100
0E00
ENDCHAR
STARTCHAR GREEK CAPITAL LETTER UPSILON WITH TONOS
ENCODING 910
SWIDTH 750 0
DWIDTH 12 0
BBX 10 10 1 0
BITMAP
5040
8880
0880
0500
0500
0200
0200
0200
0200
0200
ENDCHAR
STARTCHAR GREEK CAPITAL LETTER OMEGA WITH TONOS
ENCODING 911
SWIDTH 687 0
DWIDTH 11 0
BBX 9 10 1 0
BITMAP
4E00
9100
2080
2080
2080
2080
1100
0A00
0A00
3B80
ENDCHAR
STARTCHAR GREEK SMALL LETTER IOTA WITH DIALYTIKA AND TONOS
ENCODING 912
SWIDTH 312 0
DWIDTH 5 0
BBX 4 13 0 0
BITMAP
20
40
00
90
90
00
40
40
40
40
40
40
30
ENDCHAR
STARTCHAR GREEK CAPITAL LETTER ALPHA
ENCODING 913
SWIDTH 562 0
DWIDTH 9 0
BBX 7 10 1 0
BITMAP
10
10
28
28
28
44
44
7C
82
82
ENDCHAR
STARTCHAR GREEK CAPITAL LETTER BETA
ENCODING 914
SWIDTH 500 0
DWIDTH 8 0
BBX 6 10 1 0
BITMAP
F8
84
84
84
F8
84
84
84
84
F8
ENDCHAR
STARTCHAR GREEK CAPITAL LETTER GAMMA
ENCODING 915
SWIDTH 437 0
DWIDTH 7 0
BBX 6 10 1 0
BITMAP
FC
80
80
80
80
80
80
80
80
80
ENDCHAR
STARTCHAR GREEK CAPITAL LETTER DELTA
ENCODING 916
SWIDTH 562 0
DWIDTH 9 0
BBX 7 10 1 0
BITMAP
10
10
28
28
28
44
44
44
82
FE
ENDCHAR
STARTCHAR GREEK CAPITAL LETTER EPSILON
ENCODING 917
SWIDTH 500 0
DWIDTH 8 0
BBX 6 10 1 0
BITMAP
FC
80
80
80
F0
80
80
80
80
FC
ENDCHAR
STARTCHAR GREEK CAPITAL LETTER ZETA
ENCODING 918
SWIDTH 562 0
DWIDTH 9 0
BBX 7 10 1 0
BITMAP
FE
04
04
08
10
10
20
40
40
FE
ENDCHAR
STARTCHAR GREEK CAPITAL LETTER ETA
ENCODING 919
SWIDTH 562 0
DWIDTH 9 0
BBX 7 10 1 0
BITMAP
82
82
82
82
FE
82
82
82
82
82
ENDCHAR
STARTCHAR GREEK CAPITAL LETTER THETA
ENCODING 920
SWIDTH 562 0
DWIDTH 9 0
BBX 7 10 1 0
BITMAP
38
44
82
82
BA
82
82
82
44
38
ENDCHAR
STARTCHAR GREEK CAPITAL LETTER IOTA
ENCODING 921
SWIDTH 312 0
DWIDTH 5 0
BBX 3 10 1 0
BITMAP
E0
40
40
40
40
40
40
40
40
E0
ENDCHAR
STARTCHAR GREEK CAPITAL LETTER KAPPA
ENCODING 922
SWIDTH 500 0
DWIDTH 8 0
BBX 6 10 1 0
BITMAP
84
88
88
90
E0
90
90
88
88
84
ENDCHAR
STARTCHAR GREEK CAPITAL LETTER LAMDA
ENCODING 923
SWIDTH 562 0
DWIDTH 9 0
BBX 7 10 1 0
BITMAP
10
10
28
28
28
44
44
44
82
82
ENDCHAR
STARTCHAR GREEK CAPITAL LETTER MU
ENCODING 924
SWIDTH 687 0
DWIDTH 11 0
BBX 9 10 1 0
BITMAP
8080
C180
C180
A280
A280
9480
9480
8880
8880
8080
ENDCHAR
STARTCHAR GREEK CAPITAL LETTER NU
ENCODING 925
SWIDTH 562 0
DWIDTH 9 0
BBX 7 10 1 0
BITMAP
C2
C2
A2
A2
92
92
8A
8A
86
86
ENDCHAR
STARTCHAR GREEK CAPITAL LETTER XI
ENCODING 926
SWIDTH 500 0
DWIDTH 8 0
BBX 6 10 1 0
BITMAP
FC
00
00
00
78
00
00
00
00
FC
ENDCHAR
STARTCHAR GREEK CAPITAL LETTER OMICRON
ENCODING 927
SWIDTH 562 0
DWIDTH 9 0
BBX 7 10 1 0
BITMAP
38
44
82
82
82
82
82
82
44
38
ENDCHAR
STARTCHAR GREEK CAPITAL LETTER PI
ENCODING 928
SWIDTH 562 0
DWIDTH 9 0
BBX 7 10 1 0
BITMAP
FE
82
82
82
82
82
82
82
82
82
ENDCHAR
STARTCHAR GREEK CAPITAL LETTER RHO
ENCODING 929
SWIDTH 500 0
DWIDTH 8 0
BBX 6 10 1 0
BITMAP
F8
84
84
84
84
F8
80
80
80
80
ENDCHAR
STARTCHAR GREEK CAPITAL LETTER SIGMA
ENCODING 931
SWIDTH 562 0
DWIDTH 9 0
BBX 7 10 1 0
BITMAP
FE
40
20
10
08
10
20
40
80
FE
ENDCHAR
STARTCHAR GREEK CAPITAL LETTER TAU
ENCODING 932
SWIDTH 500 0
DWIDTH 8 0
BBX 7 10 1 0
BITMAP
FE
10
10
10
10
10
10
10
10
10
ENDCHAR
STARTCHAR GREEK CAPITAL LETTER UPSILON
ENCODING 933
SWIDTH 500 0
DWIDTH 8 0
BBX 7 10 1 0
BITMAP
82
44
44
28
28
10
10
10
10
10
ENDCHAR
STARTCHAR GREEK CAPITAL LETTER PHI
ENCODING 934
SWIDTH 687 0
DWIDTH 11 0
BBX 9 10 1 0
BITMAP
0800
3E00
4900
8880
8880
8880
4900
3E00
0800
0800
ENDCHAR
STARTCHAR GREEK CAPITAL LETTER CHI
ENCODING 935
SWIDTH 500 0
DWIDTH 8 0
BBX 7 10 1 0
BITMAP
82
44
44
28
10
10
28
44
44
82
ENDCHAR
STARTCHAR GREEK CAPITAL LETTER PSI
ENCODING 936
SWIDTH 687 0
DWIDTH 11 0
BBX 9 10 1 0
BITMAP
8880
8880
8880
8880
8880
4900
3E00
0800
0800
0800
ENDCHAR
STARTCHAR GREEK CAPITAL LETTER OMEGA
ENCODING 937
SWIDTH 562 0
DWIDTH 9 0
BBX 7 10 1 0
BITMAP
38
44
82
82
82
82
44
28
28
EE
ENDCHAR
STARTCHAR GREEK CAPITAL LETTER IOTA WITH DIALYTIKA
ENCODING 938
SWIDTH 312 0
DWIDTH 5 0
BBX 4 13 1 0
BITMAP
90
90
00
E0
40
40
40
40
40
40
40
40
E0
ENDCHAR
STARTCHAR GREEK CAPITAL LETTER UPSILON WITH DIALYTIKA
ENCODING 939
SWIDTH 500 0
DWIDTH 8 0
BBX 7 13 1 0
BITMAP
24
24
00
82
44
44
28
28
10
10
10
10
10
ENDCHAR
STARTCHAR GREEK SMALL LETTER ALPHA WITH TONOS
ENCODING 940
SWIDTH 437 0
DWIDTH 7 0
BBX 5 10 1 0
BITMAP
10
20
00
78
88
88
88
88
88
78
ENDCHAR
STARTCHAR GREEK SMALL LETTER EPSILON WITH TONOS
ENCODING 941
SWIDTH 375 0
DWIDTH 6 0
BBX 4 10 1 0
BITMAP
20
40
00
70
80
80
60
80
80
70
ENDCHAR
STARTCHAR GREEK SMALL LETTER ETA WITH TONOS
ENCODING 942
SWIDTH 437 0
DWIDTH 7 0
BBX 5 13 1 -3
BITMAP
10
20
00
F0
88
88
88
88
88
88
08
08
08
ENDCHAR
STARTCHAR GREEK SMALL LETTER IOTA WITH TONOS
ENCODING 943
SWIDTH 312 0
DWIDTH 5 0
BBX 3 10 1 0
BITMAP
40
80
00
80
80
80
80
80
80
60
ENDCHAR
STARTCHAR GREEK SMALL LETTER UPSILON WITH DIALYTIKA AND TONOS
ENCODING 944
SWIDTH 437 0
DWIDTH 7 0
BBX 5 13 1 0
BITMAP
20
40
00
90
90
00
90
88
88
88
88
88
70
ENDCHAR
STARTCHAR GREEK SMALL LETTER ALPHA
ENCODING 945
SWIDTH 437 0
DWIDTH 7 0
BBX 5 7 1 0
BITMAP
78
88
88
88
88
88
78
ENDCHAR
STARTCHAR GREEK SMALL LETTER BETA
ENCODING 946
SWIDTH 437 0
DWIDTH 7 0
BBX 5 13 1 -3
BITMAP
60
90
90
A0
B0
88
88
88
88
F0
80
80
80
ENDCHAR
STARTCHAR GREEK SMALL LETTER GAMMA
ENCODING 947
SWIDTH 437 0
DWIDTH 7 0
BBX 5 10 1 -3
BITMAP
88
88
88
50
50
50
20
20
20
20
ENDCHAR
STARTCHAR GREEK SMALL LETTER DELTA
ENCODING 948
SWIDTH 437 0
DWIDTH 7 0
BBX 5 10 1 0
BITMAP
70
80
80
70
88
88
88
88
88
70
ENDCHAR
STARTCHAR GREEK SMALL LETTER EPSILON
ENCODING 949
SWIDTH 375 0
DWIDTH 6 0
BBX 4 7 1 0
BITMAP
70
80
80
60
80
80
70
ENDCHAR
STARTCHAR GREEK SMALL LETTER ZETA
ENCODING 950
SWIDTH 375 0
DWIDTH 6 0
BBX 4 13 1 -3
BITMAP
F0
20
40
80
80
80
80
80
80
60
10
10
20
ENDCHAR
STARTCHAR GREEK SMALL LETTER ETA
ENCODING 951
SWIDTH 437 0
DWIDTH 7 0
BBX 5 10 1 -3
BITMAP
F0
88
88
88
88
88
88
08
08
08
ENDCHAR
STARTCHAR GREEK SMALL LETTER THETA
ENCODING 952
SWIDTH 437 0
DWIDTH 7 0
BBX 5 10 1 0
BITMAP
70
88
88
88
F8
88
88
88
88
70
ENDCHAR
STARTCHAR GREEK SMALL LETTER IOTA
ENCODING 953
SWIDTH 312 0
DWIDTH 5 0
BBX 3 7 1 0
BITMAP
80
80
80
80
80
80
60
ENDCHAR
STARTCHAR GREEK SMALL LETTER KAPPA
ENCODING 954
SWIDTH 437 0
DWIDTH 7 0
BBX 5 7 1 0
BITMAP
88
90
A0
C0
A0
90
88
ENDCHAR
STARTCHAR GREEK SMALL LETTER LAMDA
ENCODING 955
SWIDTH 437 0
DWIDTH 7 0
BBX 5 10 1 0
BITMAP
C0
20
20
20
50
50
50
88
88
88
ENDCHAR
STARTCHAR GREEK SMALL LETTER MU
ENCODING 956
SWIDTH 437 0
DWIDTH 7 0
BBX 6 10 1 -3
BITMAP
88
88
88
88
88
88
F4
80
80
80
ENDCHAR
STARTCHAR GREEK SMALL LETTER NU
ENCODING 957
SWIDTH 437 0
DWIDTH 7 0
BBX 5 7 1 0
BITMAP
88
88
88
50
50
20
20
ENDCHAR
STARTCHAR GREEK SMALL LETTER XI
ENCODING 958
SWIDTH 375 0
DWIDTH 6 0
BBX 4 13 1 -3
BITMAP
70
80
80
80
60
80
80
80
80
60
10
10
20
ENDCHAR
STARTCHAR GREEK SMALL LETTER OMICRON
ENCODING 959
SWIDTH 437 0
DWIDTH 7 0
BBX 5 7 1 0
BITMAP
70
88
88
88
88
88
70
ENDCHAR
STARTCHAR GREEK SMALL LETTER PI
ENCODING 960
SWIDTH 437 0
DWIDTH 7 0
BBX 5 7 1 0
BITMAP
F8
88
88
88
88
88
88
ENDCHAR
STARTCHAR GREEK SMALL LETTER RHO
ENCODING 961
SWIDTH 437 0
DWIDTH 7 0
BBX 5 10 1 -3
BITMAP
70
88
88
88
88
88
F0
80
80
80
ENDCHAR
STARTCHAR GREEK SMALL LETTER FINAL SIGMA
ENCODING 962
SWIDTH 437 0
DWIDTH 7 0
BBX 5 10 1 -3
BITMAP
78
80
80
80
80
80
70
08
08
30
ENDCHAR
STARTCHAR GREEK SMALL LETTER SIGMA
ENCODING 963
SWIDTH 437 0
DWIDTH 7 0
BBX 6 7 1 0
BITMAP
7C
88
88
88
88
88
70
ENDCHAR
STARTCHAR GREEK SMALL LETTER TAU
ENCODING 964
SWIDTH 437 0
DWIDTH 7 0
BBX 5 7 1 0
BITMAP
F8
20
20
20
20
20
10
ENDCHAR
STARTCHAR GREEK SMALL LETTER UPSILON
ENCODING 965
SWIDTH 437 0
DWIDTH 7 0
BBX 5 7 1 0
BITMAP
90
88
88
88
88
88
70
ENDCHAR
STARTCHAR GREEK SMALL LETTER PHI
ENCODING 966
SWIDTH 562 0
DWIDTH 9 0
BBX 7 10 1 -3
BITMAP
4C
92
92
92
92
92
7C
10
10
10
ENDCHAR
STARTCHAR GREEK SMALL LETTER CHI
ENCODING 967
SWIDTH 437 0
DWIDTH 7 0
BBX 5 10 1 -3
BITMAP
88
88
50
50
20
20
50
50
88
88
ENDCHAR
STARTCHAR GREEK SMALL LETTER PSI
ENCODING 968
SWIDTH 562 0
DWIDTH 9 0
BBX 7 13 1 -3
BITMAP
10
10
10
92
92
92
92
92
92
7C
10
10
10
ENDCHAR
STARTCHAR GREEK SMALL LETTER OMEGA
ENCODING 969
SWIDTH 562 0
DWIDTH 9 0
BBX 7 7 1 0
BITMAP
44
82
92
92
92
92
6C
ENDCHAR
STARTCHAR GREEK SMALL LETTER IOTA WITH DIALYTIKA
ENCODING 970
SWIDTH 312 0
DWIDTH 5 0
BBX 4 10 0 0
BITMAP
90
90
00
40
40
40
40
40
40
30
ENDCHAR
STARTCHAR GREEK SMALL LETTER UPSILON WITH DIALYTIKA
ENCODING 971
SWIDTH 437 0
DWIDTH 7 0
BBX 5 10 1 0
BITMAP
90
90
00
90
88
88
88
88
88
70
ENDCHAR
STARTCHAR GREEK SMALL LETTER OMICRON WITH TONOS
ENCODING 972
SWIDTH 437 0
DWIDTH 7 0
BBX 5 10 1 0
BITMAP
10
20
00
70
88
88
88
88
88
70
ENDCHAR
STARTCHAR GREEK SMALL LETTER UPSILON WITH TONOS
ENCODING 973
SWIDTH 437 0
DWIDTH 7 0
BBX 5 10 1 0
BITMAP
10
20
00
90
88
88
88
88
88
70
ENDCHAR
STARTCHAR GREEK SMALL LETTER OMEGA WITH TONOS
ENCODING 974
SWIDTH 562 0
DWIDTH 9 0
BBX 7 10 1 0
BITMAP
08
10
00
44
82
92
92
92
92
6C
ENDCHAR
STARTCHAR GREEK CAPITAL KAI SYMBOL
ENCODING 975
SWIDTH 500 0
DWIDTH 8 0
BBX 6 12 1 -2
BITMAP
84
88
88
90
E0
90
90
88
88
84
08
10
ENDCHAR
STARTCHAR GREEK BETA SYMBOL
ENCODING 976
SWIDTH 437 0
DWIDTH 7 0
BBX 5 10 1 0
BITMAP
60
90
90
A0
F0
88
88
88
88
70
ENDCHAR
STARTCHAR GREEK THETA SYMBOL
ENCODING 977
SWIDTH 437 0
DWIDTH 7 0
BBX 5 10 1 0
BITMAP
70
88
88
88
78
08
88
88
88
70
ENDCHAR
STARTCHAR GREEK UPSILON WITH HOOK SYMBOL
ENCODING 978
SWIDTH 562 0
DWIDTH 9 0
BBX 7 10 1 0
BITMAP
8C
52
50
20
20
20
20
20
20
20
ENDCHAR
STARTCHAR GREEK UPSILON WITH ACUTE AND HOOK SYMBOL
ENCODING 979
SWIDTH 750 0
DWIDTH 12 0
BBX 10 10 1 0
BITMAP
5180
8A40
0A00
0400
0400
0400
0400
0400
0400
0400
ENDCHAR
STARTCHAR GREEK UPSILON WITH DIAERESIS AND HOOK SYMBOL
ENCODING 980
SWIDTH 562 0
DWIDTH 9 0
BBX 7 13 1 0
BITMAP
48
48
00
8C
52
50
20
20
20
20
20
20
20
ENDCHAR
STARTCHAR GREEK PHI SYMBOL
ENCODING 981
SWIDTH 562 0
DWIDTH 9 0
BBX 7 13 1 -3
BITMAP
10
10
10
7C
92
92
92
92
92
7C
10
10
10
ENDCHAR
STARTCHAR GREEK PI SYMBOL
ENCODING 982
SWIDTH 562 0
DWIDTH 9 0
BBX 7 7 1 0
BITMAP
FE
82
92
92
92
92
6C
ENDCHAR
STARTCHAR GREEK KAI SYMBOL
ENCODING 983
SWIDTH 562 0
DWIDTH 9 0
BBX 7 10 1 -3
BITMAP
C6
2A
2C
38
68
A8
C6
02
02
0C
ENDCHAR
STARTCHAR GREEK LETTER ARCHAIC KOPPA
ENCODING 984
SWIDTH 562 0
DWIDTH 9 0
BBX 7 12 1 -2
BITMAP
38
44
82
82
82
82
82
82
44
38
10
10
ENDCHAR
STARTCHAR GREEK SMALL LETTER ARCHAIC KOPPA
ENCODING 985
SWIDTH 437 0
DWIDTH 7 0
BBX 5 9 1 -2
BITMAP
70
88
88
88
88
88
70
20
20
ENDCHAR
STARTCHAR GREEK LETTER STIGMA
ENCODING 986
SWIDTH 500 0
DWIDTH 8 0
BBX 7 13 1 -3
BITMAP
3E
40
80
80
80
80
80
80
80
60
10
10
60
ENDCHAR
STARTCHAR GREEK SMALL LETTER STIGMA
ENCODING 987
SWIDTH 437 0
DWIDTH 7 0
BBX 7 10 0 -3
BITMAP
3E
40
40
40
40
40
30
08
08
30
ENDCHAR
STARTCHAR GREEK LETTER DIGAMMA
ENCODING 988
SWIDTH 437 0
DWIDTH 7 0
BBX 6 10 1 0
BITMAP
FC
80
80
80
F0
80
80
80
80
80
ENDCHAR
STARTCHAR GREEK SMALL LETTER DIGAMMA
ENCODING 989
SWIDTH 437 0
DWIDTH 7 0
BBX 7 13 0 -3
BITMAP
0E
10
10
1C
10
10
10
10
10
10
10
10
E0
ENDCHAR
STARTCHAR GREEK LETTER KOPPA
ENCODING 990
SWIDTH 500 0
DWIDTH 8 0
BBX 6 10 1 0
BITMAP
C0
20
20
44
5C
E8
88
10
10
0C
ENDCHAR
STARTCHAR GREEK SMALL LETTER KOPPA
ENCODING 991
SWIDTH 437 0
DWIDTH 7 0
BBX 5 10 1 0
BITMAP
20
20
40
40
80
F8
10
10
20
20
ENDCHAR
STARTCHAR GREEK LETTER SAMPI
ENCODING 992
SWIDTH 562 0
DWIDTH 9 0
BBX 7 13 1 -3
BITMAP
78
84
0A
12
26
4A
92
22
42
04
04
08
10
ENDCHAR
STARTCHAR GREEK SMALL LETTER SAMPI
ENCODING 993
SWIDTH 562 0
DWIDTH 9 0
BBX 7 10 1 -3
BITMAP
C0
30
08
14
24
4A
92
02
02
02
ENDCHAR
STARTCHAR COPTIC CAPITAL LETTER SHEI
ENCODING 994
SWIDTH 687 0
DWIDTH 11 0
BBX 9 13 1 -3
BITMAP
2200
4100
8080
8080
8080
8880
8880
8880
8880
7780
0080
0100
0600
ENDCHAR
STARTCHAR COPTIC SMALL LETTER SHEI
ENCODING 995
SWIDTH 562 0
DWIDTH 9 0
BBX 7 10 1 -3
BITMAP
44
82
92
92
92
92
6E
02
04
18
ENDCHAR
STARTCHAR COPTIC CAPITAL LETTER FEI
ENCODING 996
SWIDTH 562 0
DWIDTH 9 0
BBX 7 13 1 -3
BITMAP
22
42
42
82
82
82
82
82
46
3A
02
02
02
ENDCHAR
STARTCHAR COPTIC SMALL LETTER FEI
ENCODING 997
SWIDTH 437 0
DWIDTH 7 0
BBX 5 10 1 -3
BITMAP
48
88
88
88
88
98
68
08
08
08
ENDCHAR
STARTCHAR COPTIC CAPITAL LETTER KHEI
ENCODING 998
SWIDTH 562 0
DWIDTH 9 0
BBX 7 13 1 -3
BITMAP
80
80
80
F8
84
82
82
82
82
84
04
18
E0
ENDCHAR
STARTCHAR COPTIC SMALL LETTER KHEI
ENCODING 999
SWIDTH 437 0
DWIDTH 7 0
BBX 6 7 0 0
BITMAP
34
48
34
04
04
04
78
ENDCHAR
STARTCHAR COPTIC CAPITAL LETTER HORI
ENCODING 1000
SWIDTH 562 0
DWIDTH 9 0
BBX 7 12 1 -2
BITMAP
78
84
02
02
02
02
04
18
60
80
42
3C
ENDCHAR
STARTCHAR COPTIC SMALL LETTER HORI
ENCODING 1001
SWIDTH 437 0
DWIDTH 7 0
BBX 5 9 1 -2
BITMAP
70
88
08
08
10
60
80
48
30
ENDCHAR
STARTCHAR COPTIC CAPITAL LETTER GANGIA
ENCODING 1002
SWIDTH 562 0
DWIDTH 9 0
BBX 7 10 1 0
BITMAP
82
44
28
28
10
10
28
28
44
FE
ENDCHAR
STARTCHAR COPTIC SMALL LETTER GANGIA
ENCODING 1003
SWIDTH 437 0
DWIDTH 7 0
BBX 5 7 1 0
BITMAP
88
50
50
20
50
50
F8
ENDCHAR
STARTCHAR COPTIC CAPITAL LETTER SHIMA
ENCODING 1004
SWIDTH 562 0
DWIDTH 9 0
BBX 7 10 1 0
BITMAP
7E
80
FC
82
82
82
82
82
82
7C
ENDCHAR
STARTCHAR COPTIC SMALL LETTER SHIMA
ENCODING 1005
SWIDTH 437 0
DWIDTH 7 0
BBX 5 11 1 0
BITMAP
08
70
80
80
F0
88
88
88
88
88
70
ENDCHAR
STARTCHAR COPTIC CAPITAL LETTER DEI
ENCODING 1006
SWIDTH 562 0
DWIDTH 9 0
BBX 7 10 1 0
BITMAP
10
FE
92
10
10
10
10
10
10
10
ENDCHAR
STARTCHAR COPTIC SMALL LETTER DEI
ENCODING 1007
SWIDTH 437 0
DWIDTH 7 0
BBX 6 13 0 -3
BITMAP
10
10
10
7C
54
54
10
10
10
10
10
10
10
ENDCHAR
STARTCHAR GREEK KAPPA SYMBOL
ENCODING 1008
SWIDTH 562 0
DWIDTH 9 0
BBX 7 7 1 0
BITMAP
C6
2A
2C
38
68
A8
C6
ENDCHAR
STARTCHAR GREEK RHO SYMBOL
ENCODING 1009
SWIDTH 437 0
DWIDTH 7 0
BBX 5 10 1 -3
BITMAP
70
88
88
88
88
88
F0
80
80
78
ENDCHAR
STARTCHAR GREEK LUNATE SIGMA SYMBOL
ENCODING 1010
SWIDTH 437 0
DWIDTH 7 0
BBX 5 7 1 0
BITMAP
70
88
80
80
80
88
70
ENDCHAR
STARTCHAR GREEK LETTER YOT
ENCODING 1011
SWIDTH 312 0
DWIDTH 5 0
BBX 4 13 0 -3
BITMAP
10
10
00
70
10
10
10
10
10
10
10
10
E0
ENDCHAR
STARTCHAR GREEK CAPITAL THETA SYMBOL
ENCODING 1012
SWIDTH 562 0
DWIDTH 9 0
BBX 7 10 1 0
BITMAP
38
44
82
82
FE
82
82
82
44
38
ENDCHAR
STARTCHAR GREEK LUNATE EPSILON SYMBOL
ENCODING 1013
SWIDTH 437 0
DWIDTH 7 0
BBX 5 7 1 0
BITMAP
78
80
80
F0
80
80
78
ENDCHAR
STARTCHAR GREEK REVERSED LUNATE EPSILON SYMBOL
ENCODING 1014
SWIDTH 437 0
DWIDTH 7 0
BBX 5 7 1 0
BITMAP
F0
08
08
78
08
08
F0
ENDCHAR
STARTCHAR GREEK CAPITAL LETTER SHO
ENCODING 1015
SWIDTH 500 0
DWIDTH 8 0
BBX 6 10 1 0
BITMAP
80
80
F8
84
84
84
F8
80
80
80
ENDCHAR
STARTCHAR GREEK SMALL LETTER SHO
ENCODING 1016
SWIDTH 437 0
DWIDTH 7 0
BBX 5 13 1 -3
BITMAP
80
80
80
F0
88
88
88
88
88
F0
80
80
80
ENDCHAR
STARTCHAR GREEK CAPITAL LUNATE SIGMA SYMBOL
ENCODING 1017
SWIDTH 500 0
DWIDTH 8 0
BBX 6 10 1 0
BITMAP
38
44
80
80
80
80
80
80
44
38
ENDCHAR
STARTCHAR GREEK CAPITAL LETTER SAN
ENCODING 1018
SWIDTH 687 0
DWIDTH 11 0
BBX 9 10 1 0
BITMAP
8080
C180
A280
9480
8880
8080
8080
8080
8080
8080
ENDCHAR
STARTCHAR GREEK SMALL LETTER SAN
ENCODING 1019
SWIDTH 562 0
DWIDTH 9 0
BBX 7 10 1 -3
BITMAP
82
C6
AA
92
82
82
82
80
80
80
ENDCHAR
STARTCHAR GREEK RHO WITH STROKE SYMBOL
ENCODING 1020
SWIDTH 437 0
DWIDTH 7 0
BBX 6 10 0 -3
BITMAP
38
44
44
44
44
44
78
40
FC
40
ENDCHAR
STARTCHAR GREEK CAPITAL REVERSED LUNATE SIGMA SYMBOL
ENCODING 1021
SWIDTH 500 0
DWIDTH 8 0
BBX 6 10 1 0
BITMAP
70
88
04
04
04
04
04
04
88
70
ENDCHAR
STARTCHAR GREEK CAPITAL DOTTED LUNATE SIGMA SYMBOL
ENCODING 1022
SWIDTH 500 0
DWIDTH 8 0
BBX 6 10 1 0
BITMAP
38
44
80
80
90
90
80
80
44
38
ENDCHAR
STARTCHAR GREEK CAPITAL REVERSED DOTTED LUNATE SIGMA SYMBOL
ENCODING 1023
SWIDTH 500 0
DWIDTH 8 0
BBX 6 10 1 0
BITMAP
70
88
04
04
24
24
04
04
88
70
ENDCHAR
STARTCHAR CYRILLIC CAPITAL LETTER IE WITH GRAVE
ENCODING 1024
SWIDTH 500 0
DWIDTH 8 0
BBX 6 13 1 0
BITMAP
10
20
00
FC
80
80
80
F0
80
80
80
80
FC
ENDCHAR
STARTCHAR CYRILLIC CAPITAL LETTER IO
ENCODING 1025
SWIDTH 500 0
DWIDTH 8 0
BBX 6 13 1 0
BITMAP
48
48
00
FC
80
80
80
F0
80
80
80
80
FC
ENDCHAR
STARTCHAR CYRILLIC CAPITAL LETTER DJE
ENCODING 1026
SWIDTH 625 0
DWIDTH 10 0
BBX 9 13 0 -3
BITMAP
FE00
1000
1000
1000
1F00
1080
1080
1080
1080
1080
0080
0080
0300
ENDCHAR
STARTCHAR CYRILLIC CAPITAL LETTER GJE
ENCODING 1027
SWIDTH 437 0
DWIDTH 7 0
BBX 6 13 1 0
BITMAP
10
20
00
FC
80
80
80
80
80
80
80
80
80
ENDCHAR
STARTCHAR CYRILLIC CAPITAL LETTER UKRAINIAN IE
ENCODING 1028
SWIDTH 500 0
DWIDTH 8 0
BBX 6 10 1 0
BITMAP
38
44
80
80
F0
80
80
80
44
38
ENDCHAR
STARTCHAR CYRILLIC CAPITAL LETTER DZE
ENCODING 1029
SWIDTH 500 0
DWIDTH 8 0
BBX 6 10 1 0
BITMAP
78
84
80
80
78
04
04
04
84
78
ENDCHAR
STARTCHAR CYRILLIC CAPITAL LETTER BYELORUSSIAN-UKRAINIAN I
ENCODING 1030
SWIDTH 312 0
DWIDTH 5 0
BBX 3 10 1 0
BITMAP
E0
40
40
40
40
40
40
40
40
E0
ENDCHAR
STARTCHAR CYRILLIC CAPITAL LETTER YI
ENCODING 1031
SWIDTH 312 0
DWIDTH 5 0
BBX 4 13 1 0
BITMAP
90
90
00
E0
40
40
40
40
40
40
40
40
E0
ENDCHAR
STARTCHAR CYRILLIC CAPITAL LETTER JE
ENCODING 1032
SWIDTH 437 0
DWIDTH 7 0
BBX 5 10 1 0
BITMAP
38
08
08
08
08
08
08
08
88
70
ENDCHAR
STARTCHAR CYRILLIC CAPITAL LETTER LJE
ENCODING 1033
SWIDTH 875 0
DWIDTH 14 0
BBX 13 10 0 0
BITMAP
1F00
1100
1100
1100
11F0
1108
1108
2108
2108
C1F0
ENDCHAR
STARTCHAR CYRILLIC CAPITAL LETTER NJE
ENCODING 1034
SWIDTH 875 0
DWIDTH 14 0
BBX 12 10 1 0
BITMAP
8200
8200
8200
8200
FFE0
8210
8210
8210
8210
83E0
ENDCHAR
STARTCHAR CYRILLIC CAPITAL LETTER TSHE
ENCODING 1035
SWIDTH 625 0
DWIDTH 10 0
BBX 9 10 0 0
BITMAP
FE00
1000
1000
1000
1F00
1080
1080
1080
1080
1080
ENDCHAR
STARTCHAR CYRILLIC CAPITAL LETTER KJE
ENCODING 1036
SWIDTH 500 0
DWIDTH 8 0
BBX 6 13 1 0
BITMAP
08
10
00
84
88
88
90
E0
90
90
88
88
84
ENDCHAR
STARTCHAR CYRILLIC CAPITAL LETTER I WITH GRAVE
ENCODING 1037
SWIDTH 500 0
DWIDTH 8 0
BBX 7 13 1 0
BITMAP
20
10
00
86
86
8A
8A
92
92
A2
A2
C2
C2
ENDCHAR
STARTCHAR CYRILLIC CAPITAL LETTER SHORT U
ENCODING 1038
SWIDTH 562 0
DWIDTH 9 0
BBX 7 13 1 0
BITMAP
24
18
00
82
82
44
44
44
28
28
10
10
E0
ENDCHAR
STARTCHAR CYRILLIC CAPITAL LETTER DZHE
ENCODING 1039
SWIDTH 562 0
DWIDTH 9 0
BBX 7 12 1 -2
BITMAP
82
82
82
82
82
82
82
82
82
FE
10
10
ENDCHAR
STARTCHAR CYRILLIC CAPITAL LETTER A
ENCODING 1040
SWIDTH 562 0
DWIDTH 9 0
BBX 7 10 1 0
BITMAP
10
10
28
28
28
44
44
7C
82
82
ENDCHAR
STARTCHAR CYRILLIC CAPITAL LETTER BE
ENCODING 1041
SWIDTH 500 0
DWIDTH 8 0
BBX 6 10 1 0
BITMAP
F8
80
80
80
F8
84
84
84
84
F8
ENDCHAR
STARTCHAR CYRILLIC CAPITAL LETTER VE
ENCODING 1042
SWIDTH 500 0
DWIDTH 8 0
BBX 6 10 1 0
BITMAP
F8
84
84
84
F8
84
84
84
84
F8
ENDCHAR
STARTCHAR CYRILLIC CAPITAL LETTER GHE
ENCODING 1043
SWIDTH 437 0
DWIDTH 7 0
BBX 6 10 1 0
BITMAP
FC
80
80
80
80
80
80
80
80
80
ENDCHAR
STARTCHAR CYRILLIC CAPITAL LETTER DE
ENCODING 1044
SWIDTH 625 0
DWIDTH 10 0
BBX 8 12 1 -2
BITMAP
3E
22
22
22
22
22
22
42
42
FF
81
81
ENDCHAR
STARTCHAR CYRILLIC CAPITAL LETTER IE
ENCODING 1045
SWIDTH 500 0
DWIDTH 8 0
BBX 6 10 1 0
BITMAP
FC
80
80
80
F0
80
80
80
80
FC
ENDCHAR
STARTCHAR CYRILLIC CAPITAL LETTER ZHE
ENCODING 1046
SWIDTH 812 0
DWIDTH 13 0
BBX 11 10 1 0
BITMAP
8420
4440
4440
2480
1F00
2480
2480
4440
4440
8420
ENDCHAR
STARTCHAR CYRILLIC CAPITAL LETTER ZE
ENCODING 1047
SWIDTH 500 0
DWIDTH 8 0
BBX 6 10 1 0
BITMAP
78
84
04
04
38
04
04
04
84
78
ENDCHAR
STARTCHAR CYRILLIC CAPITAL LETTER I
ENCODING 1048
SWIDTH 562 0
DWIDTH 9 0
BBX 7 10 1 0
BITMAP
86
86
8A
8A
92
92
A2
A2
C2
C2
ENDCHAR
STARTCHAR CYRILLIC CAPITAL LETTER SHORT I
ENCODING 1049
SWIDTH 562 0
DWIDTH 9 0
BBX 7 13 1 0
BITMAP
24
18
00
86
86
8A
8A
92
92
A2
A2
C2
C2
ENDCHAR
STARTCHAR CYRILLIC CAPITAL LETTER KA
ENCODING 1050
SWIDTH 500 0
DWIDTH 8 0
BBX 6 10 1 0
BITMAP
84
88
88
90
E0
90
90
88
88
84
ENDCHAR
STARTCHAR CYRILLIC CAPITAL LETTER EL
ENCODING 1051
SWIDTH 562 0
DWIDTH 9 0
BBX 8 10 0 0
BITMAP
1F
11
11
11
11
11
11
21
21
C1
ENDCHAR
STARTCHAR CYRILLIC CAPITAL LETTER EM
ENCODING 1052
SWIDTH 687 0
DWIDTH 11 0
BBX 9 10 1 0
BITMAP
8080
C180
C180
A280
A280
9480
9480
8880
8880
8080
ENDCHAR
STARTCHAR CYRILLIC CAPITAL LETTER EN
ENCODING 1053
SWIDTH 562 0
DWIDTH 9 0
BBX 7 10 1 0
BITMAP
82
82
82
82
FE
82
82
82
82
82
ENDCHAR
STARTCHAR CYRILLIC CAPITAL LETTER O
ENCODING 1054
SWIDTH 562 0
DWIDTH 9 0
BBX 7 10 1 0
BITMAP
38
44
82
82
82
82
82
82
44
38
ENDCHAR
STARTCHAR CYRILLIC CAPITAL LETTER PE
ENCODING 1055
SWIDTH 562 0
DWIDTH 9 0
BBX 7 10 1 0
BITMAP
FE
82
82
82
82
82
82
82
82
82
ENDCHAR
STARTCHAR CYRILLIC CAPITAL LETTER ER
ENCODING 1056
SWIDTH 500 0
DWIDTH 8 0
BBX 6 10 1 0
BITMAP
F8
84
84
84
84
F8
80
80
80
80
ENDCHAR
STARTCHAR CYRILLIC CAPITAL LETTER ES
ENCODING 1057
SWIDTH 500 0
DWIDTH 8 0
BBX 6 10 1 0
BITMAP
38
44
80
80
80
80
80
80
44
38
ENDCHAR
STARTCHAR CYRILLIC CAPITAL LETTER TE
ENCODING 1058
SWIDTH 500 0
DWIDTH 8 0
BBX 7 10 1 0
BITMAP
FE
10
10
10
10
10
10
10
10
10
ENDCHAR
STARTCHAR CYRILLIC CAPITAL LETTER U
ENCODING 1059
SWIDTH 562 0
DWIDTH 9 0
BBX 7 10 1 0
BITMAP
82
82
44
44
44
28
28
10
10
E0
ENDCHAR
STARTCHAR CYRILLIC CAPITAL LETTER EF
ENCODING 1060
SWIDTH 687 0
DWIDTH 11 0
BBX 9 10 1 0
BITMAP
0800
3E00
4900
8880
8880
8880
4900
3E00
0800
0800
ENDCHAR
STARTCHAR CYRILLIC CAPITAL LETTER HA
ENCODING 1061
SWIDTH 562 0
DWIDTH 9 0
BBX 7 10 1 0
BITMAP
82
44
44
28
10
10
28
44
44
82
ENDCHAR
STARTCHAR CYRILLIC CAPITAL LETTER TSE
ENCODING 1062
SWIDTH 625 0
DWIDTH 10 0
BBX 8 12 1 -2
BITMAP
82
82
82
82
82
82
82
82
82
FF
01
01
ENDCHAR
STARTCHAR CYRILLIC CAPITAL LETTER CHE
ENCODING 1063
SWIDTH 500 0
DWIDTH 8 0
BBX 6 10 1 0
BITMAP
84
84
84
84
84
7C
04
04
04
04
ENDCHAR
STARTCHAR CYRILLIC CAPITAL LETTER SHA
ENCODING 1064
SWIDTH 812 0
DWIDTH 13 0
BBX 11 10 1 0
BITMAP
8420
8420
8420
8420
8420
8420
8420
8420
8420
FFE0
ENDCHAR
STARTCHAR CYRILLIC CAPITAL LETTER SHCHA
ENCODING 1065
SWIDTH 875 0
DWIDTH 14 0
BBX 12 12 1 -2
BITMAP
8420
8420
8420
8420
8420
8420
8420
8420
8420
FFF0
0010
0010
ENDCHAR
STARTCHAR CYRILLIC CAPITAL LETTER HARD SIGN
ENCODING 1066
SWIDTH 625 0
DWIDTH 10 0
BBX 9 10 0 0
BITMAP
F000
1000
1000
1000
1F00
1080
1080
1080
1080
1F00
ENDCHAR
STARTCHAR CYRILLIC CAPITAL LETTER YERU
ENCODING 1067
SWIDTH 687 0
DWIDTH 11 0
BBX 9 10 1 0
BITMAP
8080
8080
8080
8080
F880
8480
8480
8480
8480
F880
ENDCHAR
STARTCHAR CYRILLIC CAPITAL LETTER SOFT SIGN
ENCODING 1068
SWIDTH 500 0
DWIDTH 8 0
BBX 6 10 1 0
BITMAP
80
80
80
80
F8
84
84
84
84
F8
ENDCHAR
STARTCHAR CYRILLIC CAPITAL LETTER E
ENCODING 1069
SWIDTH 500 0
DWIDTH 8 0
BBX 6 10 1 0
BITMAP
70
88
04
04
3C
04
04
04
88
70
ENDCHAR
STARTCHAR CYRILLIC CAPITAL LETTER YU
ENCODING 1070
SWIDTH 750 0
DWIDTH 12 0
BBX 10 10 1 0
BITMAP
8700
8880
9040
9040
F040
9040
9040
9040
8880
8700
ENDCHAR
STARTCHAR CYRILLIC CAPITAL LETTER YA
ENCODING 1071
SWIDTH 500 0
DWIDTH 8 0
BBX 6 10 1 0
BITMAP
7C
84
84
84
84
7C
14
24
44
84
ENDCHAR
STARTCHAR CYRILLIC SMALL LETTER A
ENCODING 1072
SWIDTH 437 0
DWIDTH 7 0
BBX 5 7 1 0
BITMAP
70
08
78
88
88
88
78
ENDCHAR
STARTCHAR CYRILLIC SMALL LETTER BE
ENCODING 1073
SWIDTH 437 0
DWIDTH 7 0
BBX 5 11 1 0
BITMAP
08
70
80
80
F0
88
88
88
88
88
70
ENDCHAR
STARTCHAR CYRILLIC SMALL LETTER VE
ENCODING 1074
SWIDTH 437 0
DWIDTH 7 0
BBX 5 7 1 0
BITMAP
F0
88
F0
88
88
88
F0
ENDCHAR
STARTCHAR CYRILLIC SMALL LETTER GHE
ENCODING 1075
SWIDTH 375 0
DWIDTH 6 0
BBX 4 7 1 0
BITMAP
F0
80
80
80
80
80
80
ENDCHAR
STARTCHAR CYRILLIC SMALL LETTER DE
ENCODING 1076
SWIDTH 500 0
DWIDTH 8 0
BBX 6 9 1 -2
BITMAP
78
48
48
48
48
48
FC
84
84
ENDCHAR
STARTCHAR CYRILLIC SMALL LETTER IE
ENCODING 1077
SWIDTH 437 0
DWIDTH 7 0
BBX 5 7 1 0
BITMAP
70
88
F8
80
80
88
70
ENDCHAR
STARTCHAR CYRILLIC SMALL LETTER ZHE
ENCODING 1078
SWIDTH 687 0
DWIDTH 11 0
BBX 9 7 1 0
BITMAP
8880
4900
2A00
1C00
2A00
4900
8880
ENDCHAR
STARTCHAR CYRILLIC SMALL LETTER ZE
ENCODING 1079
SWIDTH 437 0
DWIDTH 7 0
BBX 5 7 1 0
BITMAP
70
88
08
30
08
88
70
ENDCHAR
STARTCHAR CYRILLIC SMALL LETTER I
ENCODING 1080
SWIDTH 437 0
DWIDTH 7 0
BBX 5 7 1 0
BITMAP
88
88
88
98
A8
C8
88
ENDCHAR
STARTCHAR CYRILLIC SMALL LETTER SHORT I
ENCODING 1081
SWIDTH 437 0
DWIDTH 7 0
BBX 5 10 1 0
BITMAP
48
30
00
88
88
88
98
A8
C8
88
ENDCHAR
STARTCHAR CYRILLIC SMALL LETTER KA
ENCODING 1082
SWIDTH 437 0
DWIDTH 7 0
BBX 5 7 1 0
BITMAP
88
90
A0
C0
A0
90
88
ENDCHAR
STARTCHAR CYRILLIC SMALL LETTER EL
ENCODING 1083
SWIDTH 437 0
DWIDTH 7 0
BBX 6 7 0 0
BITMAP
3C
24
24
24
24
24
C4
ENDCHAR
STARTCHAR CYRILLIC SMALL LETTER EM
ENCODING 1084
SWIDTH 562 0
DWIDTH 9 0
BBX 7 7 1 0
BITMAP
82
C6
C6
AA
AA
92
92
ENDCHAR
STARTCHAR CYRILLIC SMALL LETTER EN
ENCODING 1085
SWIDTH 437 0
DWIDTH 7 0
BBX 5 7 1 0
BITMAP
88
88
88
F8
88
88
88
ENDCHAR
STARTCHAR CYRILLIC SMALL LETTER O
ENCODING 1086
SWIDTH 437 0
DWIDTH 7 0
BBX 5 7 1 0
BITMAP
70
88
88
88
88
88
70
ENDCHAR
STARTCHAR CYRILLIC SMALL LETTER PE
ENCODING 1087
SWIDTH 437 0
DWIDTH 7 0
BBX 5 7 1 0
BITMAP
F8
88
88
88
88
88
88
ENDCHAR
STARTCHAR CYRILLIC SMALL LETTER ER
ENCODING 1088
SWIDTH 437 0
DWIDTH 7 0
BBX 5 10 1 -3
BITMAP
F0
88
88
88
88
88
F0
80
80
80
ENDCHAR
STARTCHAR CYRILLIC SMALL LETTER ES
ENCODING 1089
SWIDTH 437 0
DWIDTH 7 0
BBX 5 7 1 0
BITMAP
70
88
80
80
80
88
70
ENDCHAR
STARTCHAR CYRILLIC SMALL LETTER TE
ENCODING 1090
SWIDTH 437 0
DWIDTH 7 0
BBX 5 7 1 0
BITMAP
F8
20
20
20
20
20
20
ENDCHAR
STARTCHAR CYRILLIC SMALL LETTER U
ENCODING 1091
SWIDTH 437 0
DWIDTH 7 0
BBX 5 10 1 -3
BITMAP
88
88
88
50
50
50
20
20
20
C0
ENDCHAR
STARTCHAR CYRILLIC SMALL LETTER EF
ENCODING 1092
SWIDTH 562 0
DWIDTH 9 0
BBX 7 13 1 -3
BITMAP
10
10
10
7C
92
92
92
92
92
7C
10
10
10
ENDCHAR
STARTCHAR CYRILLIC SMALL LETTER HA
ENCODING 1093
SWIDTH 437 0
DWIDTH 7 0
BBX 5 7 1 0
BITMAP
88
88
50
20
50
88
88
ENDCHAR
STARTCHAR CYRILLIC SMALL LETTER TSE
ENCODING 1094
SWIDTH 500 0
DWIDTH 8 0
BBX 6 9 1 -2
BITMAP
88
88
88
88
88
88
FC
04
04
ENDCHAR
STARTCHAR CYRILLIC SMALL LETTER CHE
ENCODING 1095
SWIDTH 437 0
DWIDTH 7 0
BBX 5 7 1 0
BITMAP
88
88
88
88
78
08
08
ENDCHAR
STARTCHAR CYRILLIC SMALL LETTER SHA
ENCODING 1096
SWIDTH 687 0
DWIDTH 11 0
BBX 9 7 1 0
BITMAP
8880
8880
8880
8880
8880
8880
FF80
ENDCHAR
STARTCHAR CYRILLIC SMALL LETTER SHCHA
ENCODING 1097
SWIDTH 750 0
DWIDTH 12 0
BBX 10 9 1 -2
BITMAP
8880
8880
8880
8880
8880
8880
FFC0
0040
0040
ENDCHAR
STARTCHAR CYRILLIC SMALL LETTER HARD SIGN
ENCODING 1098
SWIDTH 500 0
DWIDTH 8 0
BBX 7 7 0 0
BITMAP
E0
20
3C
22
22
22
3C
ENDCHAR
STARTCHAR CYRILLIC SMALL LETTER YERU
ENCODING 1099
SWIDTH 625 0
DWIDTH 10 0
BBX 8 7 1 0
BITMAP
81
81
F1
89
89
89
F1
ENDCHAR
STARTCHAR CYRILLIC SMALL LETTER SOFT SIGN
ENCODING 1100
SWIDTH 437 0
DWIDTH 7 0
BBX 5 7 1 0
BITMAP
80
80
F0
88
88
88
F0
ENDCHAR
STARTCHAR CYRILLIC SMALL LETTER E
ENCODING 1101
SWIDTH 437 0
DWIDTH 7 0
BBX 5 7 1 0
BITMAP
70
88
08
38
08
88
70
ENDCHAR
STARTCHAR CYRILLIC SMALL LETTER YU
ENCODING 1102
SWIDTH 625 0
DWIDTH 10 0
BBX 8 7 1 0
BITMAP
8E
91
91
F1
91
91
8E
ENDCHAR
STARTCHAR CYRILLIC SMALL LETTER YA
ENCODING 1103
SWIDTH 437 0
DWIDTH 7 0
BBX 5 7 1 0
BITMAP
78
88
88
88
78
48
88
ENDCHAR
STARTCHAR CYRILLIC SMALL LETTER IE WITH GRAVE
ENCODING 1104
SWIDTH 437 0
DWIDTH 7 0
BBX 5 10 1 0
BITMAP
10
20
00
70
88
F8
80
80
88
70
ENDCHAR
STARTCHAR CYRILLIC SMALL LETTER IO
ENCODING 1105
SWIDTH 437 0
DWIDTH 7 0
BBX 5 10 1 0
BITMAP
48
48
00
70
88
F8
80
80
88
70
ENDCHAR
STARTCHAR CYRILLIC SMALL LETTER DJE
ENCODING 1106
SWIDTH 500 0
DWIDTH 8 0
BBX 6 13 1 -3
BITMAP
40
40
F0
40
78
44
44
44
44
44
04
08
10
ENDCHAR
STARTCHAR CYRILLIC SMALL LETTER GJE
ENCODING 1107
SWIDTH 375 0
DWIDTH 6 0
BBX 4 10 1 0
BITMAP
20
40
00
F0
80
80
80
80
80
80
ENDCHAR
STARTCHAR CYRILLIC SMALL LETTER UKRAINIAN IE
ENCODING 1108
SWIDTH 437 0
DWIDTH 7 0
BBX 5 7 1 0
BITMAP
70
88
80
E0
80
88
70
ENDCHAR
STARTCHAR CYRILLIC SMALL LETTER DZE
ENCODING 1109
SWIDTH 437 0
DWIDTH 7 0
BBX 5 7 1 0
BITMAP
78
80
80
70
08
08
F0
ENDCHAR
STARTCHAR CYRILLIC SMALL LETTER BYELORUSSIAN-UKRAINIAN I
ENCODING 1110
SWIDTH 250 0
DWIDTH 4 0
BBX 2 10 1 0
BITMAP
40
40
00
C0
40
40
40
40
40
40
ENDCHAR
STARTCHAR CYRILLIC SMALL LETTER YI
ENCODING 1111
SWIDTH 312 0
DWIDTH 5 0
BBX 4 10 0 0
BITMAP
90
90
00
60
20
20
20
20
20
20
ENDCHAR
STARTCHAR CYRILLIC SMALL LETTER JE
ENCODING 1112
SWIDTH 312 0
DWIDTH 5 0
BBX 4 13 0 -3
BITMAP
10
10
00
30
10
10
10
10
10
10
10
10
E0
ENDCHAR
STARTCHAR CYRILLIC SMALL LETTER LJE
ENCODING 1113
SWIDTH 687 0
DWIDTH 11 0
BBX 10 7 0 0
BITMAP
3C00
2400
2780
2440
2440
2440
C780
ENDCHAR
STARTCHAR CYRILLIC SMALL LETTER NJE
ENCODING 1114
SWIDTH 687 0
DWIDTH 11 0
BBX 9 7 1 0
BITMAP
8800
8800
FF00
8880
8880
8880
8F00
ENDCHAR
STARTCHAR CYRILLIC SMALL LETTER TSHE
ENCODING 1115
SWIDTH 500 0
DWIDTH 8 0
BBX 6 10 1 0
BITMAP
40
40
F0
40
78
44
44
44
44
44
ENDCHAR
STARTCHAR CYRILLIC SMALL LETTER KJE
ENCODING 1116
SWIDTH 437 0
DWIDTH 7 0
BBX 5 10 1 0
BITMAP
10
20
00
88
90
A0
C0
A0
90
88
ENDCHAR
STARTCHAR CYRILLIC SMALL LETTER I WITH GRAVE
ENCODING 1117
SWIDTH 437 0
DWIDTH 7 0
BBX 5 10 1 0
BITMAP
40
20
00
88
88
88
98
A8
C8
88
ENDCHAR
STARTCHAR CYRILLIC SMALL LETTER SHORT U
ENCODING 1118
SWIDTH 437 0
DWIDTH 7 0
BBX 5 13 1 -3
BITMAP
48
30
00
88
88
88
50
50
50
20
20
20
C0
ENDCHAR
STARTCHAR CYRILLIC SMALL LETTER DZHE
ENCODING 1119
SWIDTH 437 0
DWIDTH 7 0
BBX 5 9 1 -2
BITMAP
88
88
88
88
88
88
F8
20
20
ENDCHAR
STARTCHAR EN QUAD
ENCODING 8192
SWIDTH 312 0
DWIDTH 5 0
BBX 0 0 0 0
BITMAP
ENDCHAR
STARTCHAR EM QUAD
ENCODING 8193
SWIDTH 625 0
DWIDTH 10 0
BBX 0 0 0 0
BITMAP
ENDCHAR
STARTCHAR EN SPACE
ENCODING 8194
SWIDTH 312 0
DWIDTH 5 0
BBX 0 0 0 0
BITMAP
ENDCHAR
STARTCHAR EM SPACE
ENCODING 8195
SWIDTH 625 0
DWIDTH 10 0
BBX 0 0 0 0
BITMAP
ENDCHAR
STARTCHAR THREE-PER-EM SPACE
ENCODING 8196
SWIDTH 250 0
DWIDTH 4 0
BBX 0 0 0 0
BITMAP
ENDCHAR
STARTCHAR FOUR-PER-EM SPACE
ENCODING 8197
SWIDTH 187 0
DWIDTH 3 0
BBX 0 0 0 0
BITMAP
ENDCHAR
STARTCHAR SIX-PER-EM SPACE
ENCODING 8198
SWIDTH 125 0
DWIDTH 2 0
BBX 0 0 0 0
BITMAP
ENDCHAR
STARTCHAR FIGURE SPACE
ENCODING 8199
SWIDTH 500 0
DWIDTH 8 0
BBX 0 0 0 0
BITMAP
ENDCHAR
STARTCHAR PUNCTUATION SPACE
ENCODING 8200
SWIDTH 250 0
DWIDTH 4 0
BBX 0 0 0 0
BITMAP
ENDCHAR
STARTCHAR THIN SPACE
ENCODING 8201
SWIDTH 125 0
DWIDTH 2 0
BBX 0 0 0 0
BITMAP
ENDCHAR
STARTCHAR HAIR SPACE
ENCODING 8202
SWIDTH 62 0
DWIDTH 1 0
BBX 0 0 0 0
BITMAP
ENDCHAR
STARTCHAR HYPHEN
ENCODING 8208
SWIDTH 312 0
DWIDTH 5 0
BBX 3 1 1 3
BITMAP
E0
ENDCHAR
STARTCHAR NON-BREAKING HYPHEN
ENCODING 8209
SWIDTH 312 0
DWIDTH 5 0
BBX 3 1 1 3
BITMAP
E0
ENDCHAR
STARTCHAR FIGURE DASH
ENCODING 8210
SWIDTH 500 0
DWIDTH 8 0
BBX 8 1 0 4
BITMAP
FF
ENDCHAR
STARTCHAR EN DASH
ENCODING 8211
SWIDTH 312 0
DWIDTH 5 0
BBX 5 1 0 3
BITMAP
F8
ENDCHAR
STARTCHAR EM DASH
ENCODING 8212
SWIDTH 625 0
DWIDTH 10 0
BBX 10 1 0 3
BITMAP
FFC0
ENDCHAR
STARTCHAR HORIZONTAL BAR
ENCODING 8213
SWIDTH 625 0
DWIDTH 10 0
BBX 10 1 0 3
BITMAP
FFC0
ENDCHAR
STARTCHAR DOUBLE VERTICAL LINE
ENCODING 8214
SWIDTH 375 0
DWIDTH 6 0
BBX 4 13 1 -2
BITMAP
90
90
90
90
90
90
90
90
90
90
90
90
90
ENDCHAR
STARTCHAR DOUBLE LOW LINE
ENCODING 8215
SWIDTH 500 0
DWIDTH 8 0
BBX 8 3 0 -3
BITMAP
FF
00
FF
ENDCHAR
STARTCHAR LEFT SINGLE QUOTATION MARK
ENCODING 8216
SWIDTH 250 0
DWIDTH 4 0
BBX 3 4 1 8
BITMAP
20
40
80
80
ENDCHAR
STARTCHAR RIGHT SINGLE QUOTATION MARK
ENCODING 8217
SWIDTH 250 0
DWIDTH 4 0
BBX 3 4 0 6
BITMAP
20
20
40
80
ENDCHAR
STARTCHAR SINGLE LOW-9 QUOTATION MARK
ENCODING 8218
SWIDTH 250 0
DWIDTH 4 0
BBX 3 4 0 -2
BITMAP
20
20
40
80
ENDCHAR
STARTCHAR SINGLE HIGH-REVERSED-9 QUOTATION MARK
ENCODING 8219
SWIDTH 250 0
DWIDTH 4 0
BBX 3 4 1 6
BITMAP
80
80
40
20
ENDCHAR
STARTCHAR LEFT DOUBLE QUOTATION MARK
ENCODING 8220
SWIDTH 437 0
DWIDTH 7 0
BBX 6 4 1 8
BITMAP
24
48
90
90
ENDCHAR
STARTCHAR RIGHT DOUBLE QUOTATION MARK
ENCODING 8221
SWIDTH 437 0
DWIDTH 7 0
BBX 6 4 0 6
BITMAP
24
24
48
90
ENDCHAR
STARTCHAR DOUBLE LOW-9 QUOTATION MARK
ENCODING 8222
SWIDTH 437 0
DWIDTH 7 0
BBX 6 4 0 -2
BITMAP
24
24
48
90
ENDCHAR
STARTCHAR DOUBLE HIGH-REVERSED-9 QUOTATION MARK
ENCODING 8223
SWIDTH 437 0
DWIDTH 7 0
BBX 6 4 1 6
BITMAP
90
90
48
24
ENDCHAR
STARTCHAR DAGGER
ENCODING 8224
SWIDTH 562 0
DWIDTH 9 0
BBX 7 13 1 -3
BITMAP
10
10
10
FE
10
10
10
10
10
10
10
10
10
ENDCHAR
STARTCHAR DOUBLE DAGGER
ENCODING 8225
SWIDTH 562 0
DWIDTH 9 0
BBX 7 13 1 -3
BITMAP
10
10
10
FE
10
10
10
10
10
FE
10
10
10
ENDCHAR
STARTCHAR BULLET
ENCODING 8226
SWIDTH 500 0
DWIDTH 8 0
BBX 4 4 2 3
BITMAP
60
F0
F0
60
ENDCHAR
STARTCHAR TRIANGULAR BULLET
ENCODING 8227
SWIDTH 500 0
DWIDTH 8 0
BBX 5 5 2 2
BITMAP
80
E0
F8
E0
80
ENDCHAR
STARTCHAR ONE DOT LEADER
ENCODING 8228
SWIDTH 250 0
DWIDTH 4 0
BBX 2 2 1 0
BITMAP
C0
C0
ENDCHAR
STARTCHAR TWO DOT LEADER
ENCODING 8229
SWIDTH 500 0
DWIDTH 8 0
BBX 6 2 1 0
BITMAP
CC
CC
ENDCHAR
STARTCHAR HORIZONTAL ELLIPSIS
ENCODING 8230
SWIDTH 750 0
DWIDTH 12 0
BBX 10 2 1 0
BITMAP
CCC0
CCC0
ENDCHAR
STARTCHAR HYPHENATION POINT
ENCODING 8231
SWIDTH 250 0
DWIDTH 4 0
BBX 2 2 1 3
BITMAP
C0
C0
ENDCHAR
STARTCHAR PER MILLE SIGN
ENCODING 8240
SWIDTH 937 0
DWIDTH 15 0
BBX 13 10 1 0
BITMAP
6000
9100
9200
6400
0800
1000
2630
4948
8948
0630
ENDCHAR
STARTCHAR PER TEN THOUSAND SIGN
ENCODING 8241
SWIDTH 1250 0
DWIDTH 20 0
BBX 18 10 1 0
BITMAP
600000
910000
920000
640000
080000
100000
263180
494A40
894A40
063180
ENDCHAR
STARTCHAR PRIME
ENCODING 8242
SWIDTH 187 0
DWIDTH 3 0
BBX 2 3 0 7
BITMAP
40
80
80
ENDCHAR
STARTCHAR DOUBLE PRIME
ENCODING 8243
SWIDTH 375 0
DWIDTH 6 0
BBX 5 3 0 7
BITMAP
48
90
90
ENDCHAR
STARTCHAR TRIPLE PRIME
ENCODING 8244
SWIDTH 562 0
DWIDTH 9 0
BBX 8 3 0 7
BITMAP
49
92
92
ENDCHAR
STARTCHAR REVERSED PRIME
ENCODING 8245
SWIDTH 187 0
DWIDTH 3 0
BBX 2 3 1 7
BITMAP
80
40
40
ENDCHAR
STARTCHAR REVERSED DOUBLE PRIME
ENCODING 8246
SWIDTH 375 0
DWIDTH 6 0
BBX 5 3 1 7
BITMAP
90
48
48
ENDCHAR
STARTCHAR REVERSED TRIPLE PRIME
ENCODING 8247
SWIDTH 562 0
DWIDTH 9 0
BBX 8 3 1 7
BITMAP
92
49
49
ENDCHAR
STARTCHAR CARET
ENCODING 8248
SWIDTH 312 0
DWIDTH 5 0
BBX 3 2 1 -2
BITMAP
40
A0
ENDCHAR
STARTCHAR SINGLE LEFT-POINTING ANGLE QUOTATION MARK
ENCODING 8249
SWIDTH 312 0
DWIDTH 5 0
BBX 3 5 1 1
BITMAP
20
40
80
40
20
ENDCHAR
STARTCHAR SINGLE RIGHT-POINTING ANGLE QUOTATION MARK
ENCODING 8250
SWIDTH 312 0
DWIDTH 5 0
BBX 3 5 1 1
BITMAP
80
40
20
40
80
ENDCHAR
STARTCHAR REFERENCE MARK
ENCODING 8251
SWIDTH 750 0
DWIDTH 12 0
BBX 11 10 0 0
BITMAP
4620
2640
1080
0900
6660
6660
0900
1080
2640
4620
ENDCHAR
STARTCHAR DOUBLE EXCLAMATION MARK
ENCODING 8252
SWIDTH 500 0
DWIDTH 8 0
BBX 6 10 1 0
BITMAP
CC
CC
CC
88
88
88
00
00
CC
CC
ENDCHAR
STARTCHAR INTERROBANG
ENCODING 8253
SWIDTH 437 0
DWIDTH 7 0
BBX 5 10 1 0
BITMAP
70
C8
48
48
70
40
00
00
60
60
ENDCHAR
STARTCHAR OVERLINE
ENCODING 8254
SWIDTH 500 0
DWIDTH 8 0
BBX 8 1 0 11
BITMAP
FF
ENDCHAR
STARTCHAR UNDERTIE
ENCODING 8255
SWIDTH 1000 0
DWIDTH 16 0
BBX 16 3 0 -3
BITMAP
8001
6006
1FF8
ENDCHAR
STARTCHAR CHARACTER TIE
ENCODING 8256
SWIDTH 1000 0
DWIDTH 16 0
BBX 16 3 0 10
BITMAP
1FF8
6006
8001
ENDCHAR
STARTCHAR CARET INSERTION POINT
ENCODING 8257
SWIDTH 250 0
DWIDTH 4 0
BBX 4 8 0 -3
BITMAP
10
10
20
20
40
40
A0
A0
ENDCHAR
STARTCHAR ASTERISM
ENCODING 8258
SWIDTH 812 0
DWIDTH 13 0
BBX 11 10 1 0
BITMAP
0400
0400
1F00
0400
0A00
2080
2080
FBE0
2080
5140
ENDCHAR
STARTCHAR HYPHEN BULLET
ENCODING 8259
SWIDTH 312 0
DWIDTH 5 0
BBX 3 2 1 3
BITMAP
E0
E0
ENDCHAR
STARTCHAR FRACTION SLASH
ENCODING 8260
SWIDTH 312 0
DWIDTH 5 0
BBX 5 10 0 0
BITMAP
08
08
10
10
20
20
40
40
80
80
ENDCHAR
STARTCHAR LEFT SQUARE BRACKET WITH QUILL
ENCODING 8261
SWIDTH 375 0
DWIDTH 6 0
BBX 3 13 2 -2
BITMAP
E0
80
80
80
80
80
E0
80
80
80
80
80
E0
ENDCHAR
STARTCHAR RIGHT SQUARE BRACKET WITH QUILL
ENCODING 8262
SWIDTH 375 0
DWIDTH 6 0
BBX 3 13 1 -2
BITMAP
E0
20
20
20
20
20
E0
20
20
20
20
20
E0
ENDCHAR
STARTCHAR DOUBLE QUESTION MARK
ENCODING 8263
SWIDTH 875 0
DWIDTH 14 0
BBX 12 10 1 0
BITMAP
70E0
8910
0810
0810
70E0
4080
0000
0000
60C0
60C0
ENDCHAR
STARTCHAR QUESTION EXCLAMATION MARK
ENCODING 8264
SWIDTH 687 0
DWIDTH 11 0
BBX 9 10 1 0
BITMAP
7180
8980
0980
0900
7100
4100
0000
0000
6180
6180
ENDCHAR
STARTCHAR EXCLAMATION QUESTION MARK
ENCODING 8265
SWIDTH 687 0
DWIDTH 11 0
BBX 9 10 1 0
BITMAP
C700
C880
C080
8080
8700
8400
0000
0000
C600
C600
ENDCHAR
STARTCHAR TIRONIAN SIGN ET
ENCODING 8266
SWIDTH 562 0
DWIDTH 9 0
BBX 7 10 1 -3
BITMAP
FE
02
04
04
08
08
10
10
20
20
ENDCHAR
STARTCHAR REVERSED PILCROW SIGN
ENCODING 8267
SWIDTH 500 0
DWIDTH 8 0
BBX 6 12 1 -2
BITMAP
F8
5C
5C
5C
58
50
50
50
50
50
50
50
ENDCHAR
STARTCHAR BLACK LEFTWARDS BULLET
ENCODING 8268
SWIDTH 437 0
DWIDTH 7 0
BBX 5 4 1 2
BITMAP
68
E8
E8
68
ENDCHAR
STARTCHAR BLACK RIGHTWARDS BULLET
ENCODING 8269
SWIDTH 437 0
DWIDTH 7 0
BBX 5 4 1 2
BITMAP
B0
B8
B8
B0
ENDCHAR
STARTCHAR LOW ASTERISK
ENCODING 8270
SWIDTH 437 0
DWIDTH 7 0
BBX 5 5 1 0
BITMAP
20
20
F8
20
50
ENDCHAR
STARTCHAR REVERSED SEMICOLON
ENCODING 8271
SWIDTH 250 0
DWIDTH 4 0
BBX 3 9 1 -2
BITMAP
C0
C0
00
00
00
80
80
40
20
ENDCHAR
STARTCHAR QUADRUPLE PRIME
ENCODING 8279
SWIDTH 687 0
DWIDTH 11 0
BBX 11 3 0 7
BITMAP
4920
9240
9240
ENDCHAR
STARTCHAR SUPERSCRIPT ZERO
ENCODING 8304
SWIDTH 375 0
DWIDTH 6 0
BBX 4 7 1 6
BITMAP
60
90
90
90
90
90
60
ENDCHAR
STARTCHAR SUPERSCRIPT LATIN SMALL LETTER I
ENCODING 8305
SWIDTH 187 0
DWIDTH 3 0
BBX 1 7 1 6
BITMAP
80
00
80
80
80
80
80
ENDCHAR
STARTCHAR SUPERSCRIPT FOUR
ENCODING 8308
SWIDTH 375 0
DWIDTH 6 0
BBX 4 7 1 6
BITMAP
20
A0
A0
A0
F0
20
20
ENDCHAR
STARTCHAR SUPERSCRIPT FIVE
ENCODING 8309
SWIDTH 375 0
DWIDTH 6 0
BBX 4 7 1 6
BITMAP
F0
80
E0
10
10
10
E0
ENDCHAR
STARTCHAR SUPERSCRIPT SIX
ENCODING 8310
SWIDTH 375 0
DWIDTH 6 0
BBX 4 7 1 6
BITMAP
30
40
E0
90
90
90
60
ENDCHAR
STARTCHAR SUPERSCRIPT SEVEN
ENCODING 8311
SWIDTH 375 0
DWIDTH 6 0
BBX 4 7 1 6
BITMAP
F0
10
20
20
40
40
40
ENDCHAR
STARTCHAR SUPERSCRIPT EIGHT
ENCODING 8312
SWIDTH 312 0
DWIDTH 5 0
BBX 4 7 1 6
BITMAP
60
90
90
60
90
90
60
ENDCHAR
STARTCHAR SUPERSCRIPT NINE
ENCODING 8313
SWIDTH 375 0
DWIDTH 6 0
BBX 4 7 1 6
BITMAP
60
90
90
90
70
20
C0
ENDCHAR
STARTCHAR SUPERSCRIPT PLUS SIGN
ENCODING 8314
SWIDTH 437 0
DWIDTH 7 0
BBX 5 5 1 7
BITMAP
20
20
F8
20
20
ENDCHAR
STARTCHAR SUPERSCRIPT MINUS
ENCODING 8315
SWIDTH 437 0
DWIDTH 7 0
BBX 5 1 1 9
BITMAP
F8
ENDCHAR
STARTCHAR SUPERSCRIPT EQUALS SIGN
ENCODING 8316
SWIDTH 437 0
DWIDTH 7 0
BBX 5 3 1 8
BITMAP
F8
00
F8
ENDCHAR
STARTCHAR SUPERSCRIPT LEFT PARENTHESIS
ENCODING 8317
SWIDTH 250 0
DWIDTH 4 0
BBX 2 8 1 5
BITMAP
40
80
80
80
80
80
80
40
ENDCHAR
STARTCHAR SUPERSCRIPT RIGHT PARENTHESIS
ENCODING 8318
SWIDTH 250 0
DWIDTH 4 0
BBX 2 8 1 5
BITMAP
80
40
40
40
40
40
40
80
ENDCHAR
STARTCHAR SUPERSCRIPT LATIN SMALL LETTER N
ENCODING 8319
SWIDTH 375 0
DWIDTH 6 0
BBX 4 5 1 6
BITMAP
E0
90
90
90
90
ENDCHAR
STARTCHAR SUBSCRIPT ZERO
ENCODING 8320
SWIDTH 375 0
DWIDTH 6 0
BBX 4 7 1 -3
BITMAP
60
90
90
90
90
90
60
ENDCHAR
STARTCHAR SUBSCRIPT ONE
ENCODING 8321
SWIDTH 375 0
DWIDTH 6 0
BBX 3 7 1 -3
BITMAP
20
60
A0
20
20
20
20
ENDCHAR
STARTCHAR SUBSCRIPT TWO
ENCODING 8322
SWIDTH 375 0
DWIDTH 6 0
BBX 4 7 1 -3
BITMAP
E0
10
10
20
40
80
F0
ENDCHAR
STARTCHAR SUBSCRIPT THREE
ENCODING 8323
SWIDTH 375 0
DWIDTH 6 0
BBX 4 7 1 -3
BITMAP
F0
20
60
10
10
10
E0
ENDCHAR
STARTCHAR SUBSCRIPT FOUR
ENCODING 8324
SWIDTH 375 0
DWIDTH 6 0
BBX 4 7 1 -3
BITMAP
20
A0
A0
A0
F0
20
20
ENDCHAR
STARTCHAR SUBSCRIPT FIVE
ENCODING 8325
SWIDTH 375 0
DWIDTH 6 0
BBX 4 7 1 -3
BITMAP
F0
80
E0
10
10
10
E0
ENDCHAR
STARTCHAR SUBSCRIPT SIX
ENCODING 8326
SWIDTH 375 0
DWIDTH 6 0
BBX 4 7 1 -3
BITMAP
30
40
E0
90
90
90
60
ENDCHAR
STARTCHAR SUBSCRIPT SEVEN
ENCODING 8327
SWIDTH 375 0
DWIDTH 6 0
BBX 4 7 1 -3
BITMAP
F0
10
20
20
40
40
40
ENDCHAR
STARTCHAR SUBSCRIPT EIGHT
ENCODING 8328
SWIDTH 375 0
DWIDTH 6 0
BBX 4 7 1 -3
BITMAP
60
90
90
60
90
90
60
ENDCHAR
STARTCHAR SUBSCRIPT NINE
ENCODING 8329
SWIDTH 375 0
DWIDTH 6 0
BBX 4 7 1 -3
BITMAP
60
90
90
90
70
20
C0
ENDCHAR
STARTCHAR SUBSCRIPT PLUS SIGN
ENCODING 8330
SWIDTH 437 0
DWIDTH 7 0
BBX 5 5 1 -2
BITMAP
20
20
F8
20
20
ENDCHAR
STARTCHAR SUBSCRIPT MINUS
ENCODING 8331
SWIDTH 437 0
DWIDTH 7 0
BBX 5 1 1 0
BITMAP
F8
ENDCHAR
STARTCHAR SUBSCRIPT EQUALS SIGN
ENCODING 8332
SWIDTH 437 0
DWIDTH 7 0
BBX 5 3 1 -1
BITMAP
F8
00
F8
ENDCHAR
STARTCHAR SUBSCRIPT LEFT PARENTHESIS
ENCODING 8333
SWIDTH 250 0
DWIDTH 4 0
BBX 2 7 1 -3
BITMAP
40
80
80
80
80
80
40
ENDCHAR
STARTCHAR SUBSCRIPT RIGHT PARENTHESIS
ENCODING 8334
SWIDTH 250 0
DWIDTH 4 0
BBX 2 7 1 -3
BITMAP
80
40
40
40
40
40
80
ENDCHAR
STARTCHAR PESETA SIGN
ENCODING 8359
SWIDTH 875 0
DWIDTH 14 0
BBX 12 10 1 0
BITMAP
FA00
8600
8600
8FF0
8700
FB00
82E0
8210
8210
81E0
ENDCHAR
STARTCHAR ACCOUNT OF
ENCODING 8448
SWIDTH 625 0
DWIDTH 10 0
BBX 8 14 1 -3
BITMAP
C0
20
60
A1
E2
04
08
10
20
43
04
04
04
03
ENDCHAR
STARTCHAR ADDRESSED TO THE SUBJECT
ENCODING 8449
SWIDTH 625 0
DWIDTH 10 0
BBX 8 14 1 -3
BITMAP
C0
20
60
A1
E2
04
08
10
20
43
04
02
01
06
ENDCHAR
STARTCHAR DEGREE CELSIUS
ENCODING 8451
SWIDTH 1000 0
DWIDTH 16 0
BBX 13 10 1 0
BITMAP
6070
9088
9100
6100
0100
0100
0100
0100
0088
0070
ENDCHAR
STARTCHAR CARE OF
ENCODING 8453
SWIDTH 687 0
DWIDTH 11 0
BBX 9 14 1 -3
BITMAP
6000
8000
8000
8100
6200
0400
0800
1000
2000
4300
0480
0480
0480
0300
ENDCHAR
STARTCHAR CADA UNA
ENCODING 8454
SWIDTH 687 0
DWIDTH 11 0
BBX 9 14 1 -3
BITMAP
6000
8000
8000
8100
6200
0400
0800
1000
2000
4480
0480
0480
0480
0380
ENDCHAR
STARTCHAR DEGREE FAHRENHEIT
ENCODING 8457
SWIDTH 1062 0
DWIDTH 17 0
BBX 13 10 1 0
BITMAP
60F8
9080
9080
6080
00F0
0080
0080
0080
0080
0080
ENDCHAR
STARTCHAR NUMERO SIGN
ENCODING 8470
SWIDTH 875 0
DWIDTH 14 0
BBX 11 10 2 0
BITMAP
84C0
C520
C520
A4C0
A400
95E0
9400
8C00
8C00
8400
ENDCHAR
STARTCHAR SOUND RECORDING COPYRIGHT
ENCODING 8471
SWIDTH 687 0
DWIDTH 11 0
BBX 10 10 1 0
BITMAP
1E00
2100
5C80
9240
9240
9C40
9040
5080
2100
1E00
ENDCHAR
STARTCHAR PRESCRIPTION TAKE
ENCODING 8478
SWIDTH 562 0
DWIDTH 9 0
BBX 7 7 1 0
BITMAP
38
44
C6
FE
C0
44
38
ENDCHAR
STARTCHAR SERVICE MARK
ENCODING 8480
SWIDTH 812 0
DWIDTH 13 0
BBX 11 7 1 6
BITMAP
7220
8220
8360
6360
12A0
12A0
E220
ENDCHAR
STARTCHAR TRADE MARK SIGN
ENCODING 8482
SWIDTH 812 0
DWIDTH 13 0
BBX 11 7 1 6
BITMAP
FA20
2220
2360
2360
22A0
22A0
2220
ENDCHAR
STARTCHAR LEFTWARDS ARROW
ENCODING 8592
SWIDTH 687 0
DWIDTH 11 0
BBX 11 5 0 2
BITMAP
2000
4000
FFE0
4000
2000
ENDCHAR
STARTCHAR UPWARDS ARROW
ENCODING 8593
SWIDTH 687 0
DWIDTH 11 0
BBX 5 11 3 -1
BITMAP
20
70
A8
20
20
20
20
20
20
20
20
ENDCHAR
STARTCHAR RIGHTWARDS ARROW
ENCODING 8594
SWIDTH 687 0
DWIDTH 11 0
BBX 11 5 0 2
BITMAP
0080
0040
FFE0
0040
0080
ENDCHAR
STARTCHAR DOWNWARDS ARROW
ENCODING 8595
SWIDTH 687 0
DWIDTH 11 0
BBX 5 11 3 -1
BITMAP
20
20
20
20
20
20
20
20
A8
70
20
ENDCHAR
STARTCHAR LEFT RIGHT ARROW
ENCODING 8596
SWIDTH 687 0
DWIDTH 11 0
BBX 11 5 0 2
BITMAP
2080
4040
FFE0
4040
2080
ENDCHAR
STARTCHAR UP DOWN ARROW
ENCODING 8597
SWIDTH 687 0
DWIDTH 11 0
BBX 5 11 3 -1
BITMAP
20
70
A8
20
20
20
20
20
A8
70
20
ENDCHAR
STARTCHAR NORTH WEST ARROW
ENCODING 8598
SWIDTH 687 0
DWIDTH 11 0
BBX 10 9 0 0
BITMAP
7800
6000
5000
4800
0400
0200
0100
0080
0040
ENDCHAR
STARTCHAR NORTH EAST ARROW
ENCODING 8599
SWIDTH 687 0
DWIDTH 11 0
BBX 9 9 1 0
BITMAP
0780
0180
0280
0480
0800
1000
2000
4000
8000
ENDCHAR
STARTCHAR SOUTH EAST ARROW
ENCODING 8600
SWIDTH 687 0
DWIDTH 11 0
BBX 9 9 1 0
BITMAP
8000
4000
2000
1000
0800
0480
0280
0180
0780
ENDCHAR
STARTCHAR SOUTH WEST ARROW
ENCODING 8601
SWIDTH 687 0
DWIDTH 11 0
BBX 9 9 1 0
BITMAP
0080
0100
0200
0400
0800
9000
A000
C000
F000
ENDCHAR
STARTCHAR LEFTWARDS ARROW WITH STROKE
ENCODING 8602
SWIDTH 687 0
DWIDTH 11 0
BBX 11 5 0 2
BITMAP
2080
4100
FFE0
4400
2800
ENDCHAR
STARTCHAR RIGHTWARDS ARROW WITH STROKE
ENCODING 8603
SWIDTH 687 0
DWIDTH 11 0
BBX 11 5 0 2
BITMAP
0280
0440
FFE0
1040
2080
ENDCHAR
STARTCHAR LEFTWARDS WAVE ARROW
ENCODING 8604
SWIDTH 687 0
DWIDTH 11 0
BBX 11 5 0 2
BITMAP
2000
4180
F240
4C20
2000
ENDCHAR
STARTCHAR RIGHTWARDS WAVE ARROW
ENCODING 8605
SWIDTH 687 0
DWIDTH 11 0
BBX 11 5 0 2
BITMAP
0080
8640
49E0
3040
0080
ENDCHAR
STARTCHAR LEFTWARDS TWO HEADED ARROW
ENCODING 8606
SWIDTH 687 0
DWIDTH 11 0
BBX 11 5 0 2
BITMAP
2400
4800
FFE0
4800
2400
ENDCHAR
STARTCHAR UPWARDS TWO HEADED ARROW
ENCODING 8607
SWIDTH 687 0
DWIDTH 11 0
BBX 5 11 3 -1
BITMAP
20
70
A8
20
70
A8
20
20
20
20
20
ENDCHAR
STARTCHAR RIGHTWARDS TWO HEADED ARROW
ENCODING 8608
SWIDTH 687 0
DWIDTH 11 0
BBX 11 5 0 2
BITMAP
0480
0240
FFE0
0240
0480
ENDCHAR
STARTCHAR DOWNWARDS TWO HEADED ARROW
ENCODING 8609
SWIDTH 687 0
DWIDTH 11 0
BBX 5 11 3 -1
BITMAP
20
20
20
20
20
A8
70
20
A8
70
20
ENDCHAR
STARTCHAR LEFTWARDS ARROW WITH TAIL
ENCODING 8610
SWIDTH 687 0
DWIDTH 11 0
BBX 11 5 0 2
BITMAP
2020
4040
FF80
4040
2020
ENDCHAR
STARTCHAR RIGHTWARDS ARROW WITH TAIL
ENCODING 8611
SWIDTH 687 0
DWIDTH 11 0
BBX 11 5 0 2
BITMAP
8080
4040
3FE0
4040
8080
ENDCHAR
STARTCHAR LEFTWARDS ARROW FROM BAR
ENCODING 8612
SWIDTH 687 0
DWIDTH 11 0
BBX 11 5 0 2
BITMAP
2020
4020
FFE0
4020
2020
ENDCHAR
STARTCHAR UPWARDS ARROW FROM BAR
ENCODING 8613
SWIDTH 687 0
DWIDTH 11 0
BBX 5 11 3 -1
BITMAP
20
70
A8
20
20
20
20
20
20
20
F8
ENDCHAR
STARTCHAR RIGHTWARDS ARROW FROM BAR
ENCODING 8614
SWIDTH 687 0
DWIDTH 11 0
BBX 11 6 0 1
BITMAP
8080
8040
FFE0
8040
8080
8000
ENDCHAR
STARTCHAR DOWNWARDS ARROW FROM BAR
ENCODING 8615
SWIDTH 687 0
DWIDTH 11 0
BBX 5 11 3 -1
BITMAP
F8
20
20
20
20
20
20
20
A8
70
20
ENDCHAR
STARTCHAR UP DOWN ARROW WITH BASE
ENCODING 8616
SWIDTH 687 0
DWIDTH 11 0
BBX 7 12 2 -2
BITMAP
10
38
54
10
10
10
10
10
54
38
10
FE
ENDCHAR
STARTCHAR LEFTWARDS ARROW WITH HOOK
ENCODING 8617
SWIDTH 687 0
DWIDTH 11 0
BBX 11 6 0 2
BITMAP
0040
2020
4020
FFC0
4000
2000
ENDCHAR
STARTCHAR RIGHTWARDS ARROW WITH HOOK
ENCODING 8618
SWIDTH 687 0
DWIDTH 11 0
BBX 11 6 0 2
BITMAP
4000
8080
8040
7FE0
0040
0080
ENDCHAR
STARTCHAR LEFTWARDS ARROW WITH LOOP
ENCODING 8619
SWIDTH 687 0
DWIDTH 11 0
BBX 11 6 0 2
BITMAP
00C0
2120
4120
FFC0
4100
2100
ENDCHAR
STARTCHAR RIGHTWARDS ARROW WITH LOOP
ENCODING 8620
SWIDTH 687 0
DWIDTH 11 0
BBX 11 6 0 2
BITMAP
6000
9080
9040
7FE0
1040
1080
ENDCHAR
STARTCHAR LEFT RIGHT WAVE ARROW
ENCODING 8621
SWIDTH 687 0
DWIDTH 11 0
BBX 11 5 0 2
BITMAP
2080
4440
EAE0
5140
2080
ENDCHAR
STARTCHAR LEFT RIGHT ARROW WITH STROKE
ENCODING 8622
SWIDTH 687 0
DWIDTH 11 0
BBX 11 5 0 2
BITMAP
2280
4440
FFE0
4440
2880
ENDCHAR
STARTCHAR DOWNWARDS ZIGZAG ARROW
ENCODING 8623
SWIDTH 687 0
DWIDTH 11 0
BBX 8 11 1 -1
BITMAP
20
20
20
24
2C
34
24
04
15
0E
04
ENDCHAR
STARTCHAR UPWARDS ARROW WITH TIP LEFTWARDS
ENCODING 8624
SWIDTH 687 0
DWIDTH 11 0
BBX 6 11 0 -1
BITMAP
20
40
FC
44
24
04
04
04
04
04
04
ENDCHAR
STARTCHAR UPWARDS ARROW WITH TIP RIGHTWARDS
ENCODING 8625
SWIDTH 687 0
DWIDTH 11 0
BBX 6 11 5 -1
BITMAP
10
08
FC
88
90
80
80
80
80
80
80
ENDCHAR
STARTCHAR DOWNWARDS ARROW WITH TIP LEFTWARDS
ENCODING 8626
SWIDTH 687 0
DWIDTH 11 0
BBX 6 11 0 -1
BITMAP
04
04
04
04
04
04
24
44
FC
40
20
ENDCHAR
STARTCHAR DOWNWARDS ARROW WITH TIP RIGHTWARDS
ENCODING 8627
SWIDTH 687 0
DWIDTH 11 0
BBX 6 11 5 -1
BITMAP
80
80
80
80
80
80
90
88
FC
08
10
ENDCHAR
STARTCHAR RIGHTWARDS ARROW WITH CORNER DOWNWARDS
ENCODING 8628
SWIDTH 687 0
DWIDTH 11 0
BBX 6 8 2 -1
BITMAP
F0
10
10
10
10
54
38
10
ENDCHAR
STARTCHAR DOWNWARDS ARROW WITH CORNER LEFTWARDS
ENCODING 8629
SWIDTH 687 0
DWIDTH 11 0
BBX 8 6 0 2
BITMAP
01
21
41
FF
40
20
ENDCHAR
STARTCHAR ANTICLOCKWISE TOP SEMICIRCLE ARROW
ENCODING 8630
SWIDTH 687 0
DWIDTH 11 0
BBX 11 7 0 2
BITMAP
0F80
1040
2020
2020
A820
7000
2000
ENDCHAR
STARTCHAR CLOCKWISE TOP SEMICIRCLE ARROW
ENCODING 8631
SWIDTH 687 0
DWIDTH 11 0
BBX 11 7 0 2
BITMAP
3E00
4100
8080
8080
82A0
01C0
0080
ENDCHAR
STARTCHAR NORTH WEST ARROW TO LONG BAR
ENCODING 8632
SWIDTH 687 0
DWIDTH 11 0
BBX 9 12 1 -1
BITMAP
FF80
0000
0000
F000
C000
A000
9000
0800
0400
0200
0100
0080
ENDCHAR
STARTCHAR LEFTWARDS ARROW TO BAR OVER RIGHTWARDS ARROW TO BAR
ENCODING 8633
SWIDTH 687 0
DWIDTH 11 0
BBX 11 10 0 0
BITMAP
9000
A000
FFE0
A000
9000
0120
00A0
FFE0
00A0
0120
ENDCHAR
STARTCHAR ANTICLOCKWISE OPEN CIRCLE ARROW
ENCODING 8634
SWIDTH 687 0
DWIDTH 11 0
BBX 9 10 1 0
BITMAP
0780
0600
4500
8480
8080
8080
8080
8080
4100
3E00
ENDCHAR
STARTCHAR CLOCKWISE OPEN CIRCLE ARROW
ENCODING 8635
SWIDTH 687 0
DWIDTH 11 0
BBX 9 10 1 0
BITMAP
F000
3000
5100
9080
8080
8080
8080
8080
4100
3E00
ENDCHAR
STARTCHAR LEFTWARDS HARPOON WITH BARB UPWARDS
ENCODING 8636
SWIDTH 687 0
DWIDTH 11 0
BBX 11 3 0 4
BITMAP
2000
4000
FFE0
ENDCHAR
STARTCHAR LEFTWARDS HARPOON WITH BARB DOWNWARDS
ENCODING 8637
SWIDTH 687 0
DWIDTH 11 0
BBX 11 3 0 2
BITMAP
FFE0
4000
2000
ENDCHAR
STARTCHAR UPWARDS HARPOON WITH BARB RIGHTWARDS
ENCODING 8638
SWIDTH 687 0
DWIDTH 11 0
BBX 3 11 5 -1
BITMAP
80
C0
A0
80
80
80
80
80
80
80
80
ENDCHAR
STARTCHAR UPWARDS HARPOON WITH BARB LEFTWARDS
ENCODING 8639
SWIDTH 687 0
DWIDTH 11 0
BBX 3 11 3 -1
BITMAP
20
60
A0
20
20
20
20
20
20
20
20
ENDCHAR
STARTCHAR RIGHTWARDS HARPOON WITH BARB UPWARDS
ENCODING 8640
SWIDTH 687 0
DWIDTH 11 0
BBX 11 3 0 4
BITMAP
0080
0040
FFE0
ENDCHAR
STARTCHAR RIGHTWARDS HARPOON WITH BARB DOWNWARDS
ENCODING 8641
SWIDTH 687 0
DWIDTH 11 0
BBX 11 3 0 2
BITMAP
FFE0
0040
0080
ENDCHAR
STARTCHAR DOWNWARDS HARPOON WITH BARB RIGHTWARDS
ENCODING 8642
SWIDTH 687 0
DWIDTH 11 0
BBX 3 11 5 -1
BITMAP
80
80
80
80
80
80
80
80
A0
C0
80
ENDCHAR
STARTCHAR DOWNWARDS HARPOON WITH BARB LEFTWARDS
ENCODING 8643
SWIDTH 687 0
DWIDTH 11 0
BBX 3 11 3 -1
BITMAP
20
20
20
20
20
20
20
20
A0
60
20
ENDCHAR
STARTCHAR RIGHTWARDS ARROW OVER LEFTWARDS ARROW
ENCODING 8644
SWIDTH 687 0
DWIDTH 11 0
BBX 11 10 0 0
BITMAP
0080
0040
FFE0
0040
0080
2000
4000
FFE0
4000
2000
ENDCHAR
STARTCHAR UPWARDS ARROW LEFTWARDS OF DOWNWARDS ARROW
ENCODING 8645
SWIDTH 687 0
DWIDTH 11 0
BBX 10 11 1 -1
BITMAP
2100
7100
A900
2100
2100
2100
2100
2100
2540
2380
2100
ENDCHAR
STARTCHAR LEFTWARDS ARROW OVER RIGHTWARDS ARROW
ENCODING 8646
SWIDTH 687 0
DWIDTH 11 0
BBX 11 10 0 0
BITMAP
2000
4000
FFE0
4000
2000
0080
0040
FFE0
0040
0080
ENDCHAR
STARTCHAR LEFTWARDS PAIRED ARROWS
ENCODING 8647
SWIDTH 687 0
DWIDTH 11 0
BBX 11 10 0 0
BITMAP
2000
4000
FFE0
4000
2000
2000
4000
FFE0
4000
2000
ENDCHAR
STARTCHAR UPWARDS PAIRED ARROWS
ENCODING 8648
SWIDTH 687 0
DWIDTH 11 0
BBX 10 11 1 -1
BITMAP
2100
7380
AD40
2100
2100
2100
2100
2100
2100
2100
2100
ENDCHAR
STARTCHAR RIGHTWARDS PAIRED ARROWS
ENCODING 8649
SWIDTH 687 0
DWIDTH 11 0
BBX 11 10 0 0
BITMAP
0080
0040
FFE0
0040
0080
0080
0040
FFE0
0040
0080
ENDCHAR
STARTCHAR DOWNWARDS PAIRED ARROWS
ENCODING 8650
SWIDTH 687 0
DWIDTH 11 0
BBX 10 11 1 -1
BITMAP
2100
2100
2100
2100
2100
2100
2100
2100
AD40
7380
2100
ENDCHAR
STARTCHAR LEFTWARDS HARPOON OVER RIGHTWARDS HARPOON
ENCODING 8651
SWIDTH 687 0
DWIDTH 11 0
BBX 11 8 0 1
BITMAP
2000
4000
FFE0
0000
0000
FFE0
0040
0080
ENDCHAR
STARTCHAR RIGHTWARDS HARPOON OVER LEFTWARDS HARPOON
ENCODING 8652
SWIDTH 687 0
DWIDTH 11 0
BBX 11 8 0 1
BITMAP
0080
0040
FFE0
0000
0000
FFE0
4000
2000
ENDCHAR
STARTCHAR LEFTWARDS DOUBLE ARROW WITH STROKE
ENCODING 8653
SWIDTH 687 0
DWIDTH 11 0
BBX 11 8 0 1
BITMAP
1100
2100
7FE0
8200
8200
7FE0
2400
1400
ENDCHAR
STARTCHAR LEFT RIGHT DOUBLE ARROW WITH STROKE
ENCODING 8654
SWIDTH 687 0
DWIDTH 11 0
BBX 11 8 0 1
BITMAP
1300
2280
7FC0
8420
8420
7FC0
2880
1900
ENDCHAR
STARTCHAR RIGHTWARDS DOUBLE ARROW WITH STROKE
ENCODING 8655
SWIDTH 687 0
DWIDTH 11 0
BBX 11 8 0 1
BITMAP
0500
0480
FFC0
0820
0820
FFC0
1080
1100
ENDCHAR
STARTCHAR LEFTWARDS DOUBLE ARROW
ENCODING 8656
SWIDTH 687 0
DWIDTH 11 0
BBX 11 8 0 1
BITMAP
1000
2000
7FE0
8000
8000
7FE0
2000
1000
ENDCHAR
STARTCHAR UPWARDS DOUBLE ARROW
ENCODING 8657
SWIDTH 687 0
DWIDTH 11 0
BBX 8 11 2 -1
BITMAP
18
24
66
A5
24
24
24
24
24
24
24
ENDCHAR
STARTCHAR RIGHTWARDS DOUBLE ARROW
ENCODING 8658
SWIDTH 687 0
DWIDTH 11 0
BBX 11 8 0 1
BITMAP
0100
0080
FFC0
0020
0020
FFC0
0080
0100
ENDCHAR
STARTCHAR DOWNWARDS DOUBLE ARROW
ENCODING 8659
SWIDTH 687 0
DWIDTH 11 0
BBX 8 11 2 -1
BITMAP
24
24
24
24
24
24
24
A5
66
24
18
ENDCHAR
STARTCHAR LEFT RIGHT DOUBLE ARROW
ENCODING 8660
SWIDTH 687 0
DWIDTH 11 0
BBX 11 8 0 1
BITMAP
1100
2080
7FC0
8020
8020
7FC0
2080
1100
ENDCHAR
STARTCHAR UP DOWN DOUBLE ARROW
ENCODING 8661
SWIDTH 687 0
DWIDTH 11 0
BBX 8 11 2 -1
BITMAP
18
24
66
A5
24
24
24
A5
66
24
18
ENDCHAR
STARTCHAR NORTH WEST DOUBLE ARROW
ENCODING 8662
SWIDTH 687 0
DWIDTH 11 0
BBX 9 9 1 0
BITMAP
FC00
9000
8800
C400
A200
9100
0880
0400
0200
ENDCHAR
STARTCHAR NORTH EAST DOUBLE ARROW
ENCODING 8663
SWIDTH 687 0
DWIDTH 11 0
BBX 9 9 1 0
BITMAP
1F80
0480
0880
1180
2280
4480
8800
1000
2000
ENDCHAR
STARTCHAR SOUTH EAST DOUBLE ARROW
ENCODING 8664
SWIDTH 687 0
DWIDTH 11 0
BBX 9 9 1 0
BITMAP
2000
1000
8800
4480
2280
1180
0880
0480
1F80
ENDCHAR
STARTCHAR SOUTH WEST DOUBLE ARROW
ENCODING 8665
SWIDTH 687 0
DWIDTH 11 0
BBX 9 9 1 0
BITMAP
0200
0400
0880
9100
A200
C400
8800
9000
FC00
ENDCHAR
STARTCHAR LEFTWARDS TRIPLE ARROW
ENCODING 8666
SWIDTH 687 0
DWIDTH 11 0
BBX 11 9 0 0
BITMAP
0800
1000
3FE0
4000
FFE0
4000
3FE0
1000
0800
ENDCHAR
STARTCHAR RIGHTWARDS TRIPLE ARROW
ENCODING 8667
SWIDTH 687 0
DWIDTH 11 0
BBX 11 9 0 0
BITMAP
0200
0100
FF80
0040
FFE0
0040
FF80
0100
0200
ENDCHAR
STARTCHAR LEFTWARDS SQUIGGLE ARROW
ENCODING 8668
SWIDTH 687 0
DWIDTH 11 0
BBX 11 5 0 2
BITMAP
2000
4440
EAA0
5100
2000
ENDCHAR
STARTCHAR RIGHTWARDS SQUIGGLE ARROW
ENCODING 8669
SWIDTH 687 0
DWIDTH 11 0
BBX 11 5 0 2
BITMAP
0080
1140
AAE0
4440
0080
ENDCHAR
STARTCHAR UPWARDS ARROW WITH DOUBLE STROKE
ENCODING 8670
SWIDTH 687 0
DWIDTH 11 0
BBX 5 11 3 -1
BITMAP
20
70
A8
20
F8
20
20
F8
20
20
20
ENDCHAR
STARTCHAR DOWNWARDS ARROW WITH DOUBLE STROKE
ENCODING 8671
SWIDTH 687 0
DWIDTH 11 0
BBX 5 11 3 -1
BITMAP
20
20
20
F8
20
20
F8
20
A8
70
20
ENDCHAR
STARTCHAR LEFTWARDS DASHED ARROW
ENCODING 8672
SWIDTH 687 0
DWIDTH 11 0
BBX 11 5 0 2
BITMAP
2000
4000
EEE0
4000
2000
ENDCHAR
STARTCHAR UPWARDS DASHED ARROW
ENCODING 8673
SWIDTH 687 0
DWIDTH 11 0
BBX 5 11 3 -1
BITMAP
20
70
A8
00
20
20
20
00
20
20
20
ENDCHAR
STARTCHAR RIGHTWARDS DASHED ARROW
ENCODING 8674
SWIDTH 687 0
DWIDTH 11 0
BBX 11 5 0 2
BITMAP
0080
0040
EEE0
0040
0080
ENDCHAR
STARTCHAR DOWNWARDS DASHED ARROW
ENCODING 8675
SWIDTH 687 0
DWIDTH 11 0
BBX 5 11 3 -1
BITMAP
20
20
20
00
20
20
20
00
A8
70
20
ENDCHAR
STARTCHAR LEFTWARDS ARROW TO BAR
ENCODING 8676
SWIDTH 687 0
DWIDTH 11 0
BBX 11 5 0 2
BITMAP
9000
A000
FFE0
A000
9000
ENDCHAR
STARTCHAR RIGHTWARDS ARROW TO BAR
ENCODING 8677
SWIDTH 687 0
DWIDTH 11 0
BBX 11 5 0 2
BITMAP
0120
00A0
FFE0
00A0
0120
ENDCHAR
STARTCHAR LEFTWARDS WHITE ARROW
ENCODING 8678
SWIDTH 687 0
DWIDTH 11 0
BBX 11 8 0 1
BITMAP
1000
3000
5FE0
8020
8020
5FE0
3000
1000
ENDCHAR
STARTCHAR UPWARDS WHITE ARROW
ENCODING 8679
SWIDTH 687 0
DWIDTH 11 0
BBX 8 11 2 -1
BITMAP
18
24
42
E7
24
24
24
24
24
24
3C
ENDCHAR
STARTCHAR RIGHTWARDS WHITE ARROW
ENCODING 8680
SWIDTH 687 0
DWIDTH 11 0
BBX 11 8 0 1
BITMAP
0100
0180
FF40
8020
8020
FF40
0180
0100
ENDCHAR
STARTCHAR DOWNWARDS WHITE ARROW
ENCODING 8681
SWIDTH 687 0
DWIDTH 11 0
BBX 8 11 2 -1
BITMAP
3C
24
24
24
24
24
24
E7
42
24
18
ENDCHAR
STARTCHAR UPWARDS WHITE ARROW FROM BAR
ENCODING 8682
SWIDTH 687 0
DWIDTH 11 0
BBX 8 11 2 -1
BITMAP
18
24
42
E7
24
24
3C
00
3C
24
3C
ENDCHAR
STARTCHAR UPWARDS WHITE ARROW ON PEDESTAL
ENCODING 8683
SWIDTH 687 0
DWIDTH 11 0
BBX 8 11 2 -1
BITMAP
18
24
42
E7
24
24
24
24
E7
81
FF
ENDCHAR
STARTCHAR UPWARDS WHITE ARROW ON PEDESTAL WITH HORIZONTAL BAR
ENCODING 8684
SWIDTH 687 0
DWIDTH 11 0
BBX 8 11 2 -1
BITMAP
18
24
7E
E7
24
24
24
24
E7
81
FF
ENDCHAR
STARTCHAR UPWARDS WHITE ARROW ON PEDESTAL WITH VERTICAL BAR
ENCODING 8685
SWIDTH 687 0
DWIDTH 11 0
BBX 9 11 1 -1
BITMAP
0800
1C00
2A00
4900
EB80
2A00
2A00
2A00
EB80
8880
FF80
ENDCHAR
STARTCHAR UPWARDS WHITE DOUBLE ARROW
ENCODING 8686
SWIDTH 687 0
DWIDTH 11 0
BBX 8 11 2 -1
BITMAP
18
24
5A
E7
42
E7
24
24
24
24
3C
ENDCHAR
STARTCHAR UPWARDS WHITE DOUBLE ARROW ON PEDESTAL
ENCODING 8687
SWIDTH 687 0
DWIDTH 11 0
BBX 8 11 2 -1
BITMAP
18
24
5A
E7
42
E7
24
24
E7
81
FF
ENDCHAR
STARTCHAR RIGHTWARDS WHITE ARROW FROM WALL
ENCODING 8688
SWIDTH 687 0
DWIDTH 11 0
BBX 11 8 0 1
BITMAP
E100
A180
BF40
8020
8020
BF40
A180
E100
ENDCHAR
STARTCHAR NORTH WEST ARROW TO CORNER
ENCODING 8689
SWIDTH 687 0
DWIDTH 11 0
BBX 11 11 0 -1
BITMAP
FFE0
8000
8000
9E00
9800
9400
9200
8100
8080
8040
8020
ENDCHAR
STARTCHAR SOUTH EAST ARROW TO CORNER
ENCODING 8690
SWIDTH 687 0
DWIDTH 11 0
BBX 11 11 0 -1
BITMAP
8020
4020
2020
1020
0920
0520
0320
0F20
0020
0020
FFE0
ENDCHAR
STARTCHAR UP DOWN WHITE ARROW
ENCODING 8691
SWIDTH 687 0
DWIDTH 11 0
BBX 8 11 2 -2
BITMAP
18
24
42
E7
24
24
24
E7
42
24
18
ENDCHAR
STARTCHAR RIGHT ARROW WITH SMALL CIRCLE
ENCODING 8692
SWIDTH 687 0
DWIDTH 11 0
BBX 11 5 0 2
BITMAP
1C80
2240
FFE0
2240
1C80
ENDCHAR
STARTCHAR DOWNWARDS ARROW LEFTWARDS OF UPWARDS ARROW
ENCODING 8693
SWIDTH 687 0
DWIDTH 11 0
BBX 10 11 1 -1
BITMAP
2100
2380
2540
2100
2100
2100
2100
2100
A900
7100
2100
ENDCHAR
STARTCHAR THREE RIGHTWARDS ARROWS
ENCODING 8694
SWIDTH 687 0
DWIDTH 11 0
BBX 11 15 0 -3
BITMAP
0080
0040
FFE0
0040
0080
0080
0040
FFE0
0040
0080
0080
0040
FFE0
0040
0080
ENDCHAR
STARTCHAR LEFTWARDS ARROW WITH VERTICAL STROKE
ENCODING 8695
SWIDTH 687 0
DWIDTH 11 0
BBX 11 5 0 2
BITMAP
2200
4200
FFE0
4200
2200
ENDCHAR
STARTCHAR RIGHTWARDS ARROW WITH VERTICAL STROKE
ENCODING 8696
SWIDTH 687 0
DWIDTH 11 0
BBX 11 5 0 2
BITMAP
0880
0840
FFE0
0840
0880
ENDCHAR
STARTCHAR LEFT RIGHT ARROW WITH VERTICAL STROKE
ENCODING 8697
SWIDTH 687 0
DWIDTH 11 0
BBX 11 5 0 2
BITMAP
2480
4440
FFE0
4440
2480
ENDCHAR
STARTCHAR LEFTWARDS ARROW WITH DOUBLE VERTICAL STROKE
ENCODING 8698
SWIDTH 687 0
DWIDTH 11 0
BBX 11 5 0 2
BITMAP
2900
4900
FFE0
4900
2900
ENDCHAR
STARTCHAR RIGHTWARDS ARROW WITH DOUBLE VERTICAL STROKE
ENCODING 8699
SWIDTH 687 0
DWIDTH 11 0
BBX 11 5 0 2
BITMAP
1280
1240
FFE0
1240
1280
ENDCHAR
STARTCHAR LEFT RIGHT ARROW WITH DOUBLE VERTICAL STROKE
ENCODING 8700
SWIDTH 687 0
DWIDTH 11 0
BBX 11 5 0 2
BITMAP
2A80
4A40
FFE0
4A40
2A80
ENDCHAR
STARTCHAR LEFTWARDS OPEN-HEADED ARROW
ENCODING 8701
SWIDTH 687 0
DWIDTH 11 0
BBX 11 5 0 2
BITMAP
2000
6000
BFE0
6000
2000
ENDCHAR
STARTCHAR RIGHTWARDS OPEN-HEADED ARROW
ENCODING 8702
SWIDTH 687 0
DWIDTH 11 0
BBX 11 5 0 2
BITMAP
0080
00C0
FFA0
00C0
0080
ENDCHAR
STARTCHAR LEFT RIGHT OPEN-HEADED ARROW
ENCODING 8703
SWIDTH 687 0
DWIDTH 11 0
BBX 11 5 0 2
BITMAP
2080
60C0
BFA0
60C0
2080
ENDCHAR
STARTCHAR MINUS SIGN
ENCODING 8722
SWIDTH 562 0
DWIDTH 9 0
BBX 7 1 1 4
BITMAP
FE
ENDCHAR
STARTCHAR MINUS-OR-PLUS SIGN
ENCODING 8723
SWIDTH 562 0
DWIDTH 9 0
BBX 7 9 1 0
BITMAP
FE
00
10
10
10
FE
10
10
10
ENDCHAR
STARTCHAR BULLET OPERATOR
ENCODING 8729
SWIDTH 500 0
DWIDTH 8 0
BBX 4 4 2 3
BITMAP
60
F0
F0
60
ENDCHAR
STARTCHAR SQUARE ROOT
ENCODING 8730
SWIDTH 500 0
DWIDTH 8 0
BBX 8 13 0 -1
BITMAP
01
01
02
02
02
04
04
C4
48
28
28
10
10
ENDCHAR
STARTCHAR INFINITY
ENCODING 8734
SWIDTH 625 0
DWIDTH 10 0
BBX 8 4 1 3
BITMAP
66
99
99
66
ENDCHAR
STARTCHAR RIGHT ANGLE
ENCODING 8735
SWIDTH 562 0
DWIDTH 9 0
BBX 7 7 1 1
BITMAP
80
80
80
80
80
80
FE
ENDCHAR
STARTCHAR PARALLEL TO
ENCODING 8741
SWIDTH 500 0
DWIDTH 8 0
BBX 4 10 2 0
BITMAP
90
90
90
90
90
90
90
90
90
90
ENDCHAR
STARTCHAR INTERSECTION
ENCODING 8745
SWIDTH 625 0
DWIDTH 10 0
BBX 8 8 1 0
BITMAP
3C
42
81
81
81
81
81
81
ENDCHAR
STARTCHAR UNION
ENCODING 8746
SWIDTH 625 0
DWIDTH 10 0
BBX 8 8 1 0
BITMAP
81
81
81
81
81
81
42
3C
ENDCHAR
STARTCHAR INTEGRAL
ENCODING 8747
SWIDTH 437 0
DWIDTH 7 0
BBX 7 13 0 -3
BITMAP
0C
12
10
10
10
10
10
10
10
10
10
90
60
ENDCHAR
STARTCHAR RATIO
ENCODING 8758
SWIDTH 312 0
DWIDTH 5 0
BBX 2 8 2 1
BITMAP
C0
C0
00
00
00
00
C0
C0
ENDCHAR
STARTCHAR TILDE OPERATOR
ENCODING 8764
SWIDTH 562 0
DWIDTH 9 0
BBX 7 3 1 3
BITMAP
60
92
0C
ENDCHAR
STARTCHAR INVERTED LAZY S
ENCODING 8766
SWIDTH 687 0
DWIDTH 11 0
BBX 7 3 2 4
BITMAP
64
92
4C
ENDCHAR
STARTCHAR SINE WAVE
ENCODING 8767
SWIDTH 687 0
DWIDTH 11 0
BBX 7 7 2 1
BITMAP
60
90
90
92
12
12
0C
ENDCHAR
STARTCHAR ALMOST EQUAL TO
ENCODING 8776
SWIDTH 687 0
DWIDTH 11 0
BBX 7 6 2 1
BITMAP
60
92
0C
60
92
0C
ENDCHAR
STARTCHAR NOT ALMOST EQUAL TO
ENCODING 8777
SWIDTH 687 0
DWIDTH 11 0
BBX 7 8 2 0
BITMAP
08
68
92
1C
70
92
2C
20
ENDCHAR
STARTCHAR APPROACHES THE LIMIT
ENCODING 8784
SWIDTH 687 0
DWIDTH 11 0
BBX 7 7 2 3
BITMAP
18
18
00
FE
00
00
FE
ENDCHAR
STARTCHAR ESTIMATES
ENCODING 8793
SWIDTH 687 0
DWIDTH 11 0
BBX 7 8 2 3
BITMAP
10
28
44
00
FE
00
00
FE
ENDCHAR
STARTCHAR NOT EQUAL TO
ENCODING 8800
SWIDTH 687 0
DWIDTH 11 0
BBX 7 8 2 1
BITMAP
08
08
FE
10
10
FE
20
20
ENDCHAR
STARTCHAR IDENTICAL TO
ENCODING 8801
SWIDTH 687 0
DWIDTH 11 0
BBX 7 7 2 1
BITMAP
FE
00
00
FE
00
00
FE
ENDCHAR
STARTCHAR NOT IDENTICAL TO
ENCODING 8802
SWIDTH 687 0
DWIDTH 11 0
BBX 7 9 2 0
BITMAP
04
FE
08
08
FE
20
20
FE
40
ENDCHAR
STARTCHAR STRICTLY EQUIVALENT TO
ENCODING 8803
SWIDTH 687 0
DWIDTH 11 0
BBX 7 10 2 0
BITMAP
FE
00
00
FE
00
00
FE
00
00
FE
ENDCHAR
STARTCHAR LESS-THAN OR EQUAL TO
ENCODING 8804
SWIDTH 687 0
DWIDTH 11 0
BBX 7 7 2 1
BITMAP
06
38
C0
38
06
00
FE
ENDCHAR
STARTCHAR GREATER-THAN OR EQUAL TO
ENCODING 8805
SWIDTH 687 0
DWIDTH 11 0
BBX 7 7 2 1
BITMAP
C0
38
06
38
C0
00
FE
ENDCHAR
STARTCHAR LESS-THAN OVER EQUAL TO
ENCODING 8806
SWIDTH 687 0
DWIDTH 11 0
BBX 7 9 2 0
BITMAP
06
38
C0
38
06
00
FE
00
FE
ENDCHAR
STARTCHAR GREATER-THAN OVER EQUAL TO
ENCODING 8807
SWIDTH 687 0
DWIDTH 11 0
BBX 7 9 2 0
BITMAP
C0
38
06
38
C0
00
FE
00
FE
ENDCHAR
STARTCHAR MUCH LESS-THAN
ENCODING 8810
SWIDTH 1000 0
DWIDTH 16 0
BBX 12 7 2 1
BITMAP
0210
0C60
3180
C600
3180
0C60
0210
ENDCHAR
STARTCHAR MUCH GREATER-THAN
ENCODING 8811
SWIDTH 1000 0
DWIDTH 16 0
BBX 12 7 2 1
BITMAP
8400
6300
18C0
0630
18C0
6300
8400
ENDCHAR
STARTCHAR DOT OPERATOR
ENCODING 8901
SWIDTH 312 0
DWIDTH 5 0
BBX 2 2 1 4
BITMAP
C0
C0
ENDCHAR
STARTCHAR DIAMETER SIGN
ENCODING 8960
SWIDTH 562 0
DWIDTH 9 0
BBX 8 10 1 0
BITMAP
02
3C
46
89
89
91
91
62
3C
40
ENDCHAR
STARTCHAR HOUSE
ENCODING 8962
SWIDTH 687 0
DWIDTH 11 0
BBX 9 9 1 0
BITMAP
0800
1400
2200
4100
8080
8080
8080
8080
FF80
ENDCHAR
STARTCHAR TOP HALF INTEGRAL
ENCODING 8992
SWIDTH 687 0
DWIDTH 11 0
BBX 4 13 5 -3
BITMAP
60
90
80
80
80
80
80
80
80
80
80
80
80
ENDCHAR
STARTCHAR BOTTOM HALF INTEGRAL
ENCODING 8993
SWIDTH 687 0
DWIDTH 11 0
BBX 4 13 2 0
BITMAP
10
10
10
10
10
10
10
10
10
10
10
90
60
ENDCHAR
STARTCHAR BOX DRAWINGS LIGHT HORIZONTAL
ENCODING 9472
SWIDTH 687 0
DWIDTH 11 0
BBX 11 1 0 4
BITMAP
FFE0
ENDCHAR
STARTCHAR BOX DRAWINGS LIGHT VERTICAL
ENCODING 9474
SWIDTH 687 0
DWIDTH 11 0
BBX 6 16 0 -3
BITMAP
04
04
04
04
04
04
04
04
04
04
04
04
04
04
04
04
ENDCHAR
STARTCHAR BOX DRAWINGS LIGHT DOWN AND RIGHT
ENCODING 9484
SWIDTH 687 0
DWIDTH 11 0
BBX 6 8 5 -3
BITMAP
FC
80
80
80
80
80
80
80
ENDCHAR
STARTCHAR BOX DRAWINGS LIGHT DOWN AND LEFT
ENCODING 9488
SWIDTH 687 0
DWIDTH 11 0
BBX 6 8 0 -3
BITMAP
FC
04
04
04
04
04
04
04
ENDCHAR
STARTCHAR BOX DRAWINGS LIGHT UP AND RIGHT
ENCODING 9492
SWIDTH 687 0
DWIDTH 11 0
BBX 6 9 5 4
BITMAP
80
80
80
80
80
80
80
80
FC
ENDCHAR
STARTCHAR BOX DRAWINGS LIGHT UP AND LEFT
ENCODING 9496
SWIDTH 687 0
DWIDTH 11 0
BBX 6 9 0 4
BITMAP
04
04
04
04
04
04
04
04
FC
ENDCHAR
STARTCHAR BOX DRAWINGS LIGHT VERTICAL AND RIGHT
ENCODING 9500
SWIDTH 687 0
DWIDTH 11 0
BBX 6 16 5 -3
BITMAP
80
80
80
80
80
80
80
80
FC
80
80
80
80
80
80
80
ENDCHAR
STARTCHAR BOX DRAWINGS LIGHT VERTICAL AND LEFT
ENCODING 9508
SWIDTH 687 0
DWIDTH 11 0
BBX 6 16 0 -3
BITMAP
04
04
04
04
04
04
04
04
FC
04
04
04
04
04
04
04
ENDCHAR
STARTCHAR BOX DRAWINGS LIGHT DOWN AND HORIZONTAL
ENCODING 9516
SWIDTH 687 0
DWIDTH 11 0
BBX 11 8 0 -3
BITMAP
FFE0
0400
0400
0400
0400
0400
0400
0400
ENDCHAR
STARTCHAR BOX DRAWINGS LIGHT UP AND HORIZONTAL
ENCODING 9524
SWIDTH 687 0
DWIDTH 11 0
BBX 11 9 0 4
BITMAP
0400
0400
0400
0400
0400
0400
0400
0400
FFE0
ENDCHAR
STARTCHAR BOX DRAWINGS LIGHT VERTICAL AND HORIZONTAL
ENCODING 9532
SWIDTH 687 0
DWIDTH 11 0
BBX 11 16 0 -3
BITMAP
0400
0400
0400
0400
0400
0400
0400
0400
FFE0
0400
0400
0400
0400
0400
0400
0400
ENDCHAR
STARTCHAR BOX DRAWINGS DOUBLE HORIZONTAL
ENCODING 9552
SWIDTH 687 0
DWIDTH 11 0
BBX 11 4 0 3
BITMAP
FFE0
0000
0000
FFE0
ENDCHAR
STARTCHAR BOX DRAWINGS DOUBLE VERTICAL
ENCODING 9553
SWIDTH 687 0
DWIDTH 11 0
BBX 8 16 0 -3
BITMAP
09
09
09
09
09
09
09
09
09
09
09
09
09
09
09
09
ENDCHAR
STARTCHAR BOX DRAWINGS DOWN SINGLE AND RIGHT DOUBLE
ENCODING 9554
SWIDTH 687 0
DWIDTH 11 0
BBX 7 10 5 -3
BITMAP
FC
80
80
FC
80
80
80
80
80
80
ENDCHAR
STARTCHAR BOX DRAWINGS DOWN DOUBLE AND RIGHT SINGLE
ENCODING 9555
SWIDTH 687 0
DWIDTH 11 0
BBX 7 8 4 -3
BITMAP
FE
90
90
90
90
90
90
90
ENDCHAR
STARTCHAR BOX DRAWINGS DOUBLE DOWN AND RIGHT
ENCODING 9556
SWIDTH 687 0
DWIDTH 11 0
BBX 7 10 4 -3
BITMAP
FE
80
80
9E
90
90
90
90
90
90
ENDCHAR
STARTCHAR BOX DRAWINGS DOWN SINGLE AND LEFT DOUBLE
ENCODING 9557
SWIDTH 687 0
DWIDTH 11 0
BBX 6 10 0 -3
BITMAP
FC
04
04
FC
04
04
04
04
04
04
ENDCHAR
STARTCHAR BOX DRAWINGS DOWN DOUBLE AND LEFT SINGLE
ENCODING 9558
SWIDTH 687 0
DWIDTH 11 0
BBX 8 8 0 -3
BITMAP
FF
09
09
09
09
09
09
09
ENDCHAR
STARTCHAR BOX DRAWINGS DOUBLE DOWN AND LEFT
ENCODING 9559
SWIDTH 687 0
DWIDTH 11 0
BBX 8 10 0 -3
BITMAP
FF
01
01
F9
09
09
09
09
09
09
ENDCHAR
STARTCHAR BOX DRAWINGS UP SINGLE AND RIGHT DOUBLE
ENCODING 9560
SWIDTH 687 0
DWIDTH 11 0
BBX 6 10 5 3
BITMAP
80
80
80
80
80
80
FC
80
80
FC
ENDCHAR
STARTCHAR BOX DRAWINGS UP DOUBLE AND RIGHT SINGLE
ENCODING 9561
SWIDTH 687 0
DWIDTH 11 0
BBX 7 9 4 4
BITMAP
90
90
90
90
90
90
90
90
FE
ENDCHAR
STARTCHAR BOX DRAWINGS DOUBLE UP AND RIGHT
ENCODING 9562
SWIDTH 687 0
DWIDTH 11 0
BBX 7 10 4 3
BITMAP
90
90
90
90
90
90
9E
80
80
FE
ENDCHAR
STARTCHAR BOX DRAWINGS UP SINGLE AND LEFT DOUBLE
ENCODING 9563
SWIDTH 687 0
DWIDTH 11 0
BBX 6 10 0 3
BITMAP
04
04
04
04
04
04
FC
04
04
FC
ENDCHAR
STARTCHAR BOX DRAWINGS UP DOUBLE AND LEFT SINGLE
ENCODING 9564
SWIDTH 687 0
DWIDTH 11 0
BBX 8 9 0 4
BITMAP
09
09
09
09
09
09
09
09
FF
ENDCHAR
STARTCHAR BOX DRAWINGS DOUBLE UP AND LEFT
ENCODING 9565
SWIDTH 687 0
DWIDTH 11 0
BBX 8 10 0 3
BITMAP
09
09
09
09
09
09
F9
01
01
FF
ENDCHAR
STARTCHAR BOX DRAWINGS VERTICAL SINGLE AND RIGHT DOUBLE
ENCODING 9566
SWIDTH 687 0
DWIDTH 11 0
BBX 6 16 5 -3
BITMAP
80
80
80
80
80
80
FC
80
80
FC
80
80
80
80
80
80
ENDCHAR
STARTCHAR BOX DRAWINGS VERTICAL DOUBLE AND RIGHT SINGLE
ENCODING 9567
SWIDTH 687 0
DWIDTH 11 0
BBX 7 16 4 -3
BITMAP
90
90
90
90
90
90
90
90
9E
90
90
90
90
90
90
90
ENDCHAR
STARTCHAR BOX DRAWINGS DOUBLE VERTICAL AND RIGHT
ENCODING 9568
SWIDTH 687 0
DWIDTH 11 0
BBX 7 16 4 -3
BITMAP
90
90
90
90
90
90
9E
80
80
9E
90
90
90
90
90
90
ENDCHAR
STARTCHAR BOX DRAWINGS VERTICAL SINGLE AND LEFT DOUBLE
ENCODING 9569
SWIDTH 687 0
DWIDTH 11 0
BBX 6 16 0 -3
BITMAP
04
04
04
04
04
04
FC
04
04
FC
04
04
04
04
04
04
ENDCHAR
STARTCHAR BOX DRAWINGS VERTICAL DOUBLE AND LEFT SINGLE
ENCODING 9570
SWIDTH 687 0
DWIDTH 11 0
BBX 8 16 0 -3
BITMAP
09
09
09
09
09
09
09
09
F9
09
09
09
09
09
09
09
ENDCHAR
STARTCHAR BOX DRAWINGS DOUBLE VERTICAL AND LEFT
ENCODING 9571
SWIDTH 687 0
DWIDTH 11 0
BBX 8 16 0 -3
BITMAP
09
09
09
09
09
09
F9
01
01
F9
09
09
09
09
09
09
ENDCHAR
STARTCHAR BOX DRAWINGS DOWN SINGLE AND HORIZONTAL DOUBLE
ENCODING 9572
SWIDTH 687 0
DWIDTH 11 0
BBX 11 10 0 -3
BITMAP
FFE0
0000
0000
FFE0
0400
0400
0400
0400
0400
0400
ENDCHAR
STARTCHAR BOX DRAWINGS DOWN DOUBLE AND HORIZONTAL SINGLE
ENCODING 9573
SWIDTH 687 0
DWIDTH 11 0
BBX 11 8 0 -3
BITMAP
FFE0
0900
0900
0900
0900
0900
0900
0900
ENDCHAR
STARTCHAR BOX DRAWINGS DOUBLE DOWN AND HORIZONTAL
ENCODING 9574
SWIDTH 687 0
DWIDTH 11 0
BBX 11 10 0 -3
BITMAP
FFE0
0000
0000
F9E0
0900
0900
0900
0900
0900
0900
ENDCHAR
STARTCHAR BOX DRAWINGS UP SINGLE AND HORIZONTAL DOUBLE
ENCODING 9575
SWIDTH 687 0
DWIDTH 11 0
BBX 11 10 0 3
BITMAP
0400
0400
0400
0400
0400
0400
FFE0
0000
0000
FFE0
ENDCHAR
STARTCHAR BOX DRAWINGS UP DOUBLE AND HORIZONTAL SINGLE
ENCODING 9576
SWIDTH 687 0
DWIDTH 11 0
BBX 11 9 0 4
BITMAP
0900
0900
0900
0900
0900
0900
0900
0900
FFE0
ENDCHAR
STARTCHAR BOX DRAWINGS DOUBLE UP AND HORIZONTAL
ENCODING 9577
SWIDTH 687 0
DWIDTH 11 0
BBX 11 10 0 3
BITMAP
0900
0900
0900
0900
0900
0900
F9E0
0000
0000
FFE0
ENDCHAR
STARTCHAR BOX DRAWINGS VERTICAL SINGLE AND HORIZONTAL DOUBLE
ENCODING 9578
SWIDTH 687 0
DWIDTH 11 0
BBX 11 16 0 -3
BITMAP
0400
0400
0400
0400
0400
0400
FFE0
0000
0000
FFE0
0400
0400
0400
0400
0400
0400
ENDCHAR
STARTCHAR BOX DRAWINGS VERTICAL DOUBLE AND HORIZONTAL SINGLE
ENCODING 9579
SWIDTH 687 0
DWIDTH 11 0
BBX 11 16 0 -3
BITMAP
0900
0900
0900
0900
0900
0900
0900
0900
F9E0
0900
0900
0900
0900
0900
0900
0900
ENDCHAR
STARTCHAR BOX DRAWINGS DOUBLE VERTICAL AND HORIZONTAL
ENCODING 9580
SWIDTH 687 0
DWIDTH 11 0
BBX 11 16 0 -3
BITMAP
0900
0900
0900
0900
0900
0900
F9E0
0000
0000
F9E0
0900
0900
0900
0900
0900
0900
ENDCHAR
STARTCHAR UPPER HALF BLOCK
ENCODING 9600
SWIDTH 687 0
DWIDTH 11 0
BBX 11 8 0 5
BITMAP
FFE0
FFE0
FFE0
FFE0
FFE0
FFE0
FFE0
FFE0
ENDCHAR
STARTCHAR LOWER ONE EIGHTH BLOCK
ENCODING 9601
SWIDTH 687 0
DWIDTH 11 0
BBX 11 2 0 -3
BITMAP
FFE0
FFE0
ENDCHAR
STARTCHAR LOWER ONE QUARTER BLOCK
ENCODING 9602
SWIDTH 687 0
DWIDTH 11 0
BBX 11 4 0 -3
BITMAP
FFE0
FFE0
FFE0
FFE0
ENDCHAR
STARTCHAR LOWER THREE EIGHTHS BLOCK
ENCODING 9603
SWIDTH 687 0
DWIDTH 11 0
BBX 11 6 0 -3
BITMAP
FFE0
FFE0
FFE0
FFE0
FFE0
FFE0
ENDCHAR
STARTCHAR LOWER HALF BLOCK
ENCODING 9604
SWIDTH 687 0
DWIDTH 11 0
BBX 11 8 0 -3
BITMAP
FFE0
FFE0
FFE0
FFE0
FFE0
FFE0
FFE0
FFE0
ENDCHAR
STARTCHAR LOWER FIVE EIGHTHS BLOCK
ENCODING 9605
SWIDTH 687 0
DWIDTH 11 0
BBX 11 10 0 -3
BITMAP
FFE0
FFE0
FFE0
FFE0
FFE0
FFE0
FFE0
FFE0
FFE0
FFE0
ENDCHAR
STARTCHAR LOWER THREE QUARTERS BLOCK
ENCODING 9606
SWIDTH 687 0
DWIDTH 11 0
BBX 11 12 0 -3
BITMAP
FFE0
FFE0
FFE0
FFE0
FFE0
FFE0
FFE0
FFE0
FFE0
FFE0
FFE0
FFE0
ENDCHAR
STARTCHAR LOWER SEVEN EIGHTHS BLOCK
ENCODING 9607
SWIDTH 687 0
DWIDTH 11 0
BBX 11 14 0 -3
BITMAP
FFE0
FFE0
FFE0
FFE0
FFE0
FFE0
FFE0
FFE0
FFE0
FFE0
FFE0
FFE0
FFE0
FFE0
ENDCHAR
STARTCHAR FULL BLOCK
ENCODING 9608
SWIDTH 687 0
DWIDTH 11 0
BBX 11 16 0 -3
BITMAP
FFE0
FFE0
FFE0
FFE0
FFE0
FFE0
FFE0
FFE0
FFE0
FFE0
FFE0
FFE0
FFE0
FFE0
FFE0
FFE0
ENDCHAR
STARTCHAR LEFT SEVEN EIGHTHS BLOCK
ENCODING 9609
SWIDTH 687 0
DWIDTH 11 0
BBX 10 16 0 -3
BITMAP
FFC0
FFC0
FFC0
FFC0
FFC0
FFC0
FFC0
FFC0
FFC0
FFC0
FFC0
FFC0
FFC0
FFC0
FFC0
FFC0
ENDCHAR
STARTCHAR LEFT THREE QUARTERS BLOCK
ENCODING 9610
SWIDTH 687 0
DWIDTH 11 0
BBX 8 16 0 -3
BITMAP
FF
FF
FF
FF
FF
FF
FF
FF
FF
FF
FF
FF
FF
FF
FF
FF
ENDCHAR
STARTCHAR LEFT FIVE EIGHTHS BLOCK
ENCODING 9611
SWIDTH 687 0
DWIDTH 11 0
BBX 7 16 0 -3
BITMAP
FE
FE
FE
FE
FE
FE
FE
FE
FE
FE
FE
FE
FE
FE
FE
FE
ENDCHAR
STARTCHAR LEFT HALF BLOCK
ENCODING 9612
SWIDTH 687 0
DWIDTH 11 0
BBX 6 16 0 -3
BITMAP
FC
FC
FC
FC
FC
FC
FC
FC
FC
FC
FC
FC
FC
FC
FC
FC
ENDCHAR
STARTCHAR LEFT THREE EIGHTHS BLOCK
ENCODING 9613
SWIDTH 687 0
DWIDTH 11 0
BBX 4 16 0 -3
BITMAP
F0
F0
F0
F0
F0
F0
F0
F0
F0
F0
F0
F0
F0
F0
F0
F0
ENDCHAR
STARTCHAR LEFT ONE QUARTER BLOCK
ENCODING 9614
SWIDTH 687 0
DWIDTH 11 0
BBX 3 16 0 -3
BITMAP
E0
E0
E0
E0
E0
E0
E0
E0
E0
E0
E0
E0
E0
E0
E0
E0
ENDCHAR
STARTCHAR LEFT ONE EIGHTH BLOCK
ENCODING 9615
SWIDTH 687 0
DWIDTH 11 0
BBX 1 16 0 -3
BITMAP
80
80
80
80
80
80
80
80
80
80
80
80
80
80
80
80
ENDCHAR
STARTCHAR RIGHT HALF BLOCK
ENCODING 9616
SWIDTH 687 0
DWIDTH 11 0
BBX 5 16 6 -3
BITMAP
F8
F8
F8
F8
F8
F8
F8
F8
F8
F8
F8
F8
F8
F8
F8
F8
ENDCHAR
STARTCHAR LIGHT SHADE
ENCODING 9617
SWIDTH 687 0
DWIDTH 11 0
BBX 11 16 0 -3
BITMAP
2220
8880
2220
8880
2220
8880
2220
8880
2220
8880
2220
8880
2220
8880
2220
8880
ENDCHAR
STARTCHAR MEDIUM SHADE
ENCODING 9618
SWIDTH 687 0
DWIDTH 11 0
BBX 11 16 0 -3
BITMAP
5540
AAA0
5540
AAA0
5540
AAA0
5540
AAA0
5540
AAA0
5540
AAA0
5540
AAA0
5540
AAA0
ENDCHAR
STARTCHAR DARK SHADE
ENCODING 9619
SWIDTH 687 0
DWIDTH 11 0
BBX 11 16 0 -3
BITMAP
DDC0
7760
DDC0
7760
DDC0
7760
DDC0
7760
DDC0
7760
DDC0
7760
DDC0
7760
DDC0
7760
ENDCHAR
STARTCHAR UPPER ONE EIGHTH BLOCK
ENCODING 9620
SWIDTH 687 0
DWIDTH 11 0
BBX 11 2 0 11
BITMAP
FFE0
FFE0
ENDCHAR
STARTCHAR RIGHT ONE EIGHTH BLOCK
ENCODING 9621
SWIDTH 687 0
DWIDTH 11 0
BBX 1 16 10 -3
BITMAP
80
80
80
80
80
80
80
80
80
80
80
80
80
80
80
80
ENDCHAR
STARTCHAR QUADRANT LOWER LEFT
ENCODING 9622
SWIDTH 687 0
DWIDTH 11 0
BBX 6 8 0 -3
BITMAP
FC
FC
FC
FC
FC
FC
FC
FC
ENDCHAR
STARTCHAR QUADRANT LOWER RIGHT
ENCODING 9623
SWIDTH 687 0
DWIDTH 11 0
BBX 5 8 6 -3
BITMAP
F8
F8
F8
F8
F8
F8
F8
F8
ENDCHAR
STARTCHAR QUADRANT UPPER LEFT
ENCODING 9624
SWIDTH 687 0
DWIDTH 11 0
BBX 6 8 0 5
BITMAP
FC
FC
FC
FC
FC
FC
FC
FC
ENDCHAR
STARTCHAR QUADRANT UPPER LEFT AND LOWER LEFT AND LOWER RIGHT
ENCODING 9625
SWIDTH 687 0
DWIDTH 11 0
BBX 11 16 0 -3
BITMAP
FC00
FC00
FC00
FC00
FC00
FC00
FC00
FC00
FFE0
FFE0
FFE0
FFE0
FFE0
FFE0
FFE0
FFE0
ENDCHAR
STARTCHAR QUADRANT UPPER LEFT AND LOWER RIGHT
ENCODING 9626
SWIDTH 687 0
DWIDTH 11 0
BBX 11 16 0 -3
BITMAP
FC00
FC00
FC00
FC00
FC00
FC00
FC00
FC00
03E0
03E0
03E0
03E0
03E0
03E0
03E0
03E0
ENDCHAR
STARTCHAR QUADRANT UPPER LEFT AND UPPER RIGHT AND LOWER LEFT
ENCODING 9627
SWIDTH 687 0
DWIDTH 11 0
BBX 11 16 0 -3
BITMAP
FFE0
FFE0
FFE0
FFE0
FFE0
FFE0
FFE0
FFE0
FC00
FC00
FC00
FC00
FC00
FC00
FC00
FC00
ENDCHAR
STARTCHAR QUADRANT UPPER LEFT AND UPPER RIGHT AND LOWER RIGHT
ENCODING 9628
SWIDTH 687 0
DWIDTH 11 0
BBX 11 16 0 -3
BITMAP
FFE0
FFE0
FFE0
FFE0
FFE0
FFE0
FFE0
FFE0
03E0
03E0
03E0
03E0
03E0
03E0
03E0
03E0
ENDCHAR
STARTCHAR QUADRANT UPPER RIGHT
ENCODING 9629
SWIDTH 687 0
DWIDTH 11 0
BBX 5 8 6 5
BITMAP
F8
F8
F8
F8
F8
F8
F8
F8
ENDCHAR
STARTCHAR QUADRANT UPPER RIGHT AND LOWER LEFT
ENCODING 9630
SWIDTH 687 0
DWIDTH 11 0
BBX 11 16 0 -3
BITMAP
03E0
03E0
03E0
03E0
03E0
03E0
03E0
03E0
FC00
FC00
FC00
FC00
FC00
FC00
FC00
FC00
ENDCHAR
STARTCHAR QUADRANT UPPER RIGHT AND LOWER LEFT AND LOWER RIGHT
ENCODING 9631
SWIDTH 687 0
DWIDTH 11 0
BBX 11 16 0 -3
BITMAP
03E0
03E0
03E0
03E0
03E0
03E0
03E0
03E0
FFE0
FFE0
FFE0
FFE0
FFE0
FFE0
FFE0
FFE0
ENDCHAR
STARTCHAR BLACK SQUARE
ENCODING 9632
SWIDTH 687 0
DWIDTH 11 0
BBX 9 9 1 0
BITMAP
FF80
FF80
FF80
FF80
FF80
FF80
FF80
FF80
FF80
ENDCHAR
STARTCHAR WHITE SQUARE
ENCODING 9633
SWIDTH 687 0
DWIDTH 11 0
BBX 9 9 1 0
BITMAP
FF80
8080
8080
8080
8080
8080
8080
8080
FF80
ENDCHAR
STARTCHAR WHITE SQUARE WITH ROUNDED CORNERS
ENCODING 9634
SWIDTH 687 0
DWIDTH 11 0
BBX 9 9 1 0
BITMAP
7F00
8080
8080
8080
8080
8080
8080
8080
7F00
ENDCHAR
STARTCHAR WHITE SQUARE CONTAINING BLACK SMALL SQUARE
ENCODING 9635
SWIDTH 687 0
DWIDTH 11 0
BBX 9 9 1 0
BITMAP
FF80
8080
BE80
BE80
BE80
BE80
BE80
8080
FF80
ENDCHAR
STARTCHAR SQUARE WITH HORIZONTAL FILL
ENCODING 9636
SWIDTH 687 0
DWIDTH 11 0
BBX 9 9 1 0
BITMAP
FF80
8080
FF80
8080
FF80
8080
FF80
8080
FF80
ENDCHAR
STARTCHAR SQUARE WITH VERTICAL FILL
ENCODING 9637
SWIDTH 687 0
DWIDTH 11 0
BBX 9 9 1 0
BITMAP
FF80
AA80
AA80
AA80
AA80
AA80
AA80
AA80
FF80
ENDCHAR
STARTCHAR SQUARE WITH ORTHOGONAL CROSSHATCH FILL
ENCODING 9638
SWIDTH 687 0
DWIDTH 11 0
BBX 9 9 1 0
BITMAP
FF80
AA80
FF80
AA80
FF80
AA80
FF80
AA80
FF80
ENDCHAR
STARTCHAR SQUARE WITH UPPER LEFT TO LOWER RIGHT FILL
ENCODING 9639
SWIDTH 687 0
DWIDTH 11 0
BBX 9 9 1 0
BITMAP
FF80
9280
C980
A480
9280
C980
A480
9280
FF80
ENDCHAR
STARTCHAR SQUARE WITH UPPER RIGHT TO LOWER LEFT FILL
ENCODING 9640
SWIDTH 687 0
DWIDTH 11 0
BBX 9 9 1 0
BITMAP
FF80
A480
C980
9280
A480
C980
9280
A480
FF80
ENDCHAR
STARTCHAR SQUARE WITH DIAGONAL CROSSHATCH FILL
ENCODING 9641
SWIDTH 687 0
DWIDTH 11 0
BBX 9 9 1 0
BITMAP
FF80
AA80
D580
AA80
D580
AA80
D580
AA80
FF80
ENDCHAR
STARTCHAR BLACK SMALL SQUARE
ENCODING 9642
SWIDTH 437 0
DWIDTH 7 0
BBX 5 5 1 2
BITMAP
F8
F8
F8
F8
F8
ENDCHAR
STARTCHAR WHITE SMALL SQUARE
ENCODING 9643
SWIDTH 437 0
DWIDTH 7 0
BBX 5 5 1 2
BITMAP
F8
88
88
88
F8
ENDCHAR
STARTCHAR BLACK RECTANGLE
ENCODING 9644
SWIDTH 687 0
DWIDTH 11 0
BBX 9 5 1 2
BITMAP
FF80
FF80
FF80
FF80
FF80
ENDCHAR
STARTCHAR WHITE RECTANGLE
ENCODING 9645
SWIDTH 687 0
DWIDTH 11 0
BBX 9 5 1 2
BITMAP
FF80
8080
8080
8080
FF80
ENDCHAR
STARTCHAR BLACK VERTICAL RECTANGLE
ENCODING 9646
SWIDTH 437 0
DWIDTH 7 0
BBX 5 9 1 0
BITMAP
F8
F8
F8
F8
F8
F8
F8
F8
F8
ENDCHAR
STARTCHAR WHITE VERTICAL RECTANGLE
ENCODING 9647
SWIDTH 437 0
DWIDTH 7 0
BBX 5 9 1 0
BITMAP
F8
88
88
88
88
88
88
88
F8
ENDCHAR
STARTCHAR BLACK PARALLELOGRAM
ENCODING 9648
SWIDTH 687 0
DWIDTH 11 0
BBX 10 6 1 2
BITMAP
3FC0
3FC0
7F80
7F80
FF00
FF00
ENDCHAR
STARTCHAR WHITE PARALLELOGRAM
ENCODING 9649
SWIDTH 687 0
DWIDTH 11 0
BBX 10 6 1 2
BITMAP
3FC0
2040
4080
4080
8100
FF00
ENDCHAR
STARTCHAR BLACK UP-POINTING TRIANGLE
ENCODING 9650
SWIDTH 687 0
DWIDTH 11 0
BBX 9 10 1 0
BITMAP
0800
0800
1C00
1C00
3E00
3E00
7F00
7F00
FF80
FF80
ENDCHAR
STARTCHAR WHITE UP-POINTING TRIANGLE
ENCODING 9651
SWIDTH 687 0
DWIDTH 11 0
BBX 9 10 1 0
BITMAP
0800
0800
1400
1400
2200
2200
4100
4100
8080
FF80
ENDCHAR
STARTCHAR BLACK UP-POINTING SMALL TRIANGLE
ENCODING 9652
SWIDTH 437 0
DWIDTH 7 0
BBX 5 5 1 3
BITMAP
20
20
70
70
F8
ENDCHAR
STARTCHAR WHITE UP-POINTING SMALL TRIANGLE
ENCODING 9653
SWIDTH 437 0
DWIDTH 7 0
BBX 5 5 1 3
BITMAP
20
20
50
50
F8
ENDCHAR
STARTCHAR BLACK RIGHT-POINTING TRIANGLE
ENCODING 9654
SWIDTH 687 0
DWIDTH 11 0
BBX 10 9 1 0
BITMAP
C000
F000
FC00
FF00
FFC0
FF00
FC00
F000
C000
ENDCHAR
STARTCHAR WHITE RIGHT-POINTING TRIANGLE
ENCODING 9655
SWIDTH 687 0
DWIDTH 11 0
BBX 10 9 1 0
BITMAP
C000
B000
8C00
8300
80C0
8300
8C00
B000
C000
ENDCHAR
STARTCHAR BLACK RIGHT-POINTING SMALL TRIANGLE
ENCODING 9656
SWIDTH 437 0
DWIDTH 7 0
BBX 5 5 1 2
BITMAP
80
E0
F8
E0
80
ENDCHAR
STARTCHAR WHITE RIGHT-POINTING SMALL TRIANGLE
ENCODING 9657
SWIDTH 437 0
DWIDTH 7 0
BBX 5 5 1 2
BITMAP
80
E0
98
E0
80
ENDCHAR
STARTCHAR BLACK RIGHT-POINTING POINTER
ENCODING 9658
SWIDTH 687 0
DWIDTH 11 0
BBX 9 7 1 1
BITMAP
8000
F000
FE00
FF80
FE00
F000
8000
ENDCHAR
STARTCHAR WHITE RIGHT-POINTING POINTER
ENCODING 9659
SWIDTH 687 0
DWIDTH 11 0
BBX 9 7 1 1
BITMAP
8000
F000
8E00
8180
8E00
F000
8000
ENDCHAR
STARTCHAR BLACK DOWN-POINTING TRIANGLE
ENCODING 9660
SWIDTH 687 0
DWIDTH 11 0
BBX 9 10 1 -1
BITMAP
FF80
FF80
7F00
7F00
3E00
3E00
1C00
1C00
0800
0800
ENDCHAR
STARTCHAR WHITE DOWN-POINTING TRIANGLE
ENCODING 9661
SWIDTH 687 0
DWIDTH 11 0
BBX 9 10 1 -1
BITMAP
FF80
8080
4100
4100
2200
2200
1400
1400
0800
0800
ENDCHAR
STARTCHAR BLACK DOWN-POINTING SMALL TRIANGLE
ENCODING 9662
SWIDTH 437 0
DWIDTH 7 0
BBX 5 5 1 2
BITMAP
F8
70
70
20
20
ENDCHAR
STARTCHAR WHITE DOWN-POINTING SMALL TRIANGLE
ENCODING 9663
SWIDTH 437 0
DWIDTH 7 0
BBX 5 5 1 2
BITMAP
F8
50
50
20
20
ENDCHAR
STARTCHAR BLACK LEFT-POINTING TRIANGLE
ENCODING 9664
SWIDTH 687 0
DWIDTH 11 0
BBX 10 9 0 0
BITMAP
00C0
03C0
0FC0
3FC0
FFC0
3FC0
0FC0
03C0
00C0
ENDCHAR
STARTCHAR WHITE LEFT-POINTING TRIANGLE
ENCODING 9665
SWIDTH 687 0
DWIDTH 11 0
BBX 10 9 0 0
BITMAP
00C0
0340
0C40
3040
C040
3040
0C40
0340
00C0
ENDCHAR
STARTCHAR BLACK LEFT-POINTING SMALL TRIANGLE
ENCODING 9666
SWIDTH 437 0
DWIDTH 7 0
BBX 5 5 1 2
BITMAP
08
38
F8
38
08
ENDCHAR
STARTCHAR WHITE LEFT-POINTING SMALL TRIANGLE
ENCODING 9667
SWIDTH 437 0
DWIDTH 7 0
BBX 5 5 1 2
BITMAP
08
38
C8
38
08
ENDCHAR
STARTCHAR BLACK LEFT-POINTING POINTER
ENCODING 9668
SWIDTH 687 0
DWIDTH 11 0
BBX 9 7 1 1
BITMAP
0080
0780
3F80
FF80
3F80
0780
0080
ENDCHAR
STARTCHAR WHITE LEFT-POINTING POINTER
ENCODING 9669
SWIDTH 687 0
DWIDTH 11 0
BBX 9 7 1 1
BITMAP
0080
0780
3880
C080
3880
0780
0080
ENDCHAR
STARTCHAR BLACK DIAMOND
ENCODING 9670
SWIDTH 687 0
DWIDTH 11 0
BBX 11 11 0 -1
BITMAP
0400
0E00
1F00
3F80
7FC0
FFE0
7FC0
3F80
1F00
0E00
0400
ENDCHAR
STARTCHAR WHITE DIAMOND
ENCODING 9671
SWIDTH 687 0
DWIDTH 11 0
BBX 11 11 0 -1
BITMAP
0400
0A00
1100
2080
4040
8020
4040
2080
1100
0A00
0400
ENDCHAR
STARTCHAR WHITE DIAMOND CONTAINING BLACK SMALL DIAMOND
ENCODING 9672
SWIDTH 687 0
DWIDTH 11 0
BBX 11 11 0 -1
BITMAP
0400
0A00
1100
2480
4E40
9F20
4E40
2480
1100
0A00
0400
ENDCHAR
STARTCHAR FISHEYE
ENCODING 9673
SWIDTH 687 0
DWIDTH 11 0
BBX 9 9 1 0
BITMAP
3E00
4100
9C80
BE80
BE80
BE80
9C80
4100
3E00
ENDCHAR
STARTCHAR LOZENGE
ENCODING 9674
SWIDTH 437 0
DWIDTH 7 0
BBX 7 13 0 -2
BITMAP
10
10
28
28
44
44
82
44
44
28
28
10
10
ENDCHAR
STARTCHAR WHITE CIRCLE
ENCODING 9675
SWIDTH 687 0
DWIDTH 11 0
BBX 9 9 1 0
BITMAP
3E00
4100
8080
8080
8080
8080
8080
4100
3E00
ENDCHAR
STARTCHAR DOTTED CIRCLE
ENCODING 9676
SWIDTH 687 0
DWIDTH 11 0
BBX 9 9 1 0
BITMAP
1A00
4100
8000
0080
8080
8000
0080
4100
2C00
ENDCHAR
STARTCHAR CIRCLE WITH VERTICAL FILL
ENCODING 9677
SWIDTH 687 0
DWIDTH 11 0
BBX 9 9 1 0
BITMAP
3E00
6B00
AA80
AA80
AA80
AA80
AA80
6B00
3E00
ENDCHAR
STARTCHAR BULLSEYE
ENCODING 9678
SWIDTH 687 0
DWIDTH 11 0
BBX 9 9 1 0
BITMAP
3E00
4100
9C80
A280
A280
A280
9C80
4100
3E00
ENDCHAR
STARTCHAR BLACK CIRCLE
ENCODING 9679
SWIDTH 687 0
DWIDTH 11 0
BBX 9 9 1 0
BITMAP
3E00
7F00
FF80
FF80
FF80
FF80
FF80
7F00
3E00
ENDCHAR
STARTCHAR CIRCLE WITH LEFT HALF BLACK
ENCODING 9680
SWIDTH 687 0
DWIDTH 11 0
BBX 9 9 1 0
BITMAP
3E00
7900
F880
F880
F880
F880
F880
7900
3E00
ENDCHAR
STARTCHAR CIRCLE WITH RIGHT HALF BLACK
ENCODING 9681
SWIDTH 687 0
DWIDTH 11 0
BBX 9 9 1 0
BITMAP
3E00
4F00
8F80
8F80
8F80
8F80
8F80
4F00
3E00
ENDCHAR
STARTCHAR CIRCLE WITH LOWER HALF BLACK
ENCODING 9682
SWIDTH 687 0
DWIDTH 11 0
BBX 9 9 1 0
BITMAP
3E00
4100
8080
8080
FF80
FF80
FF80
7F00
3E00
ENDCHAR
STARTCHAR CIRCLE WITH UPPER HALF BLACK
ENCODING 9683
SWIDTH 687 0
DWIDTH 11 0
BBX 9 9 1 0
BITMAP
3E00
7F00
FF80
FF80
FF80
8080
8080
4100
3E00
ENDCHAR
STARTCHAR CIRCLE WITH UPPER RIGHT QUADRANT BLACK
ENCODING 9684
SWIDTH 687 0
DWIDTH 11 0
BBX 9 9 1 0
BITMAP
3E00
4F00
8F80
8F80
8F80
8080
8080
4100
3E00
ENDCHAR
STARTCHAR CIRCLE WITH ALL BUT UPPER LEFT QUADRANT BLACK
ENCODING 9685
SWIDTH 687 0
DWIDTH 11 0
BBX 9 9 1 0
BITMAP
3E00
4F00
8F80
8F80
FF80
FF80
FF80
7F00
3E00
ENDCHAR
STARTCHAR LEFT HALF BLACK CIRCLE
ENCODING 9686
SWIDTH 500 0
DWIDTH 8 0
BBX 5 9 1 0
BITMAP
38
78
F8
F8
F8
F8
F8
78
38
ENDCHAR
STARTCHAR RIGHT HALF BLACK CIRCLE
ENCODING 9687
SWIDTH 500 0
DWIDTH 8 0
BBX 5 9 2 0
BITMAP
E0
F0
F8
F8
F8
F8
F8
F0
E0
ENDCHAR
STARTCHAR INVERSE BULLET
ENCODING 9688
SWIDTH 500 0
DWIDTH 8 0
BBX 8 10 0 0
BITMAP
FF
FF
FF
E7
C3
C3
E7
FF
FF
FF
ENDCHAR
STARTCHAR INVERSE WHITE CIRCLE
ENCODING 9689
SWIDTH 687 0
DWIDTH 11 0
BBX 11 16 0 -3
BITMAP
FFE0
FFE0
FFE0
FFE0
E0E0
DF60
BFA0
BFA0
BFA0
BFA0
BFA0
DF60
E0E0
FFE0
FFE0
FFE0
ENDCHAR
STARTCHAR UPPER HALF INVERSE WHITE CIRCLE
ENCODING 9690
SWIDTH 687 0
DWIDTH 11 0
BBX 11 8 0 5
BITMAP
FFE0
FFE0
FFE0
FFE0
E0E0
DF60
BFA0
BFA0
ENDCHAR
STARTCHAR LOWER HALF INVERSE WHITE CIRCLE
ENCODING 9691
SWIDTH 687 0
DWIDTH 11 0
BBX 11 8 0 -3
BITMAP
BFA0
BFA0
BFA0
DF60
E0E0
FFE0
FFE0
FFE0
ENDCHAR
STARTCHAR UPPER LEFT QUADRANT CIRCULAR ARC
ENCODING 9692
SWIDTH 500 0
DWIDTH 8 0
BBX 5 5 1 4
BITMAP
38
40
80
80
80
ENDCHAR
STARTCHAR UPPER RIGHT QUADRANT CIRCULAR ARC
ENCODING 9693
SWIDTH 500 0
DWIDTH 8 0
BBX 5 5 2 4
BITMAP
E0
10
08
08
08
ENDCHAR
STARTCHAR LOWER RIGHT QUADRANT CIRCULAR ARC
ENCODING 9694
SWIDTH 500 0
DWIDTH 8 0
BBX 5 5 2 0
BITMAP
08
08
08
10
E0
ENDCHAR
STARTCHAR LOWER LEFT QUADRANT CIRCULAR ARC
ENCODING 9695
SWIDTH 500 0
DWIDTH 8 0
BBX 5 5 1 0
BITMAP
80
80
80
40
38
ENDCHAR
STARTCHAR UPPER HALF CIRCLE
ENCODING 9696
SWIDTH 687 0
DWIDTH 11 0
BBX 9 5 1 4
BITMAP
3E00
4100
8080
8080
8080
ENDCHAR
STARTCHAR LOWER HALF CIRCLE
ENCODING 9697
SWIDTH 687 0
DWIDTH 11 0
BBX 9 5 1 0
BITMAP
8080
8080
8080
4100
3E00
ENDCHAR
STARTCHAR BLACK LOWER RIGHT TRIANGLE
ENCODING 9698
SWIDTH 687 0
DWIDTH 11 0
BBX 9 9 1 0
BITMAP
0080
0180
0380
0780
0F80
1F80
3F80
7F80
FF80
ENDCHAR
STARTCHAR BLACK LOWER LEFT TRIANGLE
ENCODING 9699
SWIDTH 687 0
DWIDTH 11 0
BBX 9 9 1 0
BITMAP
8000
C000
E000
F000
F800
FC00
FE00
FF00
FF80
ENDCHAR
STARTCHAR BLACK UPPER LEFT TRIANGLE
ENCODING 9700
SWIDTH 687 0
DWIDTH 11 0
BBX 9 9 1 0
BITMAP
FF80
FF00
FE00
FC00
F800
F000
E000
C000
8000
ENDCHAR
STARTCHAR BLACK UPPER RIGHT TRIANGLE
ENCODING 9701
SWIDTH 687 0
DWIDTH 11 0
BBX 9 9 1 0
BITMAP
FF80
7F80
3F80
1F80
0F80
0780
0380
0180
0080
ENDCHAR
STARTCHAR WHITE BULLET
ENCODING 9702
SWIDTH 500 0
DWIDTH 8 0
BBX 4 4 2 3
BITMAP
60
90
90
60
ENDCHAR
STARTCHAR SQUARE WITH LEFT HALF BLACK
ENCODING 9703
SWIDTH 687 0
DWIDTH 11 0
BBX 9 9 1 0
BITMAP
FF80
F880
F880
F880
F880
F880
F880
F880
FF80
ENDCHAR
STARTCHAR SQUARE WITH RIGHT HALF BLACK
ENCODING 9704
SWIDTH 687 0
DWIDTH 11 0
BBX 9 9 1 0
BITMAP
FF80
8F80
8F80
8F80
8F80
8F80
8F80
8F80
FF80
ENDCHAR
STARTCHAR SQUARE WITH UPPER LEFT DIAGONAL HALF BLACK
ENCODING 9705
SWIDTH 687 0
DWIDTH 11 0
BBX 9 9 1 0
BITMAP
FF80
FF80
FE80
FC80
F880
F080
E080
C080
FF80
ENDCHAR
STARTCHAR SQUARE WITH LOWER RIGHT DIAGONAL HALF BLACK
ENCODING 9706
SWIDTH 687 0
DWIDTH 11 0
BBX 9 9 1 0
BITMAP
FF80
8180
8380
8780
8F80
9F80
BF80
FF80
FF80
ENDCHAR
STARTCHAR WHITE SQUARE WITH VERTICAL BISECTING LINE
ENCODING 9707
SWIDTH 687 0
DWIDTH 11 0
BBX 9 9 1 0
BITMAP
FF80
8880
8880
8880
8880
8880
8880
8880
FF80
ENDCHAR
STARTCHAR WHITE UP-POINTING TRIANGLE WITH DOT
ENCODING 9708
SWIDTH 687 0
DWIDTH 11 0
BBX 9 10 1 0
BITMAP
0800
0800
1400
1400
2200
2200
4D00
4D00
8080
FF80
ENDCHAR
STARTCHAR UP-POINTING TRIANGLE WITH LEFT HALF BLACK
ENCODING 9709
SWIDTH 687 0
DWIDTH 11 0
BBX 9 10 1 0
BITMAP
0800
0800
1C00
1C00
3A00
3A00
7900
7900
F880
FF80
ENDCHAR
STARTCHAR UP-POINTING TRIANGLE WITH RIGHT HALF BLACK
ENCODING 9710
SWIDTH 687 0
DWIDTH 11 0
BBX 9 10 1 0
BITMAP
0800
0800
1C00
1C00
2E00
2E00
4F00
4F00
8F80
FF80
ENDCHAR
STARTCHAR LARGE CIRCLE
ENCODING 9711
SWIDTH 812 0
DWIDTH 13 0
BBX 13 13 0 -2
BITMAP
0F80
3060
4010
4010
8008
8008
8008
8008
8008
4010
4010
3060
0F80
ENDCHAR
STARTCHAR WHITE SQUARE WITH UPPER LEFT QUADRANT
ENCODING 9712
SWIDTH 687 0
DWIDTH 11 0
BBX 9 9 1 0
BITMAP
FF80
8880
8880
8880
F880
8080
8080
8080
FF80
ENDCHAR
STARTCHAR WHITE SQUARE WITH LOWER LEFT QUADRANT
ENCODING 9713
SWIDTH 687 0
DWIDTH 11 0
BBX 9 9 1 0
BITMAP
FF80
8080
8080
8080
F880
8880
8880
8880
FF80
ENDCHAR
STARTCHAR WHITE SQUARE WITH LOWER RIGHT QUADRANT
ENCODING 9714
SWIDTH 687 0
DWIDTH 11 0
BBX 9 9 1 0
BITMAP
FF80
8080
8080
8080
8F80
8880
8880
8880
FF80
ENDCHAR
STARTCHAR WHITE SQUARE WITH UPPER RIGHT QUADRANT
ENCODING 9715
SWIDTH 687 0
DWIDTH 11 0
BBX 9 9 1 0
BITMAP
FF80
8880
8880
8880
8F80
8080
8080
8080
FF80
ENDCHAR
STARTCHAR WHITE CIRCLE WITH UPPER LEFT QUADRANT
ENCODING 9716
SWIDTH 687 0
DWIDTH 11 0
BBX 9 9 1 0
BITMAP
3E00
4900
8880
8880
F880
8080
8080
4100
3E00
ENDCHAR
STARTCHAR WHITE CIRCLE WITH LOWER LEFT QUADRANT
ENCODING 9717
SWIDTH 687 0
DWIDTH 11 0
BBX 9 9 1 0
BITMAP
3E00
4100
8080
8080
F880
8880
8880
4900
3E00
ENDCHAR
STARTCHAR WHITE CIRCLE WITH LOWER RIGHT QUADRANT
ENCODING 9718
SWIDTH 687 0
DWIDTH 11 0
BBX 9 9 1 0
BITMAP
3E00
4100
8080
8080
8F80
8880
8880
4900
3E00
ENDCHAR
STARTCHAR WHITE CIRCLE WITH UPPER RIGHT QUADRANT
ENCODING 9719
SWIDTH 687 0
DWIDTH 11 0
BBX 9 9 1 0
BITMAP
3E00
4900
8880
8880
8F80
8080
8080
4100
3E00
ENDCHAR
STARTCHAR UPPER LEFT TRIANGLE
ENCODING 9720
SWIDTH 687 0
DWIDTH 11 0
BBX 9 9 1 0
BITMAP
FF80
8100
8200
8400
8800
9000
A000
C000
8000
ENDCHAR
STARTCHAR UPPER RIGHT TRIANGLE
ENCODING 9721
SWIDTH 687 0
DWIDTH 11 0
BBX 9 9 1 0
BITMAP
FF80
4080
2080
1080
0880
0480
0280
0180
0080
ENDCHAR
STARTCHAR LOWER LEFT TRIANGLE
ENCODING 9722
SWIDTH 687 0
DWIDTH 11 0
BBX 9 9 1 0
BITMAP
8000
C000
A000
9000
8800
8400
8200
8100
FF80
ENDCHAR
STARTCHAR WHITE MEDIUM SQUARE
ENCODING 9723
SWIDTH 562 0
DWIDTH 9 0
BBX 7 7 1 1
BITMAP
FE
82
82
82
82
82
FE
ENDCHAR
STARTCHAR BLACK MEDIUM SQUARE
ENCODING 9724
SWIDTH 562 0
DWIDTH 9 0
BBX 7 7 1 1
BITMAP
FE
FE
FE
FE
FE
FE
FE
ENDCHAR
STARTCHAR WHITE MEDIUM SMALL SQUARE
ENCODING 9725
SWIDTH 500 0
DWIDTH 8 0
BBX 6 6 1 2
BITMAP
FC
84
84
84
84
FC
ENDCHAR
STARTCHAR BLACK MEDIUM SMALL SQUARE
ENCODING 9726
SWIDTH 500 0
DWIDTH 8 0
BBX 6 6 1 2
BITMAP
FC
FC
FC
FC
FC
FC
ENDCHAR
STARTCHAR LOWER RIGHT TRIANGLE
ENCODING 9727
SWIDTH 687 0
DWIDTH 11 0
BBX 9 9 1 0
BITMAP
0080
0180
0280
0480
0880
1080
2080
4080
FF80
ENDCHAR
STARTCHAR WHITE FROWNING FACE
ENCODING 9785
SWIDTH 687 0
DWIDTH 11 0
BBX 9 9 1 0
BITMAP
3E00
4100
8080
A280
8080
9C80
A280
4100
3E00
ENDCHAR
STARTCHAR WHITE SMILING FACE
ENCODING 9786
SWIDTH 687 0
DWIDTH 11 0
BBX 9 9 1 0
BITMAP
3E00
7F00
FF80
DD80
FF80
DD80
E380
7F00
3E00
ENDCHAR
STARTCHAR BLACK SMILING FACE
ENCODING 9787
SWIDTH 687 0
DWIDTH 11 0
BBX 9 9 1 0
BITMAP
3E00
4100
8080
A280
8080
A280
9C80
4100
3E00
ENDCHAR
STARTCHAR WHITE SUN WITH RAYS
ENCODING 9788
SWIDTH 687 0
DWIDTH 11 0
BBX 11 11 0 -1
BITMAP
0400
4440
2080
0E00
1100
D160
1100
0E00
2080
4440
0400
ENDCHAR
STARTCHAR FEMALE SIGN
ENCODING 9792
SWIDTH 687 0
DWIDTH 11 0
BBX 7 12 2 -2
BITMAP
38
44
82
82
82
44
38
10
10
7C
10
10
ENDCHAR
STARTCHAR EARTH
ENCODING 9793
SWIDTH 687 0
DWIDTH 11 0
BBX 7 12 2 0
BITMAP
10
10
7C
10
10
38
44
82
82
82
44
38
ENDCHAR
STARTCHAR MALE SIGN
ENCODING 9794
SWIDTH 750 0
DWIDTH 12 0
BBX 10 10 1 0
BITMAP
03C0
00C0
0140
3A40
4400
8200
8200
8200
4400
3800
ENDCHAR
STARTCHAR BLACK SPADE SUIT
ENCODING 9824
SWIDTH 687 0
DWIDTH 11 0
BBX 9 9 1 0
BITMAP
0800
1C00
3E00
7F00
FF80
FF80
6B00
0800
1C00
ENDCHAR
STARTCHAR WHITE HEART SUIT
ENCODING 9825
SWIDTH 687 0
DWIDTH 11 0
BBX 9 8 1 0
BITMAP
7700
8880
8080
8080
4100
2200
1400
0800
ENDCHAR
STARTCHAR WHITE DIAMOND SUIT
ENCODING 9826
SWIDTH 687 0
DWIDTH 11 0
BBX 9 10 1 0
BITMAP
0800
1400
2200
4100
8080
8080
4100
2200
1400
0800
ENDCHAR
STARTCHAR BLACK CLUB SUIT
ENCODING 9827
SWIDTH 625 0
DWIDTH 10 0
BBX 9 10 1 0
BITMAP
1C00
3E00
3E00
1C00
7F00
FF80
FF80
6B00
0800
1C00
ENDCHAR
STARTCHAR WHITE SPADE SUIT
ENCODING 9828
SWIDTH 687 0
DWIDTH 11 0
BBX 9 9 1 0
BITMAP
0800
1400
2200
4100
8080
9480
6B00
0800
1C00
ENDCHAR
STARTCHAR BLACK HEART SUIT
ENCODING 9829
SWIDTH 687 0
DWIDTH 11 0
BBX 9 8 1 0
BITMAP
7700
FF80
FF80
FF80
7F00
3E00
1C00
0800
ENDCHAR
STARTCHAR BLACK DIAMOND SUIT
ENCODING 9830
SWIDTH 687 0
DWIDTH 11 0
BBX 9 10 1 0
BITMAP
0800
1C00
3E00
7F00
FF80
FF80
7F00
3E00
1C00
0800
ENDCHAR
STARTCHAR WHITE CLUB SUIT
ENCODING 9831
SWIDTH 625 0
DWIDTH 10 0
BBX 9 10 1 0
BITMAP
1C00
2200
2200
1400
7700
8080
9C80
6B00
0800
1C00
ENDCHAR
STARTCHAR QUARTER NOTE
ENCODING 9833
SWIDTH 500 0
DWIDTH 8 0
BBX 4 10 1 0
BITMAP
10
10
10
10
10
10
10
70
F0
60
ENDCHAR
STARTCHAR EIGHTH NOTE
ENCODING 9834
SWIDTH 500 0
DWIDTH 8 0
BBX 6 10 1 0
BITMAP
10
18
1C
14
14
14
18
70
F0
60
ENDCHAR
STARTCHAR BEAMED EIGHTH NOTES
ENCODING 9835
SWIDTH 687 0
DWIDTH 11 0
BBX 9 13 1 -2
BITMAP
1800
1E00
1780
1180
1080
1080
1080
7080
F080
6080
0380
0780
0300
ENDCHAR
STARTCHAR BEAMED SIXTEENTH NOTES
ENCODING 9836
SWIDTH 687 0
DWIDTH 11 0
BBX 9 13 1 -2
BITMAP
1800
1E00
1780
1180
1880
1E80
1780
7180
F080
6080
0380
0780
0300
ENDCHAR
STARTCHAR LESS-THAN OR SLANTED EQUAL TO
ENCODING 10877
SWIDTH 687 0
DWIDTH 11 0
BBX 7 8 2 1
BITMAP
06
38
C0
38
06
C0
38
06
ENDCHAR
STARTCHAR GREATER-THAN OR SLANTED EQUAL TO
ENCODING 10878
SWIDTH 687 0
DWIDTH 11 0
BBX 7 8 2 1
BITMAP
C0
38
06
38
C0
06
38
C0
ENDCHAR
STARTCHAR REPLACEMENT CHARACTER
ENCODING 65533
SWIDTH 500 0
DWIDTH 8 0
BBX 7 11 1 -1
BITMAP
AA
00
82
38
8A
10
82
10
82
00
AA
ENDCHAR
ENDFONT
